M48
;DRILL file {KiCad (5.0.0)} date 09/16/19 11:16:59
;FORMAT={-:-/ absolute / metric / decimal}
FMAT,2
METRIC,TZ
T1C0.400
T2C0.950
T3C1.000
T4C1.100
T5C3.200
%
G90
G05
M71
T1
X104.75Y-97.917
X105.537Y-100.076
X112.5Y-85.5
X112.5Y-87.5
X112.5Y-89.5
X112.5Y-91.5
X112.5Y-93.5
X112.5Y-95.5
X112.5Y-97.5
X114.5Y-85.5
X114.5Y-87.5
X114.5Y-95.5
X114.5Y-97.5
X116.5Y-85.5
X116.5Y-87.5
X116.5Y-95.5
X116.5Y-97.5
X118.5Y-85.5
X118.5Y-87.5
X118.5Y-95.5
X118.5Y-97.5
X120.5Y-85.5
X120.5Y-87.5
X120.5Y-89.5
X120.5Y-91.5
X120.5Y-93.5
X120.5Y-95.5
X120.5Y-97.5
X122.5Y-85.5
X122.5Y-87.5
X122.5Y-89.5
X122.5Y-91.5
X122.5Y-93.5
X122.5Y-95.5
X122.5Y-97.5
X128.803Y-84.15
X129.857Y-122.555
T2
X142.8Y-102.1
X142.8Y-104.6
X142.8Y-107.1
X142.8Y-109.6
X142.8Y-112.1
X142.8Y-114.6
X142.8Y-117.1
X142.8Y-119.6
T3
X137.13Y-93.75
X139.67Y-93.75
X142.21Y-93.75
X144.75Y-93.75
T4
X133.75Y-85.05
X133.75Y-89.05
T5
X144.Y-86.
X102.Y-128.
X102.Y-86.
X144.Y-128.
T0
M30
