G04 #@! TF.GenerationSoftware,KiCad,Pcbnew,(5.0.0)*
G04 #@! TF.CreationDate,2019-09-16T11:16:57+09:00*
G04 #@! TF.ProjectId,ESP32,45535033322E6B696361645F70636200,rev?*
G04 #@! TF.SameCoordinates,Original*
G04 #@! TF.FileFunction,Paste,Top*
G04 #@! TF.FilePolarity,Positive*
%FSLAX46Y46*%
G04 Gerber Fmt 4.6, Leading zero omitted, Abs format (unit mm)*
G04 Created by KiCad (PCBNEW (5.0.0)) date 09/16/19 11:16:57*
%MOMM*%
%LPD*%
G01*
G04 APERTURE LIST*
%ADD10R,5.000000X5.000000*%
%ADD11R,2.000000X0.900000*%
%ADD12R,0.900000X2.000000*%
%ADD13C,0.100000*%
%ADD14C,0.950000*%
%ADD15R,0.450000X1.380000*%
%ADD16R,1.475000X2.100000*%
%ADD17R,2.375000X1.900000*%
%ADD18R,1.175000X1.900000*%
%ADD19C,1.425000*%
%ADD20R,1.300000X1.550000*%
%ADD21C,1.000000*%
%ADD22C,5.200000*%
G04 APERTURE END LIST*
D10*
G04 #@! TO.C,U1*
X116550000Y-91550000D03*
D11*
X126045000Y-84020000D03*
X126045000Y-85290000D03*
X126045000Y-86560000D03*
X126045000Y-87830000D03*
X126045000Y-89100000D03*
X126045000Y-90370000D03*
X126045000Y-91640000D03*
X126045000Y-92910000D03*
X126045000Y-94180000D03*
X126045000Y-95450000D03*
X126045000Y-96720000D03*
X126045000Y-97990000D03*
X126045000Y-99260000D03*
X126045000Y-100530000D03*
D12*
X123265000Y-101550000D03*
X121995000Y-101550000D03*
X120725000Y-101550000D03*
X119445000Y-101550000D03*
X118185000Y-101550000D03*
X116915000Y-101550000D03*
X115645000Y-101550000D03*
X114375000Y-101550000D03*
X113105000Y-101550000D03*
X111845000Y-101550000D03*
D11*
X108995000Y-100530000D03*
X108995000Y-99260000D03*
X108995000Y-97990000D03*
X108995000Y-96720000D03*
X108995000Y-95450000D03*
X108995000Y-94180000D03*
X108995000Y-92910000D03*
X108995000Y-91640000D03*
X108995000Y-90370000D03*
X108995000Y-89100000D03*
X108995000Y-87830000D03*
X108995000Y-86560000D03*
X108995000Y-85290000D03*
X108995000Y-84020000D03*
G04 #@! TD*
D13*
G04 #@! TO.C,C1*
G36*
X102685779Y-92026144D02*
X102708834Y-92029563D01*
X102731443Y-92035227D01*
X102753387Y-92043079D01*
X102774457Y-92053044D01*
X102794448Y-92065026D01*
X102813168Y-92078910D01*
X102830438Y-92094562D01*
X102846090Y-92111832D01*
X102859974Y-92130552D01*
X102871956Y-92150543D01*
X102881921Y-92171613D01*
X102889773Y-92193557D01*
X102895437Y-92216166D01*
X102898856Y-92239221D01*
X102900000Y-92262500D01*
X102900000Y-92737500D01*
X102898856Y-92760779D01*
X102895437Y-92783834D01*
X102889773Y-92806443D01*
X102881921Y-92828387D01*
X102871956Y-92849457D01*
X102859974Y-92869448D01*
X102846090Y-92888168D01*
X102830438Y-92905438D01*
X102813168Y-92921090D01*
X102794448Y-92934974D01*
X102774457Y-92946956D01*
X102753387Y-92956921D01*
X102731443Y-92964773D01*
X102708834Y-92970437D01*
X102685779Y-92973856D01*
X102662500Y-92975000D01*
X102087500Y-92975000D01*
X102064221Y-92973856D01*
X102041166Y-92970437D01*
X102018557Y-92964773D01*
X101996613Y-92956921D01*
X101975543Y-92946956D01*
X101955552Y-92934974D01*
X101936832Y-92921090D01*
X101919562Y-92905438D01*
X101903910Y-92888168D01*
X101890026Y-92869448D01*
X101878044Y-92849457D01*
X101868079Y-92828387D01*
X101860227Y-92806443D01*
X101854563Y-92783834D01*
X101851144Y-92760779D01*
X101850000Y-92737500D01*
X101850000Y-92262500D01*
X101851144Y-92239221D01*
X101854563Y-92216166D01*
X101860227Y-92193557D01*
X101868079Y-92171613D01*
X101878044Y-92150543D01*
X101890026Y-92130552D01*
X101903910Y-92111832D01*
X101919562Y-92094562D01*
X101936832Y-92078910D01*
X101955552Y-92065026D01*
X101975543Y-92053044D01*
X101996613Y-92043079D01*
X102018557Y-92035227D01*
X102041166Y-92029563D01*
X102064221Y-92026144D01*
X102087500Y-92025000D01*
X102662500Y-92025000D01*
X102685779Y-92026144D01*
X102685779Y-92026144D01*
G37*
D14*
X102375000Y-92500000D03*
D13*
G36*
X104435779Y-92026144D02*
X104458834Y-92029563D01*
X104481443Y-92035227D01*
X104503387Y-92043079D01*
X104524457Y-92053044D01*
X104544448Y-92065026D01*
X104563168Y-92078910D01*
X104580438Y-92094562D01*
X104596090Y-92111832D01*
X104609974Y-92130552D01*
X104621956Y-92150543D01*
X104631921Y-92171613D01*
X104639773Y-92193557D01*
X104645437Y-92216166D01*
X104648856Y-92239221D01*
X104650000Y-92262500D01*
X104650000Y-92737500D01*
X104648856Y-92760779D01*
X104645437Y-92783834D01*
X104639773Y-92806443D01*
X104631921Y-92828387D01*
X104621956Y-92849457D01*
X104609974Y-92869448D01*
X104596090Y-92888168D01*
X104580438Y-92905438D01*
X104563168Y-92921090D01*
X104544448Y-92934974D01*
X104524457Y-92946956D01*
X104503387Y-92956921D01*
X104481443Y-92964773D01*
X104458834Y-92970437D01*
X104435779Y-92973856D01*
X104412500Y-92975000D01*
X103837500Y-92975000D01*
X103814221Y-92973856D01*
X103791166Y-92970437D01*
X103768557Y-92964773D01*
X103746613Y-92956921D01*
X103725543Y-92946956D01*
X103705552Y-92934974D01*
X103686832Y-92921090D01*
X103669562Y-92905438D01*
X103653910Y-92888168D01*
X103640026Y-92869448D01*
X103628044Y-92849457D01*
X103618079Y-92828387D01*
X103610227Y-92806443D01*
X103604563Y-92783834D01*
X103601144Y-92760779D01*
X103600000Y-92737500D01*
X103600000Y-92262500D01*
X103601144Y-92239221D01*
X103604563Y-92216166D01*
X103610227Y-92193557D01*
X103618079Y-92171613D01*
X103628044Y-92150543D01*
X103640026Y-92130552D01*
X103653910Y-92111832D01*
X103669562Y-92094562D01*
X103686832Y-92078910D01*
X103705552Y-92065026D01*
X103725543Y-92053044D01*
X103746613Y-92043079D01*
X103768557Y-92035227D01*
X103791166Y-92029563D01*
X103814221Y-92026144D01*
X103837500Y-92025000D01*
X104412500Y-92025000D01*
X104435779Y-92026144D01*
X104435779Y-92026144D01*
G37*
D14*
X104125000Y-92500000D03*
G04 #@! TD*
D13*
G04 #@! TO.C,C2*
G36*
X102510779Y-99351144D02*
X102533834Y-99354563D01*
X102556443Y-99360227D01*
X102578387Y-99368079D01*
X102599457Y-99378044D01*
X102619448Y-99390026D01*
X102638168Y-99403910D01*
X102655438Y-99419562D01*
X102671090Y-99436832D01*
X102684974Y-99455552D01*
X102696956Y-99475543D01*
X102706921Y-99496613D01*
X102714773Y-99518557D01*
X102720437Y-99541166D01*
X102723856Y-99564221D01*
X102725000Y-99587500D01*
X102725000Y-100162500D01*
X102723856Y-100185779D01*
X102720437Y-100208834D01*
X102714773Y-100231443D01*
X102706921Y-100253387D01*
X102696956Y-100274457D01*
X102684974Y-100294448D01*
X102671090Y-100313168D01*
X102655438Y-100330438D01*
X102638168Y-100346090D01*
X102619448Y-100359974D01*
X102599457Y-100371956D01*
X102578387Y-100381921D01*
X102556443Y-100389773D01*
X102533834Y-100395437D01*
X102510779Y-100398856D01*
X102487500Y-100400000D01*
X102012500Y-100400000D01*
X101989221Y-100398856D01*
X101966166Y-100395437D01*
X101943557Y-100389773D01*
X101921613Y-100381921D01*
X101900543Y-100371956D01*
X101880552Y-100359974D01*
X101861832Y-100346090D01*
X101844562Y-100330438D01*
X101828910Y-100313168D01*
X101815026Y-100294448D01*
X101803044Y-100274457D01*
X101793079Y-100253387D01*
X101785227Y-100231443D01*
X101779563Y-100208834D01*
X101776144Y-100185779D01*
X101775000Y-100162500D01*
X101775000Y-99587500D01*
X101776144Y-99564221D01*
X101779563Y-99541166D01*
X101785227Y-99518557D01*
X101793079Y-99496613D01*
X101803044Y-99475543D01*
X101815026Y-99455552D01*
X101828910Y-99436832D01*
X101844562Y-99419562D01*
X101861832Y-99403910D01*
X101880552Y-99390026D01*
X101900543Y-99378044D01*
X101921613Y-99368079D01*
X101943557Y-99360227D01*
X101966166Y-99354563D01*
X101989221Y-99351144D01*
X102012500Y-99350000D01*
X102487500Y-99350000D01*
X102510779Y-99351144D01*
X102510779Y-99351144D01*
G37*
D14*
X102250000Y-99875000D03*
D13*
G36*
X102510779Y-101101144D02*
X102533834Y-101104563D01*
X102556443Y-101110227D01*
X102578387Y-101118079D01*
X102599457Y-101128044D01*
X102619448Y-101140026D01*
X102638168Y-101153910D01*
X102655438Y-101169562D01*
X102671090Y-101186832D01*
X102684974Y-101205552D01*
X102696956Y-101225543D01*
X102706921Y-101246613D01*
X102714773Y-101268557D01*
X102720437Y-101291166D01*
X102723856Y-101314221D01*
X102725000Y-101337500D01*
X102725000Y-101912500D01*
X102723856Y-101935779D01*
X102720437Y-101958834D01*
X102714773Y-101981443D01*
X102706921Y-102003387D01*
X102696956Y-102024457D01*
X102684974Y-102044448D01*
X102671090Y-102063168D01*
X102655438Y-102080438D01*
X102638168Y-102096090D01*
X102619448Y-102109974D01*
X102599457Y-102121956D01*
X102578387Y-102131921D01*
X102556443Y-102139773D01*
X102533834Y-102145437D01*
X102510779Y-102148856D01*
X102487500Y-102150000D01*
X102012500Y-102150000D01*
X101989221Y-102148856D01*
X101966166Y-102145437D01*
X101943557Y-102139773D01*
X101921613Y-102131921D01*
X101900543Y-102121956D01*
X101880552Y-102109974D01*
X101861832Y-102096090D01*
X101844562Y-102080438D01*
X101828910Y-102063168D01*
X101815026Y-102044448D01*
X101803044Y-102024457D01*
X101793079Y-102003387D01*
X101785227Y-101981443D01*
X101779563Y-101958834D01*
X101776144Y-101935779D01*
X101775000Y-101912500D01*
X101775000Y-101337500D01*
X101776144Y-101314221D01*
X101779563Y-101291166D01*
X101785227Y-101268557D01*
X101793079Y-101246613D01*
X101803044Y-101225543D01*
X101815026Y-101205552D01*
X101828910Y-101186832D01*
X101844562Y-101169562D01*
X101861832Y-101153910D01*
X101880552Y-101140026D01*
X101900543Y-101128044D01*
X101921613Y-101118079D01*
X101943557Y-101110227D01*
X101966166Y-101104563D01*
X101989221Y-101101144D01*
X102012500Y-101100000D01*
X102487500Y-101100000D01*
X102510779Y-101101144D01*
X102510779Y-101101144D01*
G37*
D14*
X102250000Y-101625000D03*
G04 #@! TD*
D13*
G04 #@! TO.C,C3*
G36*
X104435779Y-96026144D02*
X104458834Y-96029563D01*
X104481443Y-96035227D01*
X104503387Y-96043079D01*
X104524457Y-96053044D01*
X104544448Y-96065026D01*
X104563168Y-96078910D01*
X104580438Y-96094562D01*
X104596090Y-96111832D01*
X104609974Y-96130552D01*
X104621956Y-96150543D01*
X104631921Y-96171613D01*
X104639773Y-96193557D01*
X104645437Y-96216166D01*
X104648856Y-96239221D01*
X104650000Y-96262500D01*
X104650000Y-96737500D01*
X104648856Y-96760779D01*
X104645437Y-96783834D01*
X104639773Y-96806443D01*
X104631921Y-96828387D01*
X104621956Y-96849457D01*
X104609974Y-96869448D01*
X104596090Y-96888168D01*
X104580438Y-96905438D01*
X104563168Y-96921090D01*
X104544448Y-96934974D01*
X104524457Y-96946956D01*
X104503387Y-96956921D01*
X104481443Y-96964773D01*
X104458834Y-96970437D01*
X104435779Y-96973856D01*
X104412500Y-96975000D01*
X103837500Y-96975000D01*
X103814221Y-96973856D01*
X103791166Y-96970437D01*
X103768557Y-96964773D01*
X103746613Y-96956921D01*
X103725543Y-96946956D01*
X103705552Y-96934974D01*
X103686832Y-96921090D01*
X103669562Y-96905438D01*
X103653910Y-96888168D01*
X103640026Y-96869448D01*
X103628044Y-96849457D01*
X103618079Y-96828387D01*
X103610227Y-96806443D01*
X103604563Y-96783834D01*
X103601144Y-96760779D01*
X103600000Y-96737500D01*
X103600000Y-96262500D01*
X103601144Y-96239221D01*
X103604563Y-96216166D01*
X103610227Y-96193557D01*
X103618079Y-96171613D01*
X103628044Y-96150543D01*
X103640026Y-96130552D01*
X103653910Y-96111832D01*
X103669562Y-96094562D01*
X103686832Y-96078910D01*
X103705552Y-96065026D01*
X103725543Y-96053044D01*
X103746613Y-96043079D01*
X103768557Y-96035227D01*
X103791166Y-96029563D01*
X103814221Y-96026144D01*
X103837500Y-96025000D01*
X104412500Y-96025000D01*
X104435779Y-96026144D01*
X104435779Y-96026144D01*
G37*
D14*
X104125000Y-96500000D03*
D13*
G36*
X102685779Y-96026144D02*
X102708834Y-96029563D01*
X102731443Y-96035227D01*
X102753387Y-96043079D01*
X102774457Y-96053044D01*
X102794448Y-96065026D01*
X102813168Y-96078910D01*
X102830438Y-96094562D01*
X102846090Y-96111832D01*
X102859974Y-96130552D01*
X102871956Y-96150543D01*
X102881921Y-96171613D01*
X102889773Y-96193557D01*
X102895437Y-96216166D01*
X102898856Y-96239221D01*
X102900000Y-96262500D01*
X102900000Y-96737500D01*
X102898856Y-96760779D01*
X102895437Y-96783834D01*
X102889773Y-96806443D01*
X102881921Y-96828387D01*
X102871956Y-96849457D01*
X102859974Y-96869448D01*
X102846090Y-96888168D01*
X102830438Y-96905438D01*
X102813168Y-96921090D01*
X102794448Y-96934974D01*
X102774457Y-96946956D01*
X102753387Y-96956921D01*
X102731443Y-96964773D01*
X102708834Y-96970437D01*
X102685779Y-96973856D01*
X102662500Y-96975000D01*
X102087500Y-96975000D01*
X102064221Y-96973856D01*
X102041166Y-96970437D01*
X102018557Y-96964773D01*
X101996613Y-96956921D01*
X101975543Y-96946956D01*
X101955552Y-96934974D01*
X101936832Y-96921090D01*
X101919562Y-96905438D01*
X101903910Y-96888168D01*
X101890026Y-96869448D01*
X101878044Y-96849457D01*
X101868079Y-96828387D01*
X101860227Y-96806443D01*
X101854563Y-96783834D01*
X101851144Y-96760779D01*
X101850000Y-96737500D01*
X101850000Y-96262500D01*
X101851144Y-96239221D01*
X101854563Y-96216166D01*
X101860227Y-96193557D01*
X101868079Y-96171613D01*
X101878044Y-96150543D01*
X101890026Y-96130552D01*
X101903910Y-96111832D01*
X101919562Y-96094562D01*
X101936832Y-96078910D01*
X101955552Y-96065026D01*
X101975543Y-96053044D01*
X101996613Y-96043079D01*
X102018557Y-96035227D01*
X102041166Y-96029563D01*
X102064221Y-96026144D01*
X102087500Y-96025000D01*
X102662500Y-96025000D01*
X102685779Y-96026144D01*
X102685779Y-96026144D01*
G37*
D14*
X102375000Y-96500000D03*
G04 #@! TD*
D13*
G04 #@! TO.C,C4*
G36*
X127263386Y-107899691D02*
X127286441Y-107903110D01*
X127309050Y-107908774D01*
X127330994Y-107916626D01*
X127352064Y-107926591D01*
X127372055Y-107938573D01*
X127390775Y-107952457D01*
X127408045Y-107968109D01*
X127423697Y-107985379D01*
X127437581Y-108004099D01*
X127449563Y-108024090D01*
X127459528Y-108045160D01*
X127467380Y-108067104D01*
X127473044Y-108089713D01*
X127476463Y-108112768D01*
X127477607Y-108136047D01*
X127477607Y-108711047D01*
X127476463Y-108734326D01*
X127473044Y-108757381D01*
X127467380Y-108779990D01*
X127459528Y-108801934D01*
X127449563Y-108823004D01*
X127437581Y-108842995D01*
X127423697Y-108861715D01*
X127408045Y-108878985D01*
X127390775Y-108894637D01*
X127372055Y-108908521D01*
X127352064Y-108920503D01*
X127330994Y-108930468D01*
X127309050Y-108938320D01*
X127286441Y-108943984D01*
X127263386Y-108947403D01*
X127240107Y-108948547D01*
X126765107Y-108948547D01*
X126741828Y-108947403D01*
X126718773Y-108943984D01*
X126696164Y-108938320D01*
X126674220Y-108930468D01*
X126653150Y-108920503D01*
X126633159Y-108908521D01*
X126614439Y-108894637D01*
X126597169Y-108878985D01*
X126581517Y-108861715D01*
X126567633Y-108842995D01*
X126555651Y-108823004D01*
X126545686Y-108801934D01*
X126537834Y-108779990D01*
X126532170Y-108757381D01*
X126528751Y-108734326D01*
X126527607Y-108711047D01*
X126527607Y-108136047D01*
X126528751Y-108112768D01*
X126532170Y-108089713D01*
X126537834Y-108067104D01*
X126545686Y-108045160D01*
X126555651Y-108024090D01*
X126567633Y-108004099D01*
X126581517Y-107985379D01*
X126597169Y-107968109D01*
X126614439Y-107952457D01*
X126633159Y-107938573D01*
X126653150Y-107926591D01*
X126674220Y-107916626D01*
X126696164Y-107908774D01*
X126718773Y-107903110D01*
X126741828Y-107899691D01*
X126765107Y-107898547D01*
X127240107Y-107898547D01*
X127263386Y-107899691D01*
X127263386Y-107899691D01*
G37*
D14*
X127002607Y-108423547D03*
D13*
G36*
X127263386Y-109649691D02*
X127286441Y-109653110D01*
X127309050Y-109658774D01*
X127330994Y-109666626D01*
X127352064Y-109676591D01*
X127372055Y-109688573D01*
X127390775Y-109702457D01*
X127408045Y-109718109D01*
X127423697Y-109735379D01*
X127437581Y-109754099D01*
X127449563Y-109774090D01*
X127459528Y-109795160D01*
X127467380Y-109817104D01*
X127473044Y-109839713D01*
X127476463Y-109862768D01*
X127477607Y-109886047D01*
X127477607Y-110461047D01*
X127476463Y-110484326D01*
X127473044Y-110507381D01*
X127467380Y-110529990D01*
X127459528Y-110551934D01*
X127449563Y-110573004D01*
X127437581Y-110592995D01*
X127423697Y-110611715D01*
X127408045Y-110628985D01*
X127390775Y-110644637D01*
X127372055Y-110658521D01*
X127352064Y-110670503D01*
X127330994Y-110680468D01*
X127309050Y-110688320D01*
X127286441Y-110693984D01*
X127263386Y-110697403D01*
X127240107Y-110698547D01*
X126765107Y-110698547D01*
X126741828Y-110697403D01*
X126718773Y-110693984D01*
X126696164Y-110688320D01*
X126674220Y-110680468D01*
X126653150Y-110670503D01*
X126633159Y-110658521D01*
X126614439Y-110644637D01*
X126597169Y-110628985D01*
X126581517Y-110611715D01*
X126567633Y-110592995D01*
X126555651Y-110573004D01*
X126545686Y-110551934D01*
X126537834Y-110529990D01*
X126532170Y-110507381D01*
X126528751Y-110484326D01*
X126527607Y-110461047D01*
X126527607Y-109886047D01*
X126528751Y-109862768D01*
X126532170Y-109839713D01*
X126537834Y-109817104D01*
X126545686Y-109795160D01*
X126555651Y-109774090D01*
X126567633Y-109754099D01*
X126581517Y-109735379D01*
X126597169Y-109718109D01*
X126614439Y-109702457D01*
X126633159Y-109688573D01*
X126653150Y-109676591D01*
X126674220Y-109666626D01*
X126696164Y-109658774D01*
X126718773Y-109653110D01*
X126741828Y-109649691D01*
X126765107Y-109648547D01*
X127240107Y-109648547D01*
X127263386Y-109649691D01*
X127263386Y-109649691D01*
G37*
D14*
X127002607Y-110173547D03*
G04 #@! TD*
D13*
G04 #@! TO.C,C5*
G36*
X115013386Y-109649691D02*
X115036441Y-109653110D01*
X115059050Y-109658774D01*
X115080994Y-109666626D01*
X115102064Y-109676591D01*
X115122055Y-109688573D01*
X115140775Y-109702457D01*
X115158045Y-109718109D01*
X115173697Y-109735379D01*
X115187581Y-109754099D01*
X115199563Y-109774090D01*
X115209528Y-109795160D01*
X115217380Y-109817104D01*
X115223044Y-109839713D01*
X115226463Y-109862768D01*
X115227607Y-109886047D01*
X115227607Y-110461047D01*
X115226463Y-110484326D01*
X115223044Y-110507381D01*
X115217380Y-110529990D01*
X115209528Y-110551934D01*
X115199563Y-110573004D01*
X115187581Y-110592995D01*
X115173697Y-110611715D01*
X115158045Y-110628985D01*
X115140775Y-110644637D01*
X115122055Y-110658521D01*
X115102064Y-110670503D01*
X115080994Y-110680468D01*
X115059050Y-110688320D01*
X115036441Y-110693984D01*
X115013386Y-110697403D01*
X114990107Y-110698547D01*
X114515107Y-110698547D01*
X114491828Y-110697403D01*
X114468773Y-110693984D01*
X114446164Y-110688320D01*
X114424220Y-110680468D01*
X114403150Y-110670503D01*
X114383159Y-110658521D01*
X114364439Y-110644637D01*
X114347169Y-110628985D01*
X114331517Y-110611715D01*
X114317633Y-110592995D01*
X114305651Y-110573004D01*
X114295686Y-110551934D01*
X114287834Y-110529990D01*
X114282170Y-110507381D01*
X114278751Y-110484326D01*
X114277607Y-110461047D01*
X114277607Y-109886047D01*
X114278751Y-109862768D01*
X114282170Y-109839713D01*
X114287834Y-109817104D01*
X114295686Y-109795160D01*
X114305651Y-109774090D01*
X114317633Y-109754099D01*
X114331517Y-109735379D01*
X114347169Y-109718109D01*
X114364439Y-109702457D01*
X114383159Y-109688573D01*
X114403150Y-109676591D01*
X114424220Y-109666626D01*
X114446164Y-109658774D01*
X114468773Y-109653110D01*
X114491828Y-109649691D01*
X114515107Y-109648547D01*
X114990107Y-109648547D01*
X115013386Y-109649691D01*
X115013386Y-109649691D01*
G37*
D14*
X114752607Y-110173547D03*
D13*
G36*
X115013386Y-107899691D02*
X115036441Y-107903110D01*
X115059050Y-107908774D01*
X115080994Y-107916626D01*
X115102064Y-107926591D01*
X115122055Y-107938573D01*
X115140775Y-107952457D01*
X115158045Y-107968109D01*
X115173697Y-107985379D01*
X115187581Y-108004099D01*
X115199563Y-108024090D01*
X115209528Y-108045160D01*
X115217380Y-108067104D01*
X115223044Y-108089713D01*
X115226463Y-108112768D01*
X115227607Y-108136047D01*
X115227607Y-108711047D01*
X115226463Y-108734326D01*
X115223044Y-108757381D01*
X115217380Y-108779990D01*
X115209528Y-108801934D01*
X115199563Y-108823004D01*
X115187581Y-108842995D01*
X115173697Y-108861715D01*
X115158045Y-108878985D01*
X115140775Y-108894637D01*
X115122055Y-108908521D01*
X115102064Y-108920503D01*
X115080994Y-108930468D01*
X115059050Y-108938320D01*
X115036441Y-108943984D01*
X115013386Y-108947403D01*
X114990107Y-108948547D01*
X114515107Y-108948547D01*
X114491828Y-108947403D01*
X114468773Y-108943984D01*
X114446164Y-108938320D01*
X114424220Y-108930468D01*
X114403150Y-108920503D01*
X114383159Y-108908521D01*
X114364439Y-108894637D01*
X114347169Y-108878985D01*
X114331517Y-108861715D01*
X114317633Y-108842995D01*
X114305651Y-108823004D01*
X114295686Y-108801934D01*
X114287834Y-108779990D01*
X114282170Y-108757381D01*
X114278751Y-108734326D01*
X114277607Y-108711047D01*
X114277607Y-108136047D01*
X114278751Y-108112768D01*
X114282170Y-108089713D01*
X114287834Y-108067104D01*
X114295686Y-108045160D01*
X114305651Y-108024090D01*
X114317633Y-108004099D01*
X114331517Y-107985379D01*
X114347169Y-107968109D01*
X114364439Y-107952457D01*
X114383159Y-107938573D01*
X114403150Y-107926591D01*
X114424220Y-107916626D01*
X114446164Y-107908774D01*
X114468773Y-107903110D01*
X114491828Y-107899691D01*
X114515107Y-107898547D01*
X114990107Y-107898547D01*
X115013386Y-107899691D01*
X115013386Y-107899691D01*
G37*
D14*
X114752607Y-108423547D03*
G04 #@! TD*
D15*
G04 #@! TO.C,J1*
X121700000Y-126540000D03*
X122350000Y-126540000D03*
X123000000Y-126540000D03*
X123650000Y-126540000D03*
X124300000Y-126540000D03*
D16*
X120537500Y-126900000D03*
X125462500Y-126900000D03*
D17*
X120090000Y-129200000D03*
X125910000Y-129200000D03*
D18*
X122160000Y-129200000D03*
X123840000Y-129200000D03*
G04 #@! TD*
D13*
G04 #@! TO.C,R1*
G36*
X105499504Y-103676204D02*
X105523773Y-103679804D01*
X105547571Y-103685765D01*
X105570671Y-103694030D01*
X105592849Y-103704520D01*
X105613893Y-103717133D01*
X105633598Y-103731747D01*
X105651777Y-103748223D01*
X105668253Y-103766402D01*
X105682867Y-103786107D01*
X105695480Y-103807151D01*
X105705970Y-103829329D01*
X105714235Y-103852429D01*
X105720196Y-103876227D01*
X105723796Y-103900496D01*
X105725000Y-103925000D01*
X105725000Y-106075000D01*
X105723796Y-106099504D01*
X105720196Y-106123773D01*
X105714235Y-106147571D01*
X105705970Y-106170671D01*
X105695480Y-106192849D01*
X105682867Y-106213893D01*
X105668253Y-106233598D01*
X105651777Y-106251777D01*
X105633598Y-106268253D01*
X105613893Y-106282867D01*
X105592849Y-106295480D01*
X105570671Y-106305970D01*
X105547571Y-106314235D01*
X105523773Y-106320196D01*
X105499504Y-106323796D01*
X105475000Y-106325000D01*
X104550000Y-106325000D01*
X104525496Y-106323796D01*
X104501227Y-106320196D01*
X104477429Y-106314235D01*
X104454329Y-106305970D01*
X104432151Y-106295480D01*
X104411107Y-106282867D01*
X104391402Y-106268253D01*
X104373223Y-106251777D01*
X104356747Y-106233598D01*
X104342133Y-106213893D01*
X104329520Y-106192849D01*
X104319030Y-106170671D01*
X104310765Y-106147571D01*
X104304804Y-106123773D01*
X104301204Y-106099504D01*
X104300000Y-106075000D01*
X104300000Y-103925000D01*
X104301204Y-103900496D01*
X104304804Y-103876227D01*
X104310765Y-103852429D01*
X104319030Y-103829329D01*
X104329520Y-103807151D01*
X104342133Y-103786107D01*
X104356747Y-103766402D01*
X104373223Y-103748223D01*
X104391402Y-103731747D01*
X104411107Y-103717133D01*
X104432151Y-103704520D01*
X104454329Y-103694030D01*
X104477429Y-103685765D01*
X104501227Y-103679804D01*
X104525496Y-103676204D01*
X104550000Y-103675000D01*
X105475000Y-103675000D01*
X105499504Y-103676204D01*
X105499504Y-103676204D01*
G37*
D19*
X105012500Y-105000000D03*
D13*
G36*
X108474504Y-103676204D02*
X108498773Y-103679804D01*
X108522571Y-103685765D01*
X108545671Y-103694030D01*
X108567849Y-103704520D01*
X108588893Y-103717133D01*
X108608598Y-103731747D01*
X108626777Y-103748223D01*
X108643253Y-103766402D01*
X108657867Y-103786107D01*
X108670480Y-103807151D01*
X108680970Y-103829329D01*
X108689235Y-103852429D01*
X108695196Y-103876227D01*
X108698796Y-103900496D01*
X108700000Y-103925000D01*
X108700000Y-106075000D01*
X108698796Y-106099504D01*
X108695196Y-106123773D01*
X108689235Y-106147571D01*
X108680970Y-106170671D01*
X108670480Y-106192849D01*
X108657867Y-106213893D01*
X108643253Y-106233598D01*
X108626777Y-106251777D01*
X108608598Y-106268253D01*
X108588893Y-106282867D01*
X108567849Y-106295480D01*
X108545671Y-106305970D01*
X108522571Y-106314235D01*
X108498773Y-106320196D01*
X108474504Y-106323796D01*
X108450000Y-106325000D01*
X107525000Y-106325000D01*
X107500496Y-106323796D01*
X107476227Y-106320196D01*
X107452429Y-106314235D01*
X107429329Y-106305970D01*
X107407151Y-106295480D01*
X107386107Y-106282867D01*
X107366402Y-106268253D01*
X107348223Y-106251777D01*
X107331747Y-106233598D01*
X107317133Y-106213893D01*
X107304520Y-106192849D01*
X107294030Y-106170671D01*
X107285765Y-106147571D01*
X107279804Y-106123773D01*
X107276204Y-106099504D01*
X107275000Y-106075000D01*
X107275000Y-103925000D01*
X107276204Y-103900496D01*
X107279804Y-103876227D01*
X107285765Y-103852429D01*
X107294030Y-103829329D01*
X107304520Y-103807151D01*
X107317133Y-103786107D01*
X107331747Y-103766402D01*
X107348223Y-103748223D01*
X107366402Y-103731747D01*
X107386107Y-103717133D01*
X107407151Y-103704520D01*
X107429329Y-103694030D01*
X107452429Y-103685765D01*
X107476227Y-103679804D01*
X107500496Y-103676204D01*
X107525000Y-103675000D01*
X108450000Y-103675000D01*
X108474504Y-103676204D01*
X108474504Y-103676204D01*
G37*
D19*
X107987500Y-105000000D03*
G04 #@! TD*
D20*
G04 #@! TO.C,SW1*
X103000000Y-109270000D03*
X107500000Y-109270000D03*
X107500000Y-117230000D03*
X103000000Y-117230000D03*
G04 #@! TD*
G04 #@! TO.C,SW2*
X132250000Y-128480000D03*
X136750000Y-128480000D03*
X136750000Y-120520000D03*
X132250000Y-120520000D03*
G04 #@! TD*
D13*
G04 #@! TO.C,U2*
G36*
X123817111Y-107902251D02*
X123841380Y-107905851D01*
X123865178Y-107911812D01*
X123888278Y-107920077D01*
X123910456Y-107930567D01*
X123931500Y-107943180D01*
X123951205Y-107957794D01*
X123969384Y-107974270D01*
X123985860Y-107992449D01*
X124000474Y-108012154D01*
X124013087Y-108033198D01*
X124023577Y-108055376D01*
X124031842Y-108078476D01*
X124037803Y-108102274D01*
X124041403Y-108126543D01*
X124042607Y-108151047D01*
X124042607Y-110151047D01*
X124041403Y-110175551D01*
X124037803Y-110199820D01*
X124031842Y-110223618D01*
X124023577Y-110246718D01*
X124013087Y-110268896D01*
X124000474Y-110289940D01*
X123985860Y-110309645D01*
X123969384Y-110327824D01*
X123951205Y-110344300D01*
X123931500Y-110358914D01*
X123910456Y-110371527D01*
X123888278Y-110382017D01*
X123865178Y-110390282D01*
X123841380Y-110396243D01*
X123817111Y-110399843D01*
X123792607Y-110401047D01*
X123292607Y-110401047D01*
X123268103Y-110399843D01*
X123243834Y-110396243D01*
X123220036Y-110390282D01*
X123196936Y-110382017D01*
X123174758Y-110371527D01*
X123153714Y-110358914D01*
X123134009Y-110344300D01*
X123115830Y-110327824D01*
X123099354Y-110309645D01*
X123084740Y-110289940D01*
X123072127Y-110268896D01*
X123061637Y-110246718D01*
X123053372Y-110223618D01*
X123047411Y-110199820D01*
X123043811Y-110175551D01*
X123042607Y-110151047D01*
X123042607Y-108151047D01*
X123043811Y-108126543D01*
X123047411Y-108102274D01*
X123053372Y-108078476D01*
X123061637Y-108055376D01*
X123072127Y-108033198D01*
X123084740Y-108012154D01*
X123099354Y-107992449D01*
X123115830Y-107974270D01*
X123134009Y-107957794D01*
X123153714Y-107943180D01*
X123174758Y-107930567D01*
X123196936Y-107920077D01*
X123220036Y-107911812D01*
X123243834Y-107905851D01*
X123268103Y-107902251D01*
X123292607Y-107901047D01*
X123792607Y-107901047D01*
X123817111Y-107902251D01*
X123817111Y-107902251D01*
G37*
D21*
X123542607Y-109151047D03*
D13*
G36*
X122430029Y-110808807D02*
X122556224Y-110827526D01*
X122679977Y-110858525D01*
X122800095Y-110901504D01*
X122915423Y-110956049D01*
X123024848Y-111021637D01*
X123127318Y-111097633D01*
X123221846Y-111183308D01*
X123307521Y-111277836D01*
X123383517Y-111380306D01*
X123449105Y-111489731D01*
X123503650Y-111605059D01*
X123546629Y-111725177D01*
X123577628Y-111848930D01*
X123596347Y-111975125D01*
X123602607Y-112102547D01*
X123602607Y-117502547D01*
X123596347Y-117629969D01*
X123577628Y-117756164D01*
X123546629Y-117879917D01*
X123503650Y-118000035D01*
X123449105Y-118115363D01*
X123383517Y-118224788D01*
X123307521Y-118327258D01*
X123221846Y-118421786D01*
X123127318Y-118507461D01*
X123024848Y-118583457D01*
X122915423Y-118649045D01*
X122800095Y-118703590D01*
X122679977Y-118746569D01*
X122556224Y-118777568D01*
X122430029Y-118796287D01*
X122302607Y-118802547D01*
X119702607Y-118802547D01*
X119575185Y-118796287D01*
X119448990Y-118777568D01*
X119325237Y-118746569D01*
X119205119Y-118703590D01*
X119089791Y-118649045D01*
X118980366Y-118583457D01*
X118877896Y-118507461D01*
X118783368Y-118421786D01*
X118697693Y-118327258D01*
X118621697Y-118224788D01*
X118556109Y-118115363D01*
X118501564Y-118000035D01*
X118458585Y-117879917D01*
X118427586Y-117756164D01*
X118408867Y-117629969D01*
X118402607Y-117502547D01*
X118402607Y-112102547D01*
X118408867Y-111975125D01*
X118427586Y-111848930D01*
X118458585Y-111725177D01*
X118501564Y-111605059D01*
X118556109Y-111489731D01*
X118621697Y-111380306D01*
X118697693Y-111277836D01*
X118783368Y-111183308D01*
X118877896Y-111097633D01*
X118980366Y-111021637D01*
X119089791Y-110956049D01*
X119205119Y-110901504D01*
X119325237Y-110858525D01*
X119448990Y-110827526D01*
X119575185Y-110808807D01*
X119702607Y-110802547D01*
X122302607Y-110802547D01*
X122430029Y-110808807D01*
X122430029Y-110808807D01*
G37*
D22*
X121002607Y-114802547D03*
D13*
G36*
X118737111Y-107902251D02*
X118761380Y-107905851D01*
X118785178Y-107911812D01*
X118808278Y-107920077D01*
X118830456Y-107930567D01*
X118851500Y-107943180D01*
X118871205Y-107957794D01*
X118889384Y-107974270D01*
X118905860Y-107992449D01*
X118920474Y-108012154D01*
X118933087Y-108033198D01*
X118943577Y-108055376D01*
X118951842Y-108078476D01*
X118957803Y-108102274D01*
X118961403Y-108126543D01*
X118962607Y-108151047D01*
X118962607Y-110151047D01*
X118961403Y-110175551D01*
X118957803Y-110199820D01*
X118951842Y-110223618D01*
X118943577Y-110246718D01*
X118933087Y-110268896D01*
X118920474Y-110289940D01*
X118905860Y-110309645D01*
X118889384Y-110327824D01*
X118871205Y-110344300D01*
X118851500Y-110358914D01*
X118830456Y-110371527D01*
X118808278Y-110382017D01*
X118785178Y-110390282D01*
X118761380Y-110396243D01*
X118737111Y-110399843D01*
X118712607Y-110401047D01*
X118212607Y-110401047D01*
X118188103Y-110399843D01*
X118163834Y-110396243D01*
X118140036Y-110390282D01*
X118116936Y-110382017D01*
X118094758Y-110371527D01*
X118073714Y-110358914D01*
X118054009Y-110344300D01*
X118035830Y-110327824D01*
X118019354Y-110309645D01*
X118004740Y-110289940D01*
X117992127Y-110268896D01*
X117981637Y-110246718D01*
X117973372Y-110223618D01*
X117967411Y-110199820D01*
X117963811Y-110175551D01*
X117962607Y-110151047D01*
X117962607Y-108151047D01*
X117963811Y-108126543D01*
X117967411Y-108102274D01*
X117973372Y-108078476D01*
X117981637Y-108055376D01*
X117992127Y-108033198D01*
X118004740Y-108012154D01*
X118019354Y-107992449D01*
X118035830Y-107974270D01*
X118054009Y-107957794D01*
X118073714Y-107943180D01*
X118094758Y-107930567D01*
X118116936Y-107920077D01*
X118140036Y-107911812D01*
X118163834Y-107905851D01*
X118188103Y-107902251D01*
X118212607Y-107901047D01*
X118712607Y-107901047D01*
X118737111Y-107902251D01*
X118737111Y-107902251D01*
G37*
D21*
X118462607Y-109151047D03*
G04 #@! TD*
M02*
