G04 #@! TF.GenerationSoftware,KiCad,Pcbnew,(5.0.0)*
G04 #@! TF.CreationDate,2019-09-16T11:16:57+09:00*
G04 #@! TF.ProjectId,ESP32,45535033322E6B696361645F70636200,rev?*
G04 #@! TF.SameCoordinates,Original*
G04 #@! TF.FileFunction,Copper,L1,Top,Signal*
G04 #@! TF.FilePolarity,Positive*
%FSLAX46Y46*%
G04 Gerber Fmt 4.6, Leading zero omitted, Abs format (unit mm)*
G04 Created by KiCad (PCBNEW (5.0.0)) date 09/16/19 11:16:57*
%MOMM*%
%LPD*%
G01*
G04 APERTURE LIST*
G04 #@! TA.AperFunction,ComponentPad*
%ADD10R,1.950000X1.700000*%
G04 #@! TD*
G04 #@! TA.AperFunction,ComponentPad*
%ADD11O,1.950000X1.700000*%
G04 #@! TD*
G04 #@! TA.AperFunction,SMDPad,CuDef*
%ADD12R,5.000000X5.000000*%
G04 #@! TD*
G04 #@! TA.AperFunction,SMDPad,CuDef*
%ADD13R,2.000000X0.900000*%
G04 #@! TD*
G04 #@! TA.AperFunction,SMDPad,CuDef*
%ADD14R,0.900000X2.000000*%
G04 #@! TD*
G04 #@! TA.AperFunction,Conductor*
%ADD15C,0.100000*%
G04 #@! TD*
G04 #@! TA.AperFunction,SMDPad,CuDef*
%ADD16C,0.950000*%
G04 #@! TD*
G04 #@! TA.AperFunction,SMDPad,CuDef*
%ADD17R,0.450000X1.380000*%
G04 #@! TD*
G04 #@! TA.AperFunction,SMDPad,CuDef*
%ADD18R,1.475000X2.100000*%
G04 #@! TD*
G04 #@! TA.AperFunction,SMDPad,CuDef*
%ADD19R,2.375000X1.900000*%
G04 #@! TD*
G04 #@! TA.AperFunction,SMDPad,CuDef*
%ADD20R,1.175000X1.900000*%
G04 #@! TD*
G04 #@! TA.AperFunction,ComponentPad*
%ADD21R,1.700000X1.700000*%
G04 #@! TD*
G04 #@! TA.AperFunction,ComponentPad*
%ADD22O,1.700000X1.700000*%
G04 #@! TD*
G04 #@! TA.AperFunction,SMDPad,CuDef*
%ADD23C,1.425000*%
G04 #@! TD*
G04 #@! TA.AperFunction,SMDPad,CuDef*
%ADD24R,1.300000X1.550000*%
G04 #@! TD*
G04 #@! TA.AperFunction,SMDPad,CuDef*
%ADD25C,1.000000*%
G04 #@! TD*
G04 #@! TA.AperFunction,SMDPad,CuDef*
%ADD26C,5.200000*%
G04 #@! TD*
G04 #@! TA.AperFunction,ViaPad*
%ADD27C,0.800000*%
G04 #@! TD*
G04 #@! TA.AperFunction,Conductor*
%ADD28C,0.250000*%
G04 #@! TD*
G04 #@! TA.AperFunction,Conductor*
%ADD29C,0.254000*%
G04 #@! TD*
G04 APERTURE END LIST*
D10*
G04 #@! TO.P,J2,1*
G04 #@! TO.N,Net-(C4-Pad1)*
X142800000Y-119600000D03*
D11*
G04 #@! TO.P,J2,2*
G04 #@! TO.N,Net-(C1-Pad1)*
X142800000Y-117100000D03*
G04 #@! TO.P,J2,3*
G04 #@! TO.N,Net-(J2-Pad3)*
X142800000Y-114600000D03*
G04 #@! TO.P,J2,4*
G04 #@! TO.N,Net-(J2-Pad4)*
X142800000Y-112100000D03*
G04 #@! TO.P,J2,5*
G04 #@! TO.N,Net-(J2-Pad5)*
X142800000Y-109600000D03*
G04 #@! TO.P,J2,6*
G04 #@! TO.N,Net-(J2-Pad6)*
X142800000Y-107100000D03*
G04 #@! TO.P,J2,7*
G04 #@! TO.N,Net-(J2-Pad7)*
X142800000Y-104600000D03*
G04 #@! TO.P,J2,8*
G04 #@! TO.N,Net-(J2-Pad8)*
X142800000Y-102100000D03*
G04 #@! TD*
D12*
G04 #@! TO.P,U1,39*
G04 #@! TO.N,Net-(C1-Pad1)*
X116550000Y-91550000D03*
D13*
G04 #@! TO.P,U1,38*
X126045000Y-84020000D03*
G04 #@! TO.P,U1,37*
G04 #@! TO.N,Net-(SW3-Pad4)*
X126045000Y-85290000D03*
G04 #@! TO.P,U1,36*
G04 #@! TO.N,Net-(SW3-Pad1)*
X126045000Y-86560000D03*
G04 #@! TO.P,U1,35*
G04 #@! TO.N,Net-(J3-Pad4)*
X126045000Y-87830000D03*
G04 #@! TO.P,U1,34*
G04 #@! TO.N,Net-(J3-Pad3)*
X126045000Y-89100000D03*
G04 #@! TO.P,U1,33*
G04 #@! TO.N,Net-(SW3-Pad2)*
X126045000Y-90370000D03*
G04 #@! TO.P,U1,32*
G04 #@! TO.N,Net-(U1-Pad32)*
X126045000Y-91640000D03*
G04 #@! TO.P,U1,31*
G04 #@! TO.N,Net-(J2-Pad8)*
X126045000Y-92910000D03*
G04 #@! TO.P,U1,30*
G04 #@! TO.N,Net-(J2-Pad7)*
X126045000Y-94180000D03*
G04 #@! TO.P,U1,29*
G04 #@! TO.N,Net-(J2-Pad6)*
X126045000Y-95450000D03*
G04 #@! TO.P,U1,28*
G04 #@! TO.N,Net-(J2-Pad5)*
X126045000Y-96720000D03*
G04 #@! TO.P,U1,27*
G04 #@! TO.N,Net-(J2-Pad4)*
X126045000Y-97990000D03*
G04 #@! TO.P,U1,26*
G04 #@! TO.N,Net-(J2-Pad3)*
X126045000Y-99260000D03*
G04 #@! TO.P,U1,25*
G04 #@! TO.N,Net-(SW2-Pad1)*
X126045000Y-100530000D03*
D14*
G04 #@! TO.P,U1,24*
G04 #@! TO.N,Net-(U1-Pad24)*
X123265000Y-101550000D03*
G04 #@! TO.P,U1,23*
G04 #@! TO.N,Net-(U1-Pad23)*
X121995000Y-101550000D03*
G04 #@! TO.P,U1,22*
G04 #@! TO.N,Net-(U1-Pad22)*
X120725000Y-101550000D03*
G04 #@! TO.P,U1,21*
G04 #@! TO.N,Net-(U1-Pad21)*
X119445000Y-101550000D03*
G04 #@! TO.P,U1,20*
G04 #@! TO.N,Net-(U1-Pad20)*
X118185000Y-101550000D03*
G04 #@! TO.P,U1,19*
G04 #@! TO.N,Net-(U1-Pad19)*
X116915000Y-101550000D03*
G04 #@! TO.P,U1,18*
G04 #@! TO.N,Net-(U1-Pad18)*
X115645000Y-101550000D03*
G04 #@! TO.P,U1,17*
G04 #@! TO.N,Net-(U1-Pad17)*
X114375000Y-101550000D03*
G04 #@! TO.P,U1,16*
G04 #@! TO.N,Net-(U1-Pad16)*
X113105000Y-101550000D03*
G04 #@! TO.P,U1,15*
G04 #@! TO.N,Net-(C1-Pad1)*
X111845000Y-101550000D03*
D13*
G04 #@! TO.P,U1,14*
G04 #@! TO.N,Net-(U1-Pad14)*
X108995000Y-100530000D03*
G04 #@! TO.P,U1,13*
G04 #@! TO.N,Net-(U1-Pad13)*
X108995000Y-99260000D03*
G04 #@! TO.P,U1,12*
G04 #@! TO.N,Net-(U1-Pad12)*
X108995000Y-97990000D03*
G04 #@! TO.P,U1,11*
G04 #@! TO.N,Net-(U1-Pad11)*
X108995000Y-96720000D03*
G04 #@! TO.P,U1,10*
G04 #@! TO.N,Net-(U1-Pad10)*
X108995000Y-95450000D03*
G04 #@! TO.P,U1,9*
G04 #@! TO.N,Net-(U1-Pad9)*
X108995000Y-94180000D03*
G04 #@! TO.P,U1,8*
G04 #@! TO.N,Net-(U1-Pad8)*
X108995000Y-92910000D03*
G04 #@! TO.P,U1,7*
G04 #@! TO.N,Net-(U1-Pad7)*
X108995000Y-91640000D03*
G04 #@! TO.P,U1,6*
G04 #@! TO.N,Net-(U1-Pad6)*
X108995000Y-90370000D03*
G04 #@! TO.P,U1,5*
G04 #@! TO.N,Net-(U1-Pad5)*
X108995000Y-89100000D03*
G04 #@! TO.P,U1,4*
G04 #@! TO.N,Net-(U1-Pad4)*
X108995000Y-87830000D03*
G04 #@! TO.P,U1,3*
G04 #@! TO.N,Net-(C2-Pad1)*
X108995000Y-86560000D03*
G04 #@! TO.P,U1,2*
G04 #@! TO.N,Net-(C1-Pad2)*
X108995000Y-85290000D03*
G04 #@! TO.P,U1,1*
G04 #@! TO.N,Net-(C1-Pad1)*
X108995000Y-84020000D03*
G04 #@! TD*
D15*
G04 #@! TO.N,Net-(C1-Pad1)*
G04 #@! TO.C,C1*
G36*
X102685779Y-92026144D02*
X102708834Y-92029563D01*
X102731443Y-92035227D01*
X102753387Y-92043079D01*
X102774457Y-92053044D01*
X102794448Y-92065026D01*
X102813168Y-92078910D01*
X102830438Y-92094562D01*
X102846090Y-92111832D01*
X102859974Y-92130552D01*
X102871956Y-92150543D01*
X102881921Y-92171613D01*
X102889773Y-92193557D01*
X102895437Y-92216166D01*
X102898856Y-92239221D01*
X102900000Y-92262500D01*
X102900000Y-92737500D01*
X102898856Y-92760779D01*
X102895437Y-92783834D01*
X102889773Y-92806443D01*
X102881921Y-92828387D01*
X102871956Y-92849457D01*
X102859974Y-92869448D01*
X102846090Y-92888168D01*
X102830438Y-92905438D01*
X102813168Y-92921090D01*
X102794448Y-92934974D01*
X102774457Y-92946956D01*
X102753387Y-92956921D01*
X102731443Y-92964773D01*
X102708834Y-92970437D01*
X102685779Y-92973856D01*
X102662500Y-92975000D01*
X102087500Y-92975000D01*
X102064221Y-92973856D01*
X102041166Y-92970437D01*
X102018557Y-92964773D01*
X101996613Y-92956921D01*
X101975543Y-92946956D01*
X101955552Y-92934974D01*
X101936832Y-92921090D01*
X101919562Y-92905438D01*
X101903910Y-92888168D01*
X101890026Y-92869448D01*
X101878044Y-92849457D01*
X101868079Y-92828387D01*
X101860227Y-92806443D01*
X101854563Y-92783834D01*
X101851144Y-92760779D01*
X101850000Y-92737500D01*
X101850000Y-92262500D01*
X101851144Y-92239221D01*
X101854563Y-92216166D01*
X101860227Y-92193557D01*
X101868079Y-92171613D01*
X101878044Y-92150543D01*
X101890026Y-92130552D01*
X101903910Y-92111832D01*
X101919562Y-92094562D01*
X101936832Y-92078910D01*
X101955552Y-92065026D01*
X101975543Y-92053044D01*
X101996613Y-92043079D01*
X102018557Y-92035227D01*
X102041166Y-92029563D01*
X102064221Y-92026144D01*
X102087500Y-92025000D01*
X102662500Y-92025000D01*
X102685779Y-92026144D01*
X102685779Y-92026144D01*
G37*
D16*
G04 #@! TD*
G04 #@! TO.P,C1,1*
G04 #@! TO.N,Net-(C1-Pad1)*
X102375000Y-92500000D03*
D15*
G04 #@! TO.N,Net-(C1-Pad2)*
G04 #@! TO.C,C1*
G36*
X104435779Y-92026144D02*
X104458834Y-92029563D01*
X104481443Y-92035227D01*
X104503387Y-92043079D01*
X104524457Y-92053044D01*
X104544448Y-92065026D01*
X104563168Y-92078910D01*
X104580438Y-92094562D01*
X104596090Y-92111832D01*
X104609974Y-92130552D01*
X104621956Y-92150543D01*
X104631921Y-92171613D01*
X104639773Y-92193557D01*
X104645437Y-92216166D01*
X104648856Y-92239221D01*
X104650000Y-92262500D01*
X104650000Y-92737500D01*
X104648856Y-92760779D01*
X104645437Y-92783834D01*
X104639773Y-92806443D01*
X104631921Y-92828387D01*
X104621956Y-92849457D01*
X104609974Y-92869448D01*
X104596090Y-92888168D01*
X104580438Y-92905438D01*
X104563168Y-92921090D01*
X104544448Y-92934974D01*
X104524457Y-92946956D01*
X104503387Y-92956921D01*
X104481443Y-92964773D01*
X104458834Y-92970437D01*
X104435779Y-92973856D01*
X104412500Y-92975000D01*
X103837500Y-92975000D01*
X103814221Y-92973856D01*
X103791166Y-92970437D01*
X103768557Y-92964773D01*
X103746613Y-92956921D01*
X103725543Y-92946956D01*
X103705552Y-92934974D01*
X103686832Y-92921090D01*
X103669562Y-92905438D01*
X103653910Y-92888168D01*
X103640026Y-92869448D01*
X103628044Y-92849457D01*
X103618079Y-92828387D01*
X103610227Y-92806443D01*
X103604563Y-92783834D01*
X103601144Y-92760779D01*
X103600000Y-92737500D01*
X103600000Y-92262500D01*
X103601144Y-92239221D01*
X103604563Y-92216166D01*
X103610227Y-92193557D01*
X103618079Y-92171613D01*
X103628044Y-92150543D01*
X103640026Y-92130552D01*
X103653910Y-92111832D01*
X103669562Y-92094562D01*
X103686832Y-92078910D01*
X103705552Y-92065026D01*
X103725543Y-92053044D01*
X103746613Y-92043079D01*
X103768557Y-92035227D01*
X103791166Y-92029563D01*
X103814221Y-92026144D01*
X103837500Y-92025000D01*
X104412500Y-92025000D01*
X104435779Y-92026144D01*
X104435779Y-92026144D01*
G37*
D16*
G04 #@! TD*
G04 #@! TO.P,C1,2*
G04 #@! TO.N,Net-(C1-Pad2)*
X104125000Y-92500000D03*
D15*
G04 #@! TO.N,Net-(C1-Pad1)*
G04 #@! TO.C,C2*
G36*
X102510779Y-99351144D02*
X102533834Y-99354563D01*
X102556443Y-99360227D01*
X102578387Y-99368079D01*
X102599457Y-99378044D01*
X102619448Y-99390026D01*
X102638168Y-99403910D01*
X102655438Y-99419562D01*
X102671090Y-99436832D01*
X102684974Y-99455552D01*
X102696956Y-99475543D01*
X102706921Y-99496613D01*
X102714773Y-99518557D01*
X102720437Y-99541166D01*
X102723856Y-99564221D01*
X102725000Y-99587500D01*
X102725000Y-100162500D01*
X102723856Y-100185779D01*
X102720437Y-100208834D01*
X102714773Y-100231443D01*
X102706921Y-100253387D01*
X102696956Y-100274457D01*
X102684974Y-100294448D01*
X102671090Y-100313168D01*
X102655438Y-100330438D01*
X102638168Y-100346090D01*
X102619448Y-100359974D01*
X102599457Y-100371956D01*
X102578387Y-100381921D01*
X102556443Y-100389773D01*
X102533834Y-100395437D01*
X102510779Y-100398856D01*
X102487500Y-100400000D01*
X102012500Y-100400000D01*
X101989221Y-100398856D01*
X101966166Y-100395437D01*
X101943557Y-100389773D01*
X101921613Y-100381921D01*
X101900543Y-100371956D01*
X101880552Y-100359974D01*
X101861832Y-100346090D01*
X101844562Y-100330438D01*
X101828910Y-100313168D01*
X101815026Y-100294448D01*
X101803044Y-100274457D01*
X101793079Y-100253387D01*
X101785227Y-100231443D01*
X101779563Y-100208834D01*
X101776144Y-100185779D01*
X101775000Y-100162500D01*
X101775000Y-99587500D01*
X101776144Y-99564221D01*
X101779563Y-99541166D01*
X101785227Y-99518557D01*
X101793079Y-99496613D01*
X101803044Y-99475543D01*
X101815026Y-99455552D01*
X101828910Y-99436832D01*
X101844562Y-99419562D01*
X101861832Y-99403910D01*
X101880552Y-99390026D01*
X101900543Y-99378044D01*
X101921613Y-99368079D01*
X101943557Y-99360227D01*
X101966166Y-99354563D01*
X101989221Y-99351144D01*
X102012500Y-99350000D01*
X102487500Y-99350000D01*
X102510779Y-99351144D01*
X102510779Y-99351144D01*
G37*
D16*
G04 #@! TD*
G04 #@! TO.P,C2,2*
G04 #@! TO.N,Net-(C1-Pad1)*
X102250000Y-99875000D03*
D15*
G04 #@! TO.N,Net-(C2-Pad1)*
G04 #@! TO.C,C2*
G36*
X102510779Y-101101144D02*
X102533834Y-101104563D01*
X102556443Y-101110227D01*
X102578387Y-101118079D01*
X102599457Y-101128044D01*
X102619448Y-101140026D01*
X102638168Y-101153910D01*
X102655438Y-101169562D01*
X102671090Y-101186832D01*
X102684974Y-101205552D01*
X102696956Y-101225543D01*
X102706921Y-101246613D01*
X102714773Y-101268557D01*
X102720437Y-101291166D01*
X102723856Y-101314221D01*
X102725000Y-101337500D01*
X102725000Y-101912500D01*
X102723856Y-101935779D01*
X102720437Y-101958834D01*
X102714773Y-101981443D01*
X102706921Y-102003387D01*
X102696956Y-102024457D01*
X102684974Y-102044448D01*
X102671090Y-102063168D01*
X102655438Y-102080438D01*
X102638168Y-102096090D01*
X102619448Y-102109974D01*
X102599457Y-102121956D01*
X102578387Y-102131921D01*
X102556443Y-102139773D01*
X102533834Y-102145437D01*
X102510779Y-102148856D01*
X102487500Y-102150000D01*
X102012500Y-102150000D01*
X101989221Y-102148856D01*
X101966166Y-102145437D01*
X101943557Y-102139773D01*
X101921613Y-102131921D01*
X101900543Y-102121956D01*
X101880552Y-102109974D01*
X101861832Y-102096090D01*
X101844562Y-102080438D01*
X101828910Y-102063168D01*
X101815026Y-102044448D01*
X101803044Y-102024457D01*
X101793079Y-102003387D01*
X101785227Y-101981443D01*
X101779563Y-101958834D01*
X101776144Y-101935779D01*
X101775000Y-101912500D01*
X101775000Y-101337500D01*
X101776144Y-101314221D01*
X101779563Y-101291166D01*
X101785227Y-101268557D01*
X101793079Y-101246613D01*
X101803044Y-101225543D01*
X101815026Y-101205552D01*
X101828910Y-101186832D01*
X101844562Y-101169562D01*
X101861832Y-101153910D01*
X101880552Y-101140026D01*
X101900543Y-101128044D01*
X101921613Y-101118079D01*
X101943557Y-101110227D01*
X101966166Y-101104563D01*
X101989221Y-101101144D01*
X102012500Y-101100000D01*
X102487500Y-101100000D01*
X102510779Y-101101144D01*
X102510779Y-101101144D01*
G37*
D16*
G04 #@! TD*
G04 #@! TO.P,C2,1*
G04 #@! TO.N,Net-(C2-Pad1)*
X102250000Y-101625000D03*
D15*
G04 #@! TO.N,Net-(C1-Pad2)*
G04 #@! TO.C,C3*
G36*
X104435779Y-96026144D02*
X104458834Y-96029563D01*
X104481443Y-96035227D01*
X104503387Y-96043079D01*
X104524457Y-96053044D01*
X104544448Y-96065026D01*
X104563168Y-96078910D01*
X104580438Y-96094562D01*
X104596090Y-96111832D01*
X104609974Y-96130552D01*
X104621956Y-96150543D01*
X104631921Y-96171613D01*
X104639773Y-96193557D01*
X104645437Y-96216166D01*
X104648856Y-96239221D01*
X104650000Y-96262500D01*
X104650000Y-96737500D01*
X104648856Y-96760779D01*
X104645437Y-96783834D01*
X104639773Y-96806443D01*
X104631921Y-96828387D01*
X104621956Y-96849457D01*
X104609974Y-96869448D01*
X104596090Y-96888168D01*
X104580438Y-96905438D01*
X104563168Y-96921090D01*
X104544448Y-96934974D01*
X104524457Y-96946956D01*
X104503387Y-96956921D01*
X104481443Y-96964773D01*
X104458834Y-96970437D01*
X104435779Y-96973856D01*
X104412500Y-96975000D01*
X103837500Y-96975000D01*
X103814221Y-96973856D01*
X103791166Y-96970437D01*
X103768557Y-96964773D01*
X103746613Y-96956921D01*
X103725543Y-96946956D01*
X103705552Y-96934974D01*
X103686832Y-96921090D01*
X103669562Y-96905438D01*
X103653910Y-96888168D01*
X103640026Y-96869448D01*
X103628044Y-96849457D01*
X103618079Y-96828387D01*
X103610227Y-96806443D01*
X103604563Y-96783834D01*
X103601144Y-96760779D01*
X103600000Y-96737500D01*
X103600000Y-96262500D01*
X103601144Y-96239221D01*
X103604563Y-96216166D01*
X103610227Y-96193557D01*
X103618079Y-96171613D01*
X103628044Y-96150543D01*
X103640026Y-96130552D01*
X103653910Y-96111832D01*
X103669562Y-96094562D01*
X103686832Y-96078910D01*
X103705552Y-96065026D01*
X103725543Y-96053044D01*
X103746613Y-96043079D01*
X103768557Y-96035227D01*
X103791166Y-96029563D01*
X103814221Y-96026144D01*
X103837500Y-96025000D01*
X104412500Y-96025000D01*
X104435779Y-96026144D01*
X104435779Y-96026144D01*
G37*
D16*
G04 #@! TD*
G04 #@! TO.P,C3,1*
G04 #@! TO.N,Net-(C1-Pad2)*
X104125000Y-96500000D03*
D15*
G04 #@! TO.N,Net-(C1-Pad1)*
G04 #@! TO.C,C3*
G36*
X102685779Y-96026144D02*
X102708834Y-96029563D01*
X102731443Y-96035227D01*
X102753387Y-96043079D01*
X102774457Y-96053044D01*
X102794448Y-96065026D01*
X102813168Y-96078910D01*
X102830438Y-96094562D01*
X102846090Y-96111832D01*
X102859974Y-96130552D01*
X102871956Y-96150543D01*
X102881921Y-96171613D01*
X102889773Y-96193557D01*
X102895437Y-96216166D01*
X102898856Y-96239221D01*
X102900000Y-96262500D01*
X102900000Y-96737500D01*
X102898856Y-96760779D01*
X102895437Y-96783834D01*
X102889773Y-96806443D01*
X102881921Y-96828387D01*
X102871956Y-96849457D01*
X102859974Y-96869448D01*
X102846090Y-96888168D01*
X102830438Y-96905438D01*
X102813168Y-96921090D01*
X102794448Y-96934974D01*
X102774457Y-96946956D01*
X102753387Y-96956921D01*
X102731443Y-96964773D01*
X102708834Y-96970437D01*
X102685779Y-96973856D01*
X102662500Y-96975000D01*
X102087500Y-96975000D01*
X102064221Y-96973856D01*
X102041166Y-96970437D01*
X102018557Y-96964773D01*
X101996613Y-96956921D01*
X101975543Y-96946956D01*
X101955552Y-96934974D01*
X101936832Y-96921090D01*
X101919562Y-96905438D01*
X101903910Y-96888168D01*
X101890026Y-96869448D01*
X101878044Y-96849457D01*
X101868079Y-96828387D01*
X101860227Y-96806443D01*
X101854563Y-96783834D01*
X101851144Y-96760779D01*
X101850000Y-96737500D01*
X101850000Y-96262500D01*
X101851144Y-96239221D01*
X101854563Y-96216166D01*
X101860227Y-96193557D01*
X101868079Y-96171613D01*
X101878044Y-96150543D01*
X101890026Y-96130552D01*
X101903910Y-96111832D01*
X101919562Y-96094562D01*
X101936832Y-96078910D01*
X101955552Y-96065026D01*
X101975543Y-96053044D01*
X101996613Y-96043079D01*
X102018557Y-96035227D01*
X102041166Y-96029563D01*
X102064221Y-96026144D01*
X102087500Y-96025000D01*
X102662500Y-96025000D01*
X102685779Y-96026144D01*
X102685779Y-96026144D01*
G37*
D16*
G04 #@! TD*
G04 #@! TO.P,C3,2*
G04 #@! TO.N,Net-(C1-Pad1)*
X102375000Y-96500000D03*
D15*
G04 #@! TO.N,Net-(C1-Pad1)*
G04 #@! TO.C,C4*
G36*
X127263386Y-107899691D02*
X127286441Y-107903110D01*
X127309050Y-107908774D01*
X127330994Y-107916626D01*
X127352064Y-107926591D01*
X127372055Y-107938573D01*
X127390775Y-107952457D01*
X127408045Y-107968109D01*
X127423697Y-107985379D01*
X127437581Y-108004099D01*
X127449563Y-108024090D01*
X127459528Y-108045160D01*
X127467380Y-108067104D01*
X127473044Y-108089713D01*
X127476463Y-108112768D01*
X127477607Y-108136047D01*
X127477607Y-108711047D01*
X127476463Y-108734326D01*
X127473044Y-108757381D01*
X127467380Y-108779990D01*
X127459528Y-108801934D01*
X127449563Y-108823004D01*
X127437581Y-108842995D01*
X127423697Y-108861715D01*
X127408045Y-108878985D01*
X127390775Y-108894637D01*
X127372055Y-108908521D01*
X127352064Y-108920503D01*
X127330994Y-108930468D01*
X127309050Y-108938320D01*
X127286441Y-108943984D01*
X127263386Y-108947403D01*
X127240107Y-108948547D01*
X126765107Y-108948547D01*
X126741828Y-108947403D01*
X126718773Y-108943984D01*
X126696164Y-108938320D01*
X126674220Y-108930468D01*
X126653150Y-108920503D01*
X126633159Y-108908521D01*
X126614439Y-108894637D01*
X126597169Y-108878985D01*
X126581517Y-108861715D01*
X126567633Y-108842995D01*
X126555651Y-108823004D01*
X126545686Y-108801934D01*
X126537834Y-108779990D01*
X126532170Y-108757381D01*
X126528751Y-108734326D01*
X126527607Y-108711047D01*
X126527607Y-108136047D01*
X126528751Y-108112768D01*
X126532170Y-108089713D01*
X126537834Y-108067104D01*
X126545686Y-108045160D01*
X126555651Y-108024090D01*
X126567633Y-108004099D01*
X126581517Y-107985379D01*
X126597169Y-107968109D01*
X126614439Y-107952457D01*
X126633159Y-107938573D01*
X126653150Y-107926591D01*
X126674220Y-107916626D01*
X126696164Y-107908774D01*
X126718773Y-107903110D01*
X126741828Y-107899691D01*
X126765107Y-107898547D01*
X127240107Y-107898547D01*
X127263386Y-107899691D01*
X127263386Y-107899691D01*
G37*
D16*
G04 #@! TD*
G04 #@! TO.P,C4,2*
G04 #@! TO.N,Net-(C1-Pad1)*
X127002607Y-108423547D03*
D15*
G04 #@! TO.N,Net-(C4-Pad1)*
G04 #@! TO.C,C4*
G36*
X127263386Y-109649691D02*
X127286441Y-109653110D01*
X127309050Y-109658774D01*
X127330994Y-109666626D01*
X127352064Y-109676591D01*
X127372055Y-109688573D01*
X127390775Y-109702457D01*
X127408045Y-109718109D01*
X127423697Y-109735379D01*
X127437581Y-109754099D01*
X127449563Y-109774090D01*
X127459528Y-109795160D01*
X127467380Y-109817104D01*
X127473044Y-109839713D01*
X127476463Y-109862768D01*
X127477607Y-109886047D01*
X127477607Y-110461047D01*
X127476463Y-110484326D01*
X127473044Y-110507381D01*
X127467380Y-110529990D01*
X127459528Y-110551934D01*
X127449563Y-110573004D01*
X127437581Y-110592995D01*
X127423697Y-110611715D01*
X127408045Y-110628985D01*
X127390775Y-110644637D01*
X127372055Y-110658521D01*
X127352064Y-110670503D01*
X127330994Y-110680468D01*
X127309050Y-110688320D01*
X127286441Y-110693984D01*
X127263386Y-110697403D01*
X127240107Y-110698547D01*
X126765107Y-110698547D01*
X126741828Y-110697403D01*
X126718773Y-110693984D01*
X126696164Y-110688320D01*
X126674220Y-110680468D01*
X126653150Y-110670503D01*
X126633159Y-110658521D01*
X126614439Y-110644637D01*
X126597169Y-110628985D01*
X126581517Y-110611715D01*
X126567633Y-110592995D01*
X126555651Y-110573004D01*
X126545686Y-110551934D01*
X126537834Y-110529990D01*
X126532170Y-110507381D01*
X126528751Y-110484326D01*
X126527607Y-110461047D01*
X126527607Y-109886047D01*
X126528751Y-109862768D01*
X126532170Y-109839713D01*
X126537834Y-109817104D01*
X126545686Y-109795160D01*
X126555651Y-109774090D01*
X126567633Y-109754099D01*
X126581517Y-109735379D01*
X126597169Y-109718109D01*
X126614439Y-109702457D01*
X126633159Y-109688573D01*
X126653150Y-109676591D01*
X126674220Y-109666626D01*
X126696164Y-109658774D01*
X126718773Y-109653110D01*
X126741828Y-109649691D01*
X126765107Y-109648547D01*
X127240107Y-109648547D01*
X127263386Y-109649691D01*
X127263386Y-109649691D01*
G37*
D16*
G04 #@! TD*
G04 #@! TO.P,C4,1*
G04 #@! TO.N,Net-(C4-Pad1)*
X127002607Y-110173547D03*
D15*
G04 #@! TO.N,Net-(C1-Pad2)*
G04 #@! TO.C,C5*
G36*
X115013386Y-109649691D02*
X115036441Y-109653110D01*
X115059050Y-109658774D01*
X115080994Y-109666626D01*
X115102064Y-109676591D01*
X115122055Y-109688573D01*
X115140775Y-109702457D01*
X115158045Y-109718109D01*
X115173697Y-109735379D01*
X115187581Y-109754099D01*
X115199563Y-109774090D01*
X115209528Y-109795160D01*
X115217380Y-109817104D01*
X115223044Y-109839713D01*
X115226463Y-109862768D01*
X115227607Y-109886047D01*
X115227607Y-110461047D01*
X115226463Y-110484326D01*
X115223044Y-110507381D01*
X115217380Y-110529990D01*
X115209528Y-110551934D01*
X115199563Y-110573004D01*
X115187581Y-110592995D01*
X115173697Y-110611715D01*
X115158045Y-110628985D01*
X115140775Y-110644637D01*
X115122055Y-110658521D01*
X115102064Y-110670503D01*
X115080994Y-110680468D01*
X115059050Y-110688320D01*
X115036441Y-110693984D01*
X115013386Y-110697403D01*
X114990107Y-110698547D01*
X114515107Y-110698547D01*
X114491828Y-110697403D01*
X114468773Y-110693984D01*
X114446164Y-110688320D01*
X114424220Y-110680468D01*
X114403150Y-110670503D01*
X114383159Y-110658521D01*
X114364439Y-110644637D01*
X114347169Y-110628985D01*
X114331517Y-110611715D01*
X114317633Y-110592995D01*
X114305651Y-110573004D01*
X114295686Y-110551934D01*
X114287834Y-110529990D01*
X114282170Y-110507381D01*
X114278751Y-110484326D01*
X114277607Y-110461047D01*
X114277607Y-109886047D01*
X114278751Y-109862768D01*
X114282170Y-109839713D01*
X114287834Y-109817104D01*
X114295686Y-109795160D01*
X114305651Y-109774090D01*
X114317633Y-109754099D01*
X114331517Y-109735379D01*
X114347169Y-109718109D01*
X114364439Y-109702457D01*
X114383159Y-109688573D01*
X114403150Y-109676591D01*
X114424220Y-109666626D01*
X114446164Y-109658774D01*
X114468773Y-109653110D01*
X114491828Y-109649691D01*
X114515107Y-109648547D01*
X114990107Y-109648547D01*
X115013386Y-109649691D01*
X115013386Y-109649691D01*
G37*
D16*
G04 #@! TD*
G04 #@! TO.P,C5,1*
G04 #@! TO.N,Net-(C1-Pad2)*
X114752607Y-110173547D03*
D15*
G04 #@! TO.N,Net-(C1-Pad1)*
G04 #@! TO.C,C5*
G36*
X115013386Y-107899691D02*
X115036441Y-107903110D01*
X115059050Y-107908774D01*
X115080994Y-107916626D01*
X115102064Y-107926591D01*
X115122055Y-107938573D01*
X115140775Y-107952457D01*
X115158045Y-107968109D01*
X115173697Y-107985379D01*
X115187581Y-108004099D01*
X115199563Y-108024090D01*
X115209528Y-108045160D01*
X115217380Y-108067104D01*
X115223044Y-108089713D01*
X115226463Y-108112768D01*
X115227607Y-108136047D01*
X115227607Y-108711047D01*
X115226463Y-108734326D01*
X115223044Y-108757381D01*
X115217380Y-108779990D01*
X115209528Y-108801934D01*
X115199563Y-108823004D01*
X115187581Y-108842995D01*
X115173697Y-108861715D01*
X115158045Y-108878985D01*
X115140775Y-108894637D01*
X115122055Y-108908521D01*
X115102064Y-108920503D01*
X115080994Y-108930468D01*
X115059050Y-108938320D01*
X115036441Y-108943984D01*
X115013386Y-108947403D01*
X114990107Y-108948547D01*
X114515107Y-108948547D01*
X114491828Y-108947403D01*
X114468773Y-108943984D01*
X114446164Y-108938320D01*
X114424220Y-108930468D01*
X114403150Y-108920503D01*
X114383159Y-108908521D01*
X114364439Y-108894637D01*
X114347169Y-108878985D01*
X114331517Y-108861715D01*
X114317633Y-108842995D01*
X114305651Y-108823004D01*
X114295686Y-108801934D01*
X114287834Y-108779990D01*
X114282170Y-108757381D01*
X114278751Y-108734326D01*
X114277607Y-108711047D01*
X114277607Y-108136047D01*
X114278751Y-108112768D01*
X114282170Y-108089713D01*
X114287834Y-108067104D01*
X114295686Y-108045160D01*
X114305651Y-108024090D01*
X114317633Y-108004099D01*
X114331517Y-107985379D01*
X114347169Y-107968109D01*
X114364439Y-107952457D01*
X114383159Y-107938573D01*
X114403150Y-107926591D01*
X114424220Y-107916626D01*
X114446164Y-107908774D01*
X114468773Y-107903110D01*
X114491828Y-107899691D01*
X114515107Y-107898547D01*
X114990107Y-107898547D01*
X115013386Y-107899691D01*
X115013386Y-107899691D01*
G37*
D16*
G04 #@! TD*
G04 #@! TO.P,C5,2*
G04 #@! TO.N,Net-(C1-Pad1)*
X114752607Y-108423547D03*
D17*
G04 #@! TO.P,J1,1*
G04 #@! TO.N,Net-(C4-Pad1)*
X121700000Y-126540000D03*
G04 #@! TO.P,J1,2*
G04 #@! TO.N,Net-(J1-Pad2)*
X122350000Y-126540000D03*
G04 #@! TO.P,J1,3*
G04 #@! TO.N,Net-(J1-Pad3)*
X123000000Y-126540000D03*
G04 #@! TO.P,J1,4*
G04 #@! TO.N,Net-(J1-Pad4)*
X123650000Y-126540000D03*
G04 #@! TO.P,J1,5*
G04 #@! TO.N,Net-(C1-Pad1)*
X124300000Y-126540000D03*
D18*
G04 #@! TO.P,J1,6*
X120537500Y-126900000D03*
X125462500Y-126900000D03*
D19*
X120090000Y-129200000D03*
X125910000Y-129200000D03*
D20*
X122160000Y-129200000D03*
X123840000Y-129200000D03*
G04 #@! TD*
D21*
G04 #@! TO.P,J3,1*
G04 #@! TO.N,Net-(C1-Pad1)*
X144750000Y-93750000D03*
D22*
G04 #@! TO.P,J3,2*
G04 #@! TO.N,Net-(C4-Pad1)*
X142210000Y-93750000D03*
G04 #@! TO.P,J3,3*
G04 #@! TO.N,Net-(J3-Pad3)*
X139670000Y-93750000D03*
G04 #@! TO.P,J3,4*
G04 #@! TO.N,Net-(J3-Pad4)*
X137130000Y-93750000D03*
G04 #@! TD*
D15*
G04 #@! TO.N,Net-(C2-Pad1)*
G04 #@! TO.C,R1*
G36*
X105499504Y-103676204D02*
X105523773Y-103679804D01*
X105547571Y-103685765D01*
X105570671Y-103694030D01*
X105592849Y-103704520D01*
X105613893Y-103717133D01*
X105633598Y-103731747D01*
X105651777Y-103748223D01*
X105668253Y-103766402D01*
X105682867Y-103786107D01*
X105695480Y-103807151D01*
X105705970Y-103829329D01*
X105714235Y-103852429D01*
X105720196Y-103876227D01*
X105723796Y-103900496D01*
X105725000Y-103925000D01*
X105725000Y-106075000D01*
X105723796Y-106099504D01*
X105720196Y-106123773D01*
X105714235Y-106147571D01*
X105705970Y-106170671D01*
X105695480Y-106192849D01*
X105682867Y-106213893D01*
X105668253Y-106233598D01*
X105651777Y-106251777D01*
X105633598Y-106268253D01*
X105613893Y-106282867D01*
X105592849Y-106295480D01*
X105570671Y-106305970D01*
X105547571Y-106314235D01*
X105523773Y-106320196D01*
X105499504Y-106323796D01*
X105475000Y-106325000D01*
X104550000Y-106325000D01*
X104525496Y-106323796D01*
X104501227Y-106320196D01*
X104477429Y-106314235D01*
X104454329Y-106305970D01*
X104432151Y-106295480D01*
X104411107Y-106282867D01*
X104391402Y-106268253D01*
X104373223Y-106251777D01*
X104356747Y-106233598D01*
X104342133Y-106213893D01*
X104329520Y-106192849D01*
X104319030Y-106170671D01*
X104310765Y-106147571D01*
X104304804Y-106123773D01*
X104301204Y-106099504D01*
X104300000Y-106075000D01*
X104300000Y-103925000D01*
X104301204Y-103900496D01*
X104304804Y-103876227D01*
X104310765Y-103852429D01*
X104319030Y-103829329D01*
X104329520Y-103807151D01*
X104342133Y-103786107D01*
X104356747Y-103766402D01*
X104373223Y-103748223D01*
X104391402Y-103731747D01*
X104411107Y-103717133D01*
X104432151Y-103704520D01*
X104454329Y-103694030D01*
X104477429Y-103685765D01*
X104501227Y-103679804D01*
X104525496Y-103676204D01*
X104550000Y-103675000D01*
X105475000Y-103675000D01*
X105499504Y-103676204D01*
X105499504Y-103676204D01*
G37*
D23*
G04 #@! TD*
G04 #@! TO.P,R1,1*
G04 #@! TO.N,Net-(C2-Pad1)*
X105012500Y-105000000D03*
D15*
G04 #@! TO.N,Net-(C1-Pad2)*
G04 #@! TO.C,R1*
G36*
X108474504Y-103676204D02*
X108498773Y-103679804D01*
X108522571Y-103685765D01*
X108545671Y-103694030D01*
X108567849Y-103704520D01*
X108588893Y-103717133D01*
X108608598Y-103731747D01*
X108626777Y-103748223D01*
X108643253Y-103766402D01*
X108657867Y-103786107D01*
X108670480Y-103807151D01*
X108680970Y-103829329D01*
X108689235Y-103852429D01*
X108695196Y-103876227D01*
X108698796Y-103900496D01*
X108700000Y-103925000D01*
X108700000Y-106075000D01*
X108698796Y-106099504D01*
X108695196Y-106123773D01*
X108689235Y-106147571D01*
X108680970Y-106170671D01*
X108670480Y-106192849D01*
X108657867Y-106213893D01*
X108643253Y-106233598D01*
X108626777Y-106251777D01*
X108608598Y-106268253D01*
X108588893Y-106282867D01*
X108567849Y-106295480D01*
X108545671Y-106305970D01*
X108522571Y-106314235D01*
X108498773Y-106320196D01*
X108474504Y-106323796D01*
X108450000Y-106325000D01*
X107525000Y-106325000D01*
X107500496Y-106323796D01*
X107476227Y-106320196D01*
X107452429Y-106314235D01*
X107429329Y-106305970D01*
X107407151Y-106295480D01*
X107386107Y-106282867D01*
X107366402Y-106268253D01*
X107348223Y-106251777D01*
X107331747Y-106233598D01*
X107317133Y-106213893D01*
X107304520Y-106192849D01*
X107294030Y-106170671D01*
X107285765Y-106147571D01*
X107279804Y-106123773D01*
X107276204Y-106099504D01*
X107275000Y-106075000D01*
X107275000Y-103925000D01*
X107276204Y-103900496D01*
X107279804Y-103876227D01*
X107285765Y-103852429D01*
X107294030Y-103829329D01*
X107304520Y-103807151D01*
X107317133Y-103786107D01*
X107331747Y-103766402D01*
X107348223Y-103748223D01*
X107366402Y-103731747D01*
X107386107Y-103717133D01*
X107407151Y-103704520D01*
X107429329Y-103694030D01*
X107452429Y-103685765D01*
X107476227Y-103679804D01*
X107500496Y-103676204D01*
X107525000Y-103675000D01*
X108450000Y-103675000D01*
X108474504Y-103676204D01*
X108474504Y-103676204D01*
G37*
D23*
G04 #@! TD*
G04 #@! TO.P,R1,2*
G04 #@! TO.N,Net-(C1-Pad2)*
X107987500Y-105000000D03*
D24*
G04 #@! TO.P,SW1,2*
G04 #@! TO.N,Net-(C2-Pad1)*
X103000000Y-109270000D03*
G04 #@! TO.P,SW1,1*
G04 #@! TO.N,Net-(C1-Pad1)*
X107500000Y-109270000D03*
X107500000Y-117230000D03*
G04 #@! TO.P,SW1,2*
G04 #@! TO.N,Net-(C2-Pad1)*
X103000000Y-117230000D03*
G04 #@! TD*
G04 #@! TO.P,SW2,2*
G04 #@! TO.N,Net-(C1-Pad1)*
X132250000Y-128480000D03*
G04 #@! TO.P,SW2,1*
G04 #@! TO.N,Net-(SW2-Pad1)*
X136750000Y-128480000D03*
X136750000Y-120520000D03*
G04 #@! TO.P,SW2,2*
G04 #@! TO.N,Net-(C1-Pad1)*
X132250000Y-120520000D03*
G04 #@! TD*
D15*
G04 #@! TO.N,Net-(C4-Pad1)*
G04 #@! TO.C,U2*
G36*
X123817111Y-107902251D02*
X123841380Y-107905851D01*
X123865178Y-107911812D01*
X123888278Y-107920077D01*
X123910456Y-107930567D01*
X123931500Y-107943180D01*
X123951205Y-107957794D01*
X123969384Y-107974270D01*
X123985860Y-107992449D01*
X124000474Y-108012154D01*
X124013087Y-108033198D01*
X124023577Y-108055376D01*
X124031842Y-108078476D01*
X124037803Y-108102274D01*
X124041403Y-108126543D01*
X124042607Y-108151047D01*
X124042607Y-110151047D01*
X124041403Y-110175551D01*
X124037803Y-110199820D01*
X124031842Y-110223618D01*
X124023577Y-110246718D01*
X124013087Y-110268896D01*
X124000474Y-110289940D01*
X123985860Y-110309645D01*
X123969384Y-110327824D01*
X123951205Y-110344300D01*
X123931500Y-110358914D01*
X123910456Y-110371527D01*
X123888278Y-110382017D01*
X123865178Y-110390282D01*
X123841380Y-110396243D01*
X123817111Y-110399843D01*
X123792607Y-110401047D01*
X123292607Y-110401047D01*
X123268103Y-110399843D01*
X123243834Y-110396243D01*
X123220036Y-110390282D01*
X123196936Y-110382017D01*
X123174758Y-110371527D01*
X123153714Y-110358914D01*
X123134009Y-110344300D01*
X123115830Y-110327824D01*
X123099354Y-110309645D01*
X123084740Y-110289940D01*
X123072127Y-110268896D01*
X123061637Y-110246718D01*
X123053372Y-110223618D01*
X123047411Y-110199820D01*
X123043811Y-110175551D01*
X123042607Y-110151047D01*
X123042607Y-108151047D01*
X123043811Y-108126543D01*
X123047411Y-108102274D01*
X123053372Y-108078476D01*
X123061637Y-108055376D01*
X123072127Y-108033198D01*
X123084740Y-108012154D01*
X123099354Y-107992449D01*
X123115830Y-107974270D01*
X123134009Y-107957794D01*
X123153714Y-107943180D01*
X123174758Y-107930567D01*
X123196936Y-107920077D01*
X123220036Y-107911812D01*
X123243834Y-107905851D01*
X123268103Y-107902251D01*
X123292607Y-107901047D01*
X123792607Y-107901047D01*
X123817111Y-107902251D01*
X123817111Y-107902251D01*
G37*
D25*
G04 #@! TD*
G04 #@! TO.P,U2,1*
G04 #@! TO.N,Net-(C4-Pad1)*
X123542607Y-109151047D03*
D15*
G04 #@! TO.N,Net-(C1-Pad1)*
G04 #@! TO.C,U2*
G36*
X122430029Y-110808807D02*
X122556224Y-110827526D01*
X122679977Y-110858525D01*
X122800095Y-110901504D01*
X122915423Y-110956049D01*
X123024848Y-111021637D01*
X123127318Y-111097633D01*
X123221846Y-111183308D01*
X123307521Y-111277836D01*
X123383517Y-111380306D01*
X123449105Y-111489731D01*
X123503650Y-111605059D01*
X123546629Y-111725177D01*
X123577628Y-111848930D01*
X123596347Y-111975125D01*
X123602607Y-112102547D01*
X123602607Y-117502547D01*
X123596347Y-117629969D01*
X123577628Y-117756164D01*
X123546629Y-117879917D01*
X123503650Y-118000035D01*
X123449105Y-118115363D01*
X123383517Y-118224788D01*
X123307521Y-118327258D01*
X123221846Y-118421786D01*
X123127318Y-118507461D01*
X123024848Y-118583457D01*
X122915423Y-118649045D01*
X122800095Y-118703590D01*
X122679977Y-118746569D01*
X122556224Y-118777568D01*
X122430029Y-118796287D01*
X122302607Y-118802547D01*
X119702607Y-118802547D01*
X119575185Y-118796287D01*
X119448990Y-118777568D01*
X119325237Y-118746569D01*
X119205119Y-118703590D01*
X119089791Y-118649045D01*
X118980366Y-118583457D01*
X118877896Y-118507461D01*
X118783368Y-118421786D01*
X118697693Y-118327258D01*
X118621697Y-118224788D01*
X118556109Y-118115363D01*
X118501564Y-118000035D01*
X118458585Y-117879917D01*
X118427586Y-117756164D01*
X118408867Y-117629969D01*
X118402607Y-117502547D01*
X118402607Y-112102547D01*
X118408867Y-111975125D01*
X118427586Y-111848930D01*
X118458585Y-111725177D01*
X118501564Y-111605059D01*
X118556109Y-111489731D01*
X118621697Y-111380306D01*
X118697693Y-111277836D01*
X118783368Y-111183308D01*
X118877896Y-111097633D01*
X118980366Y-111021637D01*
X119089791Y-110956049D01*
X119205119Y-110901504D01*
X119325237Y-110858525D01*
X119448990Y-110827526D01*
X119575185Y-110808807D01*
X119702607Y-110802547D01*
X122302607Y-110802547D01*
X122430029Y-110808807D01*
X122430029Y-110808807D01*
G37*
D26*
G04 #@! TD*
G04 #@! TO.P,U2,2*
G04 #@! TO.N,Net-(C1-Pad1)*
X121002607Y-114802547D03*
D15*
G04 #@! TO.N,Net-(C1-Pad2)*
G04 #@! TO.C,U2*
G36*
X118737111Y-107902251D02*
X118761380Y-107905851D01*
X118785178Y-107911812D01*
X118808278Y-107920077D01*
X118830456Y-107930567D01*
X118851500Y-107943180D01*
X118871205Y-107957794D01*
X118889384Y-107974270D01*
X118905860Y-107992449D01*
X118920474Y-108012154D01*
X118933087Y-108033198D01*
X118943577Y-108055376D01*
X118951842Y-108078476D01*
X118957803Y-108102274D01*
X118961403Y-108126543D01*
X118962607Y-108151047D01*
X118962607Y-110151047D01*
X118961403Y-110175551D01*
X118957803Y-110199820D01*
X118951842Y-110223618D01*
X118943577Y-110246718D01*
X118933087Y-110268896D01*
X118920474Y-110289940D01*
X118905860Y-110309645D01*
X118889384Y-110327824D01*
X118871205Y-110344300D01*
X118851500Y-110358914D01*
X118830456Y-110371527D01*
X118808278Y-110382017D01*
X118785178Y-110390282D01*
X118761380Y-110396243D01*
X118737111Y-110399843D01*
X118712607Y-110401047D01*
X118212607Y-110401047D01*
X118188103Y-110399843D01*
X118163834Y-110396243D01*
X118140036Y-110390282D01*
X118116936Y-110382017D01*
X118094758Y-110371527D01*
X118073714Y-110358914D01*
X118054009Y-110344300D01*
X118035830Y-110327824D01*
X118019354Y-110309645D01*
X118004740Y-110289940D01*
X117992127Y-110268896D01*
X117981637Y-110246718D01*
X117973372Y-110223618D01*
X117967411Y-110199820D01*
X117963811Y-110175551D01*
X117962607Y-110151047D01*
X117962607Y-108151047D01*
X117963811Y-108126543D01*
X117967411Y-108102274D01*
X117973372Y-108078476D01*
X117981637Y-108055376D01*
X117992127Y-108033198D01*
X118004740Y-108012154D01*
X118019354Y-107992449D01*
X118035830Y-107974270D01*
X118054009Y-107957794D01*
X118073714Y-107943180D01*
X118094758Y-107930567D01*
X118116936Y-107920077D01*
X118140036Y-107911812D01*
X118163834Y-107905851D01*
X118188103Y-107902251D01*
X118212607Y-107901047D01*
X118712607Y-107901047D01*
X118737111Y-107902251D01*
X118737111Y-107902251D01*
G37*
D25*
G04 #@! TD*
G04 #@! TO.P,U2,3*
G04 #@! TO.N,Net-(C1-Pad2)*
X118462607Y-109151047D03*
D27*
G04 #@! TO.N,Net-(C1-Pad1)*
X114500000Y-85500000D03*
X116500000Y-85500000D03*
X118500000Y-85500000D03*
X112500000Y-85500000D03*
X112500000Y-87500000D03*
X114500000Y-87500000D03*
X116500000Y-87500000D03*
X118500000Y-87500000D03*
X120500000Y-87500000D03*
X112500000Y-91500000D03*
X112500000Y-93500000D03*
X112500000Y-95500000D03*
X114500000Y-95500000D03*
X116500000Y-95500000D03*
X112500000Y-89500000D03*
X120500000Y-85500000D03*
X118500000Y-95500000D03*
X120500000Y-95500000D03*
X120500000Y-89500000D03*
X120500000Y-91500000D03*
X120500000Y-93500000D03*
X112500000Y-97500000D03*
X114500000Y-97500000D03*
X116500000Y-97500000D03*
X118500000Y-97500000D03*
X120500000Y-97500000D03*
X122500000Y-91500000D03*
X122500000Y-93500000D03*
X122500000Y-95500000D03*
X122500000Y-97500000D03*
X122500000Y-85500000D03*
G04 #@! TO.N,Net-(C1-Pad2)*
X104749600Y-97917000D03*
X105537000Y-100076000D03*
G04 #@! TO.N,Net-(C4-Pad1)*
X129857500Y-122555000D03*
G04 #@! TO.N,Net-(SW3-Pad1)*
X122500000Y-87500000D03*
G04 #@! TO.N,Net-(SW3-Pad2)*
X122500000Y-89500000D03*
G04 #@! TO.N,Net-(SW3-Pad4)*
X128803400Y-84150200D03*
G04 #@! TD*
D28*
G04 #@! TO.N,Net-(C1-Pad1)*
X131350000Y-128480000D02*
X132250000Y-128480000D01*
X128394999Y-125524999D02*
X131350000Y-128480000D01*
X124375001Y-125524999D02*
X128394999Y-125524999D01*
X124300000Y-125600000D02*
X124375001Y-125524999D01*
X124300000Y-126540000D02*
X124300000Y-125600000D01*
X132250000Y-128480000D02*
X132250000Y-120520000D01*
X132250000Y-120375000D02*
X132250000Y-120520000D01*
X126503535Y-107924475D02*
X127002607Y-108423547D01*
X126155097Y-107576037D02*
X126503535Y-107924475D01*
X123054427Y-107576037D02*
X125502607Y-107576037D01*
X121002607Y-109627857D02*
X123054427Y-107576037D01*
X125502607Y-107576037D02*
X126155097Y-107576037D01*
X102375000Y-95925000D02*
X102375000Y-92500000D01*
X102375000Y-96500000D02*
X102375000Y-95925000D01*
X102375000Y-99750000D02*
X102250000Y-99875000D01*
X102375000Y-96500000D02*
X102375000Y-99750000D01*
X119272607Y-116532547D02*
X121002607Y-114802547D01*
X107500000Y-109270000D02*
X107500000Y-117230000D01*
X144750000Y-92603800D02*
X144750000Y-93750000D01*
X135369000Y-83222800D02*
X144750000Y-92603800D01*
X127295000Y-84020000D02*
X128092200Y-83222800D01*
X126045000Y-84020000D02*
X127295000Y-84020000D01*
X128092200Y-83222800D02*
X131200000Y-83222800D01*
X131200000Y-83222800D02*
X135369000Y-83222800D01*
X121002607Y-109627857D02*
X121002607Y-109719047D01*
X121002607Y-114802547D02*
X121002607Y-109719047D01*
X119061797Y-107687047D02*
X121002607Y-109627857D01*
X118950787Y-107576037D02*
X119061797Y-107687047D01*
X115600117Y-107576037D02*
X118950787Y-107576037D01*
X114752607Y-108423547D02*
X115600117Y-107576037D01*
G04 #@! TO.N,Net-(C1-Pad2)*
X104125000Y-93075000D02*
X104125000Y-96500000D01*
X104125000Y-92500000D02*
X104125000Y-93075000D01*
X104125000Y-97292400D02*
X104749600Y-97917000D01*
X104125000Y-96500000D02*
X104125000Y-97292400D01*
X108037200Y-105049700D02*
X107987500Y-105000000D01*
X108995000Y-85290000D02*
X108229998Y-85290000D01*
X108169634Y-85290000D02*
X108995000Y-85290000D01*
X104125000Y-89334634D02*
X108169634Y-85290000D01*
X104125000Y-92500000D02*
X104125000Y-89334634D01*
X105537000Y-102549500D02*
X105537000Y-100076000D01*
X107987500Y-105000000D02*
X105537000Y-102549500D01*
X108237500Y-105250000D02*
X107987500Y-105000000D01*
X117440107Y-110173547D02*
X118462607Y-109151047D01*
X114752607Y-110173547D02*
X117440107Y-110173547D01*
X113161047Y-110173547D02*
X114752607Y-110173547D01*
X107987500Y-105000000D02*
X113161047Y-110173547D01*
G04 #@! TO.N,Net-(C2-Pad1)*
X104750000Y-104737500D02*
X105012500Y-105000000D01*
X105012500Y-104387500D02*
X105012500Y-105000000D01*
X102250000Y-101625000D02*
X105012500Y-104387500D01*
X103000000Y-107012500D02*
X103000000Y-109270000D01*
X105012500Y-105000000D02*
X103000000Y-107012500D01*
X103000000Y-109270000D02*
X103000000Y-117230000D01*
X102749072Y-101125928D02*
X102250000Y-101625000D01*
X107155410Y-96719590D02*
X102749072Y-101125928D01*
X107155410Y-87149590D02*
X107155410Y-96719590D01*
X108995000Y-86560000D02*
X107745000Y-86560000D01*
X107745000Y-86560000D02*
X107155410Y-87149590D01*
G04 #@! TO.N,Net-(C4-Pad1)*
X121700000Y-125600000D02*
X122395500Y-124904500D01*
X121700000Y-126540000D02*
X121700000Y-125600000D01*
X127508000Y-124904500D02*
X129857500Y-122555000D01*
X122395500Y-124904500D02*
X127508000Y-124904500D01*
X129857500Y-113028440D02*
X127002607Y-110173547D01*
X129857500Y-122555000D02*
X129857500Y-113028440D01*
X125980107Y-109151047D02*
X127002607Y-110173547D01*
X123542607Y-109151047D02*
X125980107Y-109151047D01*
G04 #@! TO.N,Net-(C1-Pad1)*
X120537500Y-128752500D02*
X120090000Y-129200000D01*
X120537500Y-126900000D02*
X120537500Y-128752500D01*
X120090000Y-129200000D02*
X125910000Y-129200000D01*
X125462500Y-128752500D02*
X125910000Y-129200000D01*
X125462500Y-126900000D02*
X125462500Y-128752500D01*
X125102500Y-126540000D02*
X125462500Y-126900000D01*
X124300000Y-126540000D02*
X125102500Y-126540000D01*
G04 #@! TO.N,Net-(J2-Pad3)*
X142675000Y-114600000D02*
X142800000Y-114600000D01*
X141575000Y-113500000D02*
X142675000Y-114600000D01*
X141575000Y-113375000D02*
X141575000Y-113500000D01*
X127460000Y-99260000D02*
X141575000Y-113375000D01*
X126045000Y-99260000D02*
X127460000Y-99260000D01*
G04 #@! TO.N,Net-(J2-Pad4)*
X142675000Y-112100000D02*
X142800000Y-112100000D01*
X141575000Y-111000000D02*
X142675000Y-112100000D01*
X141575000Y-110875000D02*
X141575000Y-111000000D01*
X128690000Y-97990000D02*
X141575000Y-110875000D01*
X126045000Y-97990000D02*
X128690000Y-97990000D01*
G04 #@! TO.N,Net-(J2-Pad5)*
X142675000Y-109600000D02*
X142800000Y-109600000D01*
X141575000Y-108500000D02*
X142675000Y-109600000D01*
X141575000Y-108375000D02*
X141575000Y-108500000D01*
X129920000Y-96720000D02*
X141575000Y-108375000D01*
X126045000Y-96720000D02*
X129920000Y-96720000D01*
G04 #@! TO.N,Net-(J2-Pad6)*
X142675000Y-107100000D02*
X142800000Y-107100000D01*
X141575000Y-106000000D02*
X142675000Y-107100000D01*
X141575000Y-105875000D02*
X141575000Y-106000000D01*
X131150000Y-95450000D02*
X141575000Y-105875000D01*
X126045000Y-95450000D02*
X131150000Y-95450000D01*
G04 #@! TO.N,Net-(J3-Pad3)*
X130740998Y-89100000D02*
X126045000Y-89100000D01*
X136565999Y-94925001D02*
X130740998Y-89100000D01*
X139670000Y-93750000D02*
X138494999Y-94925001D01*
X138494999Y-94925001D02*
X136565999Y-94925001D01*
G04 #@! TO.N,Net-(J3-Pad4)*
X131210000Y-87830000D02*
X126045000Y-87830000D01*
X137130000Y-93750000D02*
X131210000Y-87830000D01*
G04 #@! TO.N,Net-(SW2-Pad1)*
X136750000Y-120520000D02*
X136750000Y-128480000D01*
X136750000Y-119495000D02*
X136750000Y-120520000D01*
X126045000Y-100530000D02*
X128038200Y-100530000D01*
X136750000Y-109241800D02*
X136750000Y-120520000D01*
X128038200Y-100530000D02*
X136750000Y-109241800D01*
G04 #@! TO.N,Net-(SW3-Pad1)*
X122500000Y-87500000D02*
X123440000Y-86560000D01*
X123440000Y-86560000D02*
X126045000Y-86560000D01*
G04 #@! TO.N,Net-(SW3-Pad2)*
X123370000Y-90370000D02*
X126045000Y-90370000D01*
X122500000Y-89500000D02*
X123370000Y-90370000D01*
G04 #@! TO.N,Net-(SW3-Pad4)*
X126045000Y-85290000D02*
X127663600Y-85290000D01*
X127663600Y-85290000D02*
X128803400Y-84150200D01*
G04 #@! TO.N,Net-(J2-Pad7)*
X142675000Y-104600000D02*
X142800000Y-104600000D01*
X141575000Y-103500000D02*
X142675000Y-104600000D01*
X141575000Y-103375000D02*
X141575000Y-103500000D01*
X132380000Y-94180000D02*
X141575000Y-103375000D01*
X126045000Y-94180000D02*
X132380000Y-94180000D01*
G04 #@! TO.N,Net-(J2-Pad8)*
X142675000Y-102100000D02*
X142800000Y-102100000D01*
X141575000Y-101000000D02*
X142675000Y-102100000D01*
X141575000Y-100875000D02*
X141575000Y-101000000D01*
X133610000Y-92910000D02*
X141575000Y-100875000D01*
X126045000Y-92910000D02*
X133610000Y-92910000D01*
G04 #@! TD*
D29*
G04 #@! TO.N,Net-(C1-Pad1)*
G36*
X140373000Y-87500000D02*
X140388752Y-87561261D01*
X140420664Y-87599170D01*
X142920664Y-89599170D01*
X142951399Y-89617333D01*
X143000000Y-89627000D01*
X145373000Y-89627000D01*
X145373000Y-92265000D01*
X145035750Y-92265000D01*
X144877000Y-92423750D01*
X144877000Y-93623000D01*
X144897000Y-93623000D01*
X144897000Y-93877000D01*
X144877000Y-93877000D01*
X144877000Y-95076250D01*
X145035750Y-95235000D01*
X145373000Y-95235000D01*
X145373000Y-100078248D01*
X145343204Y-100086408D01*
X143765200Y-100875410D01*
X143504418Y-100701161D01*
X143071256Y-100615000D01*
X142528744Y-100615000D01*
X142308592Y-100658791D01*
X142306458Y-100656656D01*
X142290904Y-100578463D01*
X142122929Y-100327071D01*
X142059473Y-100284671D01*
X137459802Y-95685001D01*
X138420152Y-95685001D01*
X138494999Y-95699889D01*
X138569846Y-95685001D01*
X138569851Y-95685001D01*
X138791536Y-95640905D01*
X139042928Y-95472930D01*
X139085330Y-95409471D01*
X139303592Y-95191209D01*
X139523744Y-95235000D01*
X139816256Y-95235000D01*
X140249418Y-95148839D01*
X140740625Y-94820625D01*
X140940000Y-94522239D01*
X141139375Y-94820625D01*
X141630582Y-95148839D01*
X142063744Y-95235000D01*
X142356256Y-95235000D01*
X142789418Y-95148839D01*
X143280625Y-94820625D01*
X143295096Y-94798967D01*
X143361673Y-94959698D01*
X143540301Y-95138327D01*
X143773690Y-95235000D01*
X144464250Y-95235000D01*
X144623000Y-95076250D01*
X144623000Y-93877000D01*
X144603000Y-93877000D01*
X144603000Y-93623000D01*
X144623000Y-93623000D01*
X144623000Y-92423750D01*
X144464250Y-92265000D01*
X143773690Y-92265000D01*
X143540301Y-92361673D01*
X143361673Y-92540302D01*
X143295096Y-92701033D01*
X143280625Y-92679375D01*
X142789418Y-92351161D01*
X142356256Y-92265000D01*
X142063744Y-92265000D01*
X141630582Y-92351161D01*
X141139375Y-92679375D01*
X140940000Y-92977761D01*
X140740625Y-92679375D01*
X140249418Y-92351161D01*
X139816256Y-92265000D01*
X139523744Y-92265000D01*
X139090582Y-92351161D01*
X138599375Y-92679375D01*
X138400000Y-92977761D01*
X138200625Y-92679375D01*
X137709418Y-92351161D01*
X137276256Y-92265000D01*
X136983744Y-92265000D01*
X136763593Y-92308791D01*
X134465323Y-90010521D01*
X134754595Y-89721249D01*
X134935000Y-89285711D01*
X134935000Y-88814289D01*
X134754595Y-88378751D01*
X134421249Y-88045405D01*
X133985711Y-87865000D01*
X133514289Y-87865000D01*
X133078751Y-88045405D01*
X132789479Y-88334677D01*
X131800331Y-87345530D01*
X131757929Y-87282071D01*
X131506537Y-87114096D01*
X131284852Y-87070000D01*
X131284847Y-87070000D01*
X131210000Y-87055112D01*
X131135153Y-87070000D01*
X127680505Y-87070000D01*
X127692440Y-87010000D01*
X127692440Y-86110000D01*
X127682711Y-86061087D01*
X127738447Y-86050000D01*
X127738452Y-86050000D01*
X127960137Y-86005904D01*
X128211529Y-85837929D01*
X128253931Y-85774470D01*
X128843202Y-85185200D01*
X129009274Y-85185200D01*
X129389680Y-85027631D01*
X129603022Y-84814289D01*
X132565000Y-84814289D01*
X132565000Y-85285711D01*
X132745405Y-85721249D01*
X133078751Y-86054595D01*
X133514289Y-86235000D01*
X133985711Y-86235000D01*
X134421249Y-86054595D01*
X134754595Y-85721249D01*
X134935000Y-85285711D01*
X134935000Y-84814289D01*
X134754595Y-84378751D01*
X134421249Y-84045405D01*
X133985711Y-83865000D01*
X133514289Y-83865000D01*
X133078751Y-84045405D01*
X132745405Y-84378751D01*
X132565000Y-84814289D01*
X129603022Y-84814289D01*
X129680831Y-84736480D01*
X129838400Y-84356074D01*
X129838400Y-83944326D01*
X129680831Y-83563920D01*
X129389680Y-83272769D01*
X129009274Y-83115200D01*
X128597526Y-83115200D01*
X128217120Y-83272769D01*
X127925969Y-83563920D01*
X127768400Y-83944326D01*
X127768400Y-84110398D01*
X127626524Y-84252274D01*
X127521250Y-84147000D01*
X126172000Y-84147000D01*
X126172000Y-84167000D01*
X125918000Y-84167000D01*
X125918000Y-84147000D01*
X124568750Y-84147000D01*
X124410000Y-84305750D01*
X124410000Y-84596310D01*
X124434343Y-84655079D01*
X124397560Y-84840000D01*
X124397560Y-85740000D01*
X124409495Y-85800000D01*
X123514848Y-85800000D01*
X123440000Y-85785112D01*
X123365152Y-85800000D01*
X123365148Y-85800000D01*
X123191605Y-85834520D01*
X123143462Y-85844096D01*
X122956418Y-85969076D01*
X122892071Y-86012071D01*
X122849671Y-86075527D01*
X122460198Y-86465000D01*
X122294126Y-86465000D01*
X121913720Y-86622569D01*
X121622569Y-86913720D01*
X121465000Y-87294126D01*
X121465000Y-87705874D01*
X121622569Y-88086280D01*
X121913720Y-88377431D01*
X122209628Y-88500000D01*
X121913720Y-88622569D01*
X121622569Y-88913720D01*
X121465000Y-89294126D01*
X121465000Y-89705874D01*
X121622569Y-90086280D01*
X121913720Y-90377431D01*
X122294126Y-90535000D01*
X122460198Y-90535000D01*
X122779671Y-90854473D01*
X122822071Y-90917929D01*
X122885527Y-90960329D01*
X123073462Y-91085904D01*
X123121605Y-91095480D01*
X123295148Y-91130000D01*
X123295152Y-91130000D01*
X123370000Y-91144888D01*
X123444848Y-91130000D01*
X124409495Y-91130000D01*
X124397560Y-91190000D01*
X124397560Y-92090000D01*
X124434358Y-92275000D01*
X124397560Y-92460000D01*
X124397560Y-93360000D01*
X124434358Y-93545000D01*
X124397560Y-93730000D01*
X124397560Y-94630000D01*
X124434358Y-94815000D01*
X124397560Y-95000000D01*
X124397560Y-95900000D01*
X124434358Y-96085000D01*
X124397560Y-96270000D01*
X124397560Y-97170000D01*
X124434358Y-97355000D01*
X124397560Y-97540000D01*
X124397560Y-98440000D01*
X124434358Y-98625000D01*
X124397560Y-98810000D01*
X124397560Y-99710000D01*
X124434358Y-99895000D01*
X124397560Y-100080000D01*
X124397560Y-100980000D01*
X124446843Y-101227765D01*
X124587191Y-101437809D01*
X124797235Y-101578157D01*
X125045000Y-101627440D01*
X127045000Y-101627440D01*
X127292765Y-101578157D01*
X127502809Y-101437809D01*
X127601573Y-101290000D01*
X127723399Y-101290000D01*
X135990000Y-109556602D01*
X135990001Y-119119440D01*
X135852235Y-119146843D01*
X135642191Y-119287191D01*
X135501843Y-119497235D01*
X135452560Y-119745000D01*
X135452560Y-121295000D01*
X135501843Y-121542765D01*
X135642191Y-121752809D01*
X135852235Y-121893157D01*
X135990000Y-121920560D01*
X135990001Y-127079440D01*
X135852235Y-127106843D01*
X135642191Y-127247191D01*
X135501843Y-127457235D01*
X135452560Y-127705000D01*
X135452560Y-129255000D01*
X135501843Y-129502765D01*
X135642191Y-129712809D01*
X135852235Y-129853157D01*
X136100000Y-129902440D01*
X137400000Y-129902440D01*
X137647765Y-129853157D01*
X137857809Y-129712809D01*
X137998157Y-129502765D01*
X138047440Y-129255000D01*
X138047440Y-127705000D01*
X137998157Y-127457235D01*
X137857809Y-127247191D01*
X137647765Y-127106843D01*
X137510000Y-127079440D01*
X137510000Y-121920560D01*
X137647765Y-121893157D01*
X137857809Y-121752809D01*
X137998157Y-121542765D01*
X138047440Y-121295000D01*
X138047440Y-119745000D01*
X137998157Y-119497235D01*
X137857809Y-119287191D01*
X137647765Y-119146843D01*
X137510000Y-119119440D01*
X137510000Y-110384802D01*
X140843543Y-113718346D01*
X140859096Y-113796537D01*
X141027071Y-114047929D01*
X141090529Y-114090330D01*
X141233791Y-114233592D01*
X141160908Y-114600000D01*
X141276161Y-115179418D01*
X141604375Y-115670625D01*
X141877687Y-115853246D01*
X141472503Y-116228807D01*
X141233524Y-116743110D01*
X141354845Y-116973000D01*
X142673000Y-116973000D01*
X142673000Y-116953000D01*
X142927000Y-116953000D01*
X142927000Y-116973000D01*
X142947000Y-116973000D01*
X142947000Y-117227000D01*
X142927000Y-117227000D01*
X142927000Y-117247000D01*
X142673000Y-117247000D01*
X142673000Y-117227000D01*
X141354845Y-117227000D01*
X141233524Y-117456890D01*
X141472503Y-117971193D01*
X141651471Y-118137077D01*
X141577235Y-118151843D01*
X141367191Y-118292191D01*
X141226843Y-118502235D01*
X141177560Y-118750000D01*
X141177560Y-120450000D01*
X141226843Y-120697765D01*
X141367191Y-120907809D01*
X141577235Y-121048157D01*
X141825000Y-121097440D01*
X143673000Y-121097440D01*
X143673000Y-124373000D01*
X142500000Y-124373000D01*
X142438739Y-124388752D01*
X142400830Y-124420664D01*
X140400830Y-126920664D01*
X140382667Y-126951399D01*
X140373000Y-127000000D01*
X140373000Y-131315000D01*
X105627000Y-131315000D01*
X105627000Y-129485750D01*
X118267500Y-129485750D01*
X118267500Y-130276310D01*
X118364173Y-130509699D01*
X118542802Y-130688327D01*
X118776191Y-130785000D01*
X119804250Y-130785000D01*
X119963000Y-130626250D01*
X119963000Y-129327000D01*
X120217000Y-129327000D01*
X120217000Y-130626250D01*
X120375750Y-130785000D01*
X121403809Y-130785000D01*
X121425000Y-130776222D01*
X121446191Y-130785000D01*
X121874250Y-130785000D01*
X122033000Y-130626250D01*
X122033000Y-129327000D01*
X122287000Y-129327000D01*
X122287000Y-130626250D01*
X122445750Y-130785000D01*
X122873809Y-130785000D01*
X123000000Y-130732730D01*
X123126191Y-130785000D01*
X123554250Y-130785000D01*
X123713000Y-130626250D01*
X123713000Y-129327000D01*
X123967000Y-129327000D01*
X123967000Y-130626250D01*
X124125750Y-130785000D01*
X124553809Y-130785000D01*
X124575000Y-130776222D01*
X124596191Y-130785000D01*
X125624250Y-130785000D01*
X125783000Y-130626250D01*
X125783000Y-129327000D01*
X126037000Y-129327000D01*
X126037000Y-130626250D01*
X126195750Y-130785000D01*
X127223809Y-130785000D01*
X127457198Y-130688327D01*
X127635827Y-130509699D01*
X127732500Y-130276310D01*
X127732500Y-129485750D01*
X127573750Y-129327000D01*
X126037000Y-129327000D01*
X125783000Y-129327000D01*
X123967000Y-129327000D01*
X123713000Y-129327000D01*
X122287000Y-129327000D01*
X122033000Y-129327000D01*
X120217000Y-129327000D01*
X119963000Y-129327000D01*
X118426250Y-129327000D01*
X118267500Y-129485750D01*
X105627000Y-129485750D01*
X105627000Y-128123690D01*
X118267500Y-128123690D01*
X118267500Y-128914250D01*
X118426250Y-129073000D01*
X119963000Y-129073000D01*
X119963000Y-129053000D01*
X120217000Y-129053000D01*
X120217000Y-129073000D01*
X122033000Y-129073000D01*
X122033000Y-129053000D01*
X122287000Y-129053000D01*
X122287000Y-129073000D01*
X123713000Y-129073000D01*
X123713000Y-129053000D01*
X123967000Y-129053000D01*
X123967000Y-129073000D01*
X125783000Y-129073000D01*
X125783000Y-129053000D01*
X126037000Y-129053000D01*
X126037000Y-129073000D01*
X127573750Y-129073000D01*
X127732500Y-128914250D01*
X127732500Y-128765750D01*
X130965000Y-128765750D01*
X130965000Y-129381309D01*
X131061673Y-129614698D01*
X131240301Y-129793327D01*
X131473690Y-129890000D01*
X131964250Y-129890000D01*
X132123000Y-129731250D01*
X132123000Y-128607000D01*
X132377000Y-128607000D01*
X132377000Y-129731250D01*
X132535750Y-129890000D01*
X133026310Y-129890000D01*
X133259699Y-129793327D01*
X133438327Y-129614698D01*
X133535000Y-129381309D01*
X133535000Y-128765750D01*
X133376250Y-128607000D01*
X132377000Y-128607000D01*
X132123000Y-128607000D01*
X131123750Y-128607000D01*
X130965000Y-128765750D01*
X127732500Y-128765750D01*
X127732500Y-128123690D01*
X127635827Y-127890301D01*
X127457198Y-127711673D01*
X127223809Y-127615000D01*
X126835000Y-127615000D01*
X126835000Y-127578691D01*
X130965000Y-127578691D01*
X130965000Y-128194250D01*
X131123750Y-128353000D01*
X132123000Y-128353000D01*
X132123000Y-127228750D01*
X132377000Y-127228750D01*
X132377000Y-128353000D01*
X133376250Y-128353000D01*
X133535000Y-128194250D01*
X133535000Y-127578691D01*
X133438327Y-127345302D01*
X133259699Y-127166673D01*
X133026310Y-127070000D01*
X132535750Y-127070000D01*
X132377000Y-127228750D01*
X132123000Y-127228750D01*
X131964250Y-127070000D01*
X131473690Y-127070000D01*
X131240301Y-127166673D01*
X131061673Y-127345302D01*
X130965000Y-127578691D01*
X126835000Y-127578691D01*
X126835000Y-127185750D01*
X126676250Y-127027000D01*
X125589500Y-127027000D01*
X125589500Y-127047000D01*
X125335500Y-127047000D01*
X125335500Y-127027000D01*
X125315500Y-127027000D01*
X125315500Y-126773000D01*
X125335500Y-126773000D01*
X125335500Y-126753000D01*
X125589500Y-126753000D01*
X125589500Y-126773000D01*
X126676250Y-126773000D01*
X126835000Y-126614250D01*
X126835000Y-125723690D01*
X126810483Y-125664500D01*
X127433153Y-125664500D01*
X127508000Y-125679388D01*
X127582847Y-125664500D01*
X127582852Y-125664500D01*
X127804537Y-125620404D01*
X128055929Y-125452429D01*
X128098331Y-125388970D01*
X129897302Y-123590000D01*
X130063374Y-123590000D01*
X130443780Y-123432431D01*
X130734931Y-123141280D01*
X130892500Y-122760874D01*
X130892500Y-122349126D01*
X130734931Y-121968720D01*
X130617500Y-121851289D01*
X130617500Y-120805750D01*
X130965000Y-120805750D01*
X130965000Y-121421309D01*
X131061673Y-121654698D01*
X131240301Y-121833327D01*
X131473690Y-121930000D01*
X131964250Y-121930000D01*
X132123000Y-121771250D01*
X132123000Y-120647000D01*
X132377000Y-120647000D01*
X132377000Y-121771250D01*
X132535750Y-121930000D01*
X133026310Y-121930000D01*
X133259699Y-121833327D01*
X133438327Y-121654698D01*
X133535000Y-121421309D01*
X133535000Y-120805750D01*
X133376250Y-120647000D01*
X132377000Y-120647000D01*
X132123000Y-120647000D01*
X131123750Y-120647000D01*
X130965000Y-120805750D01*
X130617500Y-120805750D01*
X130617500Y-119618691D01*
X130965000Y-119618691D01*
X130965000Y-120234250D01*
X131123750Y-120393000D01*
X132123000Y-120393000D01*
X132123000Y-119268750D01*
X132377000Y-119268750D01*
X132377000Y-120393000D01*
X133376250Y-120393000D01*
X133535000Y-120234250D01*
X133535000Y-119618691D01*
X133438327Y-119385302D01*
X133259699Y-119206673D01*
X133026310Y-119110000D01*
X132535750Y-119110000D01*
X132377000Y-119268750D01*
X132123000Y-119268750D01*
X131964250Y-119110000D01*
X131473690Y-119110000D01*
X131240301Y-119206673D01*
X131061673Y-119385302D01*
X130965000Y-119618691D01*
X130617500Y-119618691D01*
X130617500Y-113103286D01*
X130632388Y-113028439D01*
X130617500Y-112953592D01*
X130617500Y-112953588D01*
X130573404Y-112731903D01*
X130517294Y-112647929D01*
X130447829Y-112543966D01*
X130447827Y-112543964D01*
X130405429Y-112480511D01*
X130341976Y-112438113D01*
X128125047Y-110221186D01*
X128125047Y-109886047D01*
X128057685Y-109547395D01*
X127945172Y-109379007D01*
X128015934Y-109308245D01*
X128112607Y-109074856D01*
X128112607Y-108709297D01*
X127953857Y-108550547D01*
X127129607Y-108550547D01*
X127129607Y-108570547D01*
X126875607Y-108570547D01*
X126875607Y-108550547D01*
X126855607Y-108550547D01*
X126855607Y-108296547D01*
X126875607Y-108296547D01*
X126875607Y-107422297D01*
X127129607Y-107422297D01*
X127129607Y-108296547D01*
X127953857Y-108296547D01*
X128112607Y-108137797D01*
X128112607Y-107772238D01*
X128015934Y-107538849D01*
X127837306Y-107360220D01*
X127603917Y-107263547D01*
X127288357Y-107263547D01*
X127129607Y-107422297D01*
X126875607Y-107422297D01*
X126716857Y-107263547D01*
X126401297Y-107263547D01*
X126167908Y-107360220D01*
X125989280Y-107538849D01*
X125892607Y-107772238D01*
X125892607Y-108137797D01*
X126051355Y-108296545D01*
X125892607Y-108296545D01*
X125892607Y-108391047D01*
X124690047Y-108391047D01*
X124690047Y-108151047D01*
X124621733Y-107807612D01*
X124427193Y-107516461D01*
X124136042Y-107321921D01*
X123792607Y-107253607D01*
X123292607Y-107253607D01*
X122949172Y-107321921D01*
X122658021Y-107516461D01*
X122463481Y-107807612D01*
X122395167Y-108151047D01*
X122395167Y-110151047D01*
X122398449Y-110167547D01*
X121288357Y-110167547D01*
X121129607Y-110326297D01*
X121129607Y-114675547D01*
X124078857Y-114675547D01*
X124237607Y-114516797D01*
X124237607Y-110912310D01*
X124427193Y-110785633D01*
X124621733Y-110494482D01*
X124690047Y-110151047D01*
X124690047Y-109911047D01*
X125665306Y-109911047D01*
X125880167Y-110125909D01*
X125880167Y-110461047D01*
X125947529Y-110799699D01*
X126139360Y-111086794D01*
X126426455Y-111278625D01*
X126765107Y-111345987D01*
X127100246Y-111345987D01*
X129097501Y-113343244D01*
X129097500Y-121851289D01*
X128980069Y-121968720D01*
X128822500Y-122349126D01*
X128822500Y-122515198D01*
X127193199Y-124144500D01*
X122470348Y-124144500D01*
X122395500Y-124129612D01*
X122320652Y-124144500D01*
X122320648Y-124144500D01*
X122098963Y-124188596D01*
X121847571Y-124356571D01*
X121805171Y-124420027D01*
X121215528Y-125009671D01*
X121152072Y-125052071D01*
X121109672Y-125115527D01*
X121109671Y-125115528D01*
X121043206Y-125215000D01*
X120823250Y-125215000D01*
X120664500Y-125373750D01*
X120664500Y-126773000D01*
X120684500Y-126773000D01*
X120684500Y-127027000D01*
X120664500Y-127027000D01*
X120664500Y-127047000D01*
X120410500Y-127047000D01*
X120410500Y-127027000D01*
X119323750Y-127027000D01*
X119165000Y-127185750D01*
X119165000Y-127615000D01*
X118776191Y-127615000D01*
X118542802Y-127711673D01*
X118364173Y-127890301D01*
X118267500Y-128123690D01*
X105627000Y-128123690D01*
X105627000Y-127000000D01*
X105621982Y-126964654D01*
X105599170Y-126920664D01*
X104641591Y-125723690D01*
X119165000Y-125723690D01*
X119165000Y-126614250D01*
X119323750Y-126773000D01*
X120410500Y-126773000D01*
X120410500Y-125373750D01*
X120251750Y-125215000D01*
X119673691Y-125215000D01*
X119440302Y-125311673D01*
X119261673Y-125490301D01*
X119165000Y-125723690D01*
X104641591Y-125723690D01*
X103599170Y-124420664D01*
X103548601Y-124382667D01*
X103500000Y-124373000D01*
X98735000Y-124373000D01*
X98735000Y-99223691D01*
X101140000Y-99223691D01*
X101140000Y-99589250D01*
X101298750Y-99748000D01*
X102123000Y-99748000D01*
X102123000Y-98873750D01*
X101964250Y-98715000D01*
X101648690Y-98715000D01*
X101415301Y-98811673D01*
X101236673Y-98990302D01*
X101140000Y-99223691D01*
X98735000Y-99223691D01*
X98735000Y-96785750D01*
X101215000Y-96785750D01*
X101215000Y-97101310D01*
X101311673Y-97334699D01*
X101490302Y-97513327D01*
X101723691Y-97610000D01*
X102089250Y-97610000D01*
X102248000Y-97451250D01*
X102248000Y-96627000D01*
X101373750Y-96627000D01*
X101215000Y-96785750D01*
X98735000Y-96785750D01*
X98735000Y-95898690D01*
X101215000Y-95898690D01*
X101215000Y-96214250D01*
X101373750Y-96373000D01*
X102248000Y-96373000D01*
X102248000Y-95548750D01*
X102089250Y-95390000D01*
X101723691Y-95390000D01*
X101490302Y-95486673D01*
X101311673Y-95665301D01*
X101215000Y-95898690D01*
X98735000Y-95898690D01*
X98735000Y-92785750D01*
X101215000Y-92785750D01*
X101215000Y-93101310D01*
X101311673Y-93334699D01*
X101490302Y-93513327D01*
X101723691Y-93610000D01*
X102089250Y-93610000D01*
X102248000Y-93451250D01*
X102248000Y-92627000D01*
X101373750Y-92627000D01*
X101215000Y-92785750D01*
X98735000Y-92785750D01*
X98735000Y-91898690D01*
X101215000Y-91898690D01*
X101215000Y-92214250D01*
X101373750Y-92373000D01*
X102248000Y-92373000D01*
X102248000Y-91548750D01*
X102089250Y-91390000D01*
X101723691Y-91390000D01*
X101490302Y-91486673D01*
X101311673Y-91665301D01*
X101215000Y-91898690D01*
X98735000Y-91898690D01*
X98735000Y-89627000D01*
X102947394Y-89627000D01*
X103365001Y-90044607D01*
X103365000Y-91534356D01*
X103330460Y-91557435D01*
X103259698Y-91486673D01*
X103026309Y-91390000D01*
X102660750Y-91390000D01*
X102502000Y-91548750D01*
X102502000Y-92373000D01*
X102522000Y-92373000D01*
X102522000Y-92627000D01*
X102502000Y-92627000D01*
X102502000Y-93451250D01*
X102660750Y-93610000D01*
X103026309Y-93610000D01*
X103259698Y-93513327D01*
X103330460Y-93442565D01*
X103365000Y-93465644D01*
X103365001Y-95534356D01*
X103330460Y-95557435D01*
X103259698Y-95486673D01*
X103026309Y-95390000D01*
X102660750Y-95390000D01*
X102502000Y-95548750D01*
X102502000Y-96373000D01*
X102522000Y-96373000D01*
X102522000Y-96627000D01*
X102502000Y-96627000D01*
X102502000Y-97451250D01*
X102660750Y-97610000D01*
X103026309Y-97610000D01*
X103259698Y-97513327D01*
X103330460Y-97442565D01*
X103387572Y-97480726D01*
X103409097Y-97588937D01*
X103577072Y-97840329D01*
X103640528Y-97882729D01*
X103714600Y-97956801D01*
X103714600Y-98122874D01*
X103872169Y-98503280D01*
X104084544Y-98715655D01*
X103360000Y-99440199D01*
X103360000Y-99223691D01*
X103263327Y-98990302D01*
X103084699Y-98811673D01*
X102851310Y-98715000D01*
X102535750Y-98715000D01*
X102377000Y-98873750D01*
X102377000Y-99748000D01*
X102397000Y-99748000D01*
X102397000Y-100002000D01*
X102377000Y-100002000D01*
X102377000Y-100022000D01*
X102123000Y-100022000D01*
X102123000Y-100002000D01*
X101298750Y-100002000D01*
X101140000Y-100160750D01*
X101140000Y-100526309D01*
X101236673Y-100759698D01*
X101307435Y-100830460D01*
X101194922Y-100998848D01*
X101127560Y-101337500D01*
X101127560Y-101912500D01*
X101194922Y-102251152D01*
X101386753Y-102538247D01*
X101673848Y-102730078D01*
X102012500Y-102797440D01*
X102347639Y-102797440D01*
X103652560Y-104102362D01*
X103652560Y-105285138D01*
X102515530Y-106422169D01*
X102452071Y-106464571D01*
X102284096Y-106715964D01*
X102240000Y-106937649D01*
X102240000Y-106937653D01*
X102225112Y-107012500D01*
X102240000Y-107087347D01*
X102240000Y-107869440D01*
X102102235Y-107896843D01*
X101892191Y-108037191D01*
X101751843Y-108247235D01*
X101702560Y-108495000D01*
X101702560Y-110045000D01*
X101751843Y-110292765D01*
X101892191Y-110502809D01*
X102102235Y-110643157D01*
X102240000Y-110670560D01*
X102240001Y-115829440D01*
X102102235Y-115856843D01*
X101892191Y-115997191D01*
X101751843Y-116207235D01*
X101702560Y-116455000D01*
X101702560Y-118005000D01*
X101751843Y-118252765D01*
X101892191Y-118462809D01*
X102102235Y-118603157D01*
X102350000Y-118652440D01*
X103650000Y-118652440D01*
X103897765Y-118603157D01*
X104107809Y-118462809D01*
X104248157Y-118252765D01*
X104297440Y-118005000D01*
X104297440Y-117515750D01*
X106215000Y-117515750D01*
X106215000Y-118131309D01*
X106311673Y-118364698D01*
X106490301Y-118543327D01*
X106723690Y-118640000D01*
X107214250Y-118640000D01*
X107373000Y-118481250D01*
X107373000Y-117357000D01*
X107627000Y-117357000D01*
X107627000Y-118481250D01*
X107785750Y-118640000D01*
X108276310Y-118640000D01*
X108509699Y-118543327D01*
X108688327Y-118364698D01*
X108785000Y-118131309D01*
X108785000Y-117515750D01*
X108626250Y-117357000D01*
X107627000Y-117357000D01*
X107373000Y-117357000D01*
X106373750Y-117357000D01*
X106215000Y-117515750D01*
X104297440Y-117515750D01*
X104297440Y-116455000D01*
X104272316Y-116328691D01*
X106215000Y-116328691D01*
X106215000Y-116944250D01*
X106373750Y-117103000D01*
X107373000Y-117103000D01*
X107373000Y-115978750D01*
X107627000Y-115978750D01*
X107627000Y-117103000D01*
X108626250Y-117103000D01*
X108785000Y-116944250D01*
X108785000Y-116328691D01*
X108688327Y-116095302D01*
X108509699Y-115916673D01*
X108276310Y-115820000D01*
X107785750Y-115820000D01*
X107627000Y-115978750D01*
X107373000Y-115978750D01*
X107214250Y-115820000D01*
X106723690Y-115820000D01*
X106490301Y-115916673D01*
X106311673Y-116095302D01*
X106215000Y-116328691D01*
X104272316Y-116328691D01*
X104248157Y-116207235D01*
X104107809Y-115997191D01*
X103897765Y-115856843D01*
X103760000Y-115829440D01*
X103760000Y-115088297D01*
X117767607Y-115088297D01*
X117767607Y-118928857D01*
X117864280Y-119162246D01*
X118042909Y-119340874D01*
X118276298Y-119437547D01*
X120716857Y-119437547D01*
X120875607Y-119278797D01*
X120875607Y-114929547D01*
X121129607Y-114929547D01*
X121129607Y-119278797D01*
X121288357Y-119437547D01*
X123728916Y-119437547D01*
X123962305Y-119340874D01*
X124140934Y-119162246D01*
X124237607Y-118928857D01*
X124237607Y-115088297D01*
X124078857Y-114929547D01*
X121129607Y-114929547D01*
X120875607Y-114929547D01*
X117926357Y-114929547D01*
X117767607Y-115088297D01*
X103760000Y-115088297D01*
X103760000Y-110670560D01*
X103897765Y-110643157D01*
X104107809Y-110502809D01*
X104248157Y-110292765D01*
X104297440Y-110045000D01*
X104297440Y-109555750D01*
X106215000Y-109555750D01*
X106215000Y-110171309D01*
X106311673Y-110404698D01*
X106490301Y-110583327D01*
X106723690Y-110680000D01*
X107214250Y-110680000D01*
X107373000Y-110521250D01*
X107373000Y-109397000D01*
X107627000Y-109397000D01*
X107627000Y-110521250D01*
X107785750Y-110680000D01*
X108276310Y-110680000D01*
X108509699Y-110583327D01*
X108688327Y-110404698D01*
X108785000Y-110171309D01*
X108785000Y-109555750D01*
X108626250Y-109397000D01*
X107627000Y-109397000D01*
X107373000Y-109397000D01*
X106373750Y-109397000D01*
X106215000Y-109555750D01*
X104297440Y-109555750D01*
X104297440Y-108495000D01*
X104272316Y-108368691D01*
X106215000Y-108368691D01*
X106215000Y-108984250D01*
X106373750Y-109143000D01*
X107373000Y-109143000D01*
X107373000Y-108018750D01*
X107627000Y-108018750D01*
X107627000Y-109143000D01*
X108626250Y-109143000D01*
X108785000Y-108984250D01*
X108785000Y-108368691D01*
X108688327Y-108135302D01*
X108509699Y-107956673D01*
X108276310Y-107860000D01*
X107785750Y-107860000D01*
X107627000Y-108018750D01*
X107373000Y-108018750D01*
X107214250Y-107860000D01*
X106723690Y-107860000D01*
X106490301Y-107956673D01*
X106311673Y-108135302D01*
X106215000Y-108368691D01*
X104272316Y-108368691D01*
X104248157Y-108247235D01*
X104107809Y-108037191D01*
X103897765Y-107896843D01*
X103760000Y-107869440D01*
X103760000Y-107327301D01*
X104192544Y-106894757D01*
X104206565Y-106904126D01*
X104550000Y-106972440D01*
X105475000Y-106972440D01*
X105818435Y-106904126D01*
X106109586Y-106709586D01*
X106304126Y-106418435D01*
X106372440Y-106075000D01*
X106372440Y-104459742D01*
X106627560Y-104714862D01*
X106627560Y-106075000D01*
X106695874Y-106418435D01*
X106890414Y-106709586D01*
X107181565Y-106904126D01*
X107525000Y-106972440D01*
X108450000Y-106972440D01*
X108793435Y-106904126D01*
X108807456Y-106894758D01*
X112570720Y-110658023D01*
X112613118Y-110721476D01*
X112676571Y-110763874D01*
X112676573Y-110763876D01*
X112730860Y-110800149D01*
X112864510Y-110889451D01*
X113086195Y-110933547D01*
X113086199Y-110933547D01*
X113161046Y-110948435D01*
X113235893Y-110933547D01*
X113786963Y-110933547D01*
X113889360Y-111086794D01*
X114176455Y-111278625D01*
X114515107Y-111345987D01*
X114990107Y-111345987D01*
X115328759Y-111278625D01*
X115615854Y-111086794D01*
X115718251Y-110933547D01*
X117365260Y-110933547D01*
X117440107Y-110948435D01*
X117514954Y-110933547D01*
X117514959Y-110933547D01*
X117734141Y-110889949D01*
X117767607Y-110912310D01*
X117767607Y-114516797D01*
X117926357Y-114675547D01*
X120875607Y-114675547D01*
X120875607Y-110326297D01*
X120716857Y-110167547D01*
X119606765Y-110167547D01*
X119610047Y-110151047D01*
X119610047Y-108151047D01*
X119541733Y-107807612D01*
X119347193Y-107516461D01*
X119056042Y-107321921D01*
X118712607Y-107253607D01*
X118212607Y-107253607D01*
X117869172Y-107321921D01*
X117578021Y-107516461D01*
X117383481Y-107807612D01*
X117315167Y-108151047D01*
X117315167Y-109223685D01*
X117125306Y-109413547D01*
X115718251Y-109413547D01*
X115695172Y-109379007D01*
X115765934Y-109308245D01*
X115862607Y-109074856D01*
X115862607Y-108709297D01*
X115703857Y-108550547D01*
X114879607Y-108550547D01*
X114879607Y-108570547D01*
X114625607Y-108570547D01*
X114625607Y-108550547D01*
X113801357Y-108550547D01*
X113642607Y-108709297D01*
X113642607Y-109074856D01*
X113739280Y-109308245D01*
X113810042Y-109379007D01*
X113786963Y-109413547D01*
X113475850Y-109413547D01*
X111834541Y-107772238D01*
X113642607Y-107772238D01*
X113642607Y-108137797D01*
X113801357Y-108296547D01*
X114625607Y-108296547D01*
X114625607Y-107422297D01*
X114879607Y-107422297D01*
X114879607Y-108296547D01*
X115703857Y-108296547D01*
X115862607Y-108137797D01*
X115862607Y-107772238D01*
X115765934Y-107538849D01*
X115587306Y-107360220D01*
X115353917Y-107263547D01*
X115038357Y-107263547D01*
X114879607Y-107422297D01*
X114625607Y-107422297D01*
X114466857Y-107263547D01*
X114151297Y-107263547D01*
X113917908Y-107360220D01*
X113739280Y-107538849D01*
X113642607Y-107772238D01*
X111834541Y-107772238D01*
X109347440Y-105285139D01*
X109347440Y-103925000D01*
X109279126Y-103581565D01*
X109084586Y-103290414D01*
X108793435Y-103095874D01*
X108450000Y-103027560D01*
X107525000Y-103027560D01*
X107181565Y-103095874D01*
X107167544Y-103105242D01*
X106297000Y-102234699D01*
X106297000Y-101835750D01*
X110760000Y-101835750D01*
X110760000Y-102676309D01*
X110856673Y-102909698D01*
X111035301Y-103088327D01*
X111268690Y-103185000D01*
X111559250Y-103185000D01*
X111718000Y-103026250D01*
X111718000Y-101677000D01*
X110918750Y-101677000D01*
X110760000Y-101835750D01*
X106297000Y-101835750D01*
X106297000Y-100779711D01*
X106414431Y-100662280D01*
X106572000Y-100281874D01*
X106572000Y-99870126D01*
X106414431Y-99489720D01*
X106123280Y-99198569D01*
X105860203Y-99089599D01*
X107347560Y-97602242D01*
X107347560Y-98440000D01*
X107384358Y-98625000D01*
X107347560Y-98810000D01*
X107347560Y-99710000D01*
X107384358Y-99895000D01*
X107347560Y-100080000D01*
X107347560Y-100980000D01*
X107396843Y-101227765D01*
X107537191Y-101437809D01*
X107747235Y-101578157D01*
X107995000Y-101627440D01*
X109995000Y-101627440D01*
X110242765Y-101578157D01*
X110452809Y-101437809D01*
X110593157Y-101227765D01*
X110642440Y-100980000D01*
X110642440Y-100423691D01*
X110760000Y-100423691D01*
X110760000Y-101264250D01*
X110918750Y-101423000D01*
X111718000Y-101423000D01*
X111718000Y-100073750D01*
X111972000Y-100073750D01*
X111972000Y-101423000D01*
X111992000Y-101423000D01*
X111992000Y-101677000D01*
X111972000Y-101677000D01*
X111972000Y-103026250D01*
X112130750Y-103185000D01*
X112421310Y-103185000D01*
X112476834Y-103162001D01*
X112655000Y-103197440D01*
X113555000Y-103197440D01*
X113740000Y-103160642D01*
X113925000Y-103197440D01*
X114825000Y-103197440D01*
X115010000Y-103160642D01*
X115195000Y-103197440D01*
X116095000Y-103197440D01*
X116280000Y-103160642D01*
X116465000Y-103197440D01*
X117365000Y-103197440D01*
X117550000Y-103160642D01*
X117735000Y-103197440D01*
X118635000Y-103197440D01*
X118815000Y-103161636D01*
X118995000Y-103197440D01*
X119895000Y-103197440D01*
X120085000Y-103159647D01*
X120275000Y-103197440D01*
X121175000Y-103197440D01*
X121360000Y-103160642D01*
X121545000Y-103197440D01*
X122445000Y-103197440D01*
X122630000Y-103160642D01*
X122815000Y-103197440D01*
X123715000Y-103197440D01*
X123962765Y-103148157D01*
X124172809Y-103007809D01*
X124313157Y-102797765D01*
X124362440Y-102550000D01*
X124362440Y-100550000D01*
X124313157Y-100302235D01*
X124172809Y-100092191D01*
X123962765Y-99951843D01*
X123715000Y-99902560D01*
X122815000Y-99902560D01*
X122630000Y-99939358D01*
X122445000Y-99902560D01*
X121545000Y-99902560D01*
X121360000Y-99939358D01*
X121175000Y-99902560D01*
X120275000Y-99902560D01*
X120085000Y-99940353D01*
X119895000Y-99902560D01*
X118995000Y-99902560D01*
X118815000Y-99938364D01*
X118635000Y-99902560D01*
X117735000Y-99902560D01*
X117550000Y-99939358D01*
X117365000Y-99902560D01*
X116465000Y-99902560D01*
X116280000Y-99939358D01*
X116095000Y-99902560D01*
X115195000Y-99902560D01*
X115010000Y-99939358D01*
X114825000Y-99902560D01*
X113925000Y-99902560D01*
X113740000Y-99939358D01*
X113555000Y-99902560D01*
X112655000Y-99902560D01*
X112476834Y-99937999D01*
X112421310Y-99915000D01*
X112130750Y-99915000D01*
X111972000Y-100073750D01*
X111718000Y-100073750D01*
X111559250Y-99915000D01*
X111268690Y-99915000D01*
X111035301Y-100011673D01*
X110856673Y-100190302D01*
X110760000Y-100423691D01*
X110642440Y-100423691D01*
X110642440Y-100080000D01*
X110605642Y-99895000D01*
X110642440Y-99710000D01*
X110642440Y-98810000D01*
X110605642Y-98625000D01*
X110642440Y-98440000D01*
X110642440Y-97540000D01*
X110605642Y-97355000D01*
X110642440Y-97170000D01*
X110642440Y-96270000D01*
X110605642Y-96085000D01*
X110642440Y-95900000D01*
X110642440Y-95000000D01*
X110605642Y-94815000D01*
X110642440Y-94630000D01*
X110642440Y-93730000D01*
X110605642Y-93545000D01*
X110642440Y-93360000D01*
X110642440Y-92460000D01*
X110605642Y-92275000D01*
X110642440Y-92090000D01*
X110642440Y-91835750D01*
X113415000Y-91835750D01*
X113415000Y-94176310D01*
X113511673Y-94409699D01*
X113690302Y-94588327D01*
X113923691Y-94685000D01*
X116264250Y-94685000D01*
X116423000Y-94526250D01*
X116423000Y-91677000D01*
X116677000Y-91677000D01*
X116677000Y-94526250D01*
X116835750Y-94685000D01*
X119176309Y-94685000D01*
X119409698Y-94588327D01*
X119588327Y-94409699D01*
X119685000Y-94176310D01*
X119685000Y-91835750D01*
X119526250Y-91677000D01*
X116677000Y-91677000D01*
X116423000Y-91677000D01*
X113573750Y-91677000D01*
X113415000Y-91835750D01*
X110642440Y-91835750D01*
X110642440Y-91190000D01*
X110605642Y-91005000D01*
X110642440Y-90820000D01*
X110642440Y-89920000D01*
X110605642Y-89735000D01*
X110642440Y-89550000D01*
X110642440Y-88923690D01*
X113415000Y-88923690D01*
X113415000Y-91264250D01*
X113573750Y-91423000D01*
X116423000Y-91423000D01*
X116423000Y-88573750D01*
X116677000Y-88573750D01*
X116677000Y-91423000D01*
X119526250Y-91423000D01*
X119685000Y-91264250D01*
X119685000Y-88923690D01*
X119588327Y-88690301D01*
X119409698Y-88511673D01*
X119176309Y-88415000D01*
X116835750Y-88415000D01*
X116677000Y-88573750D01*
X116423000Y-88573750D01*
X116264250Y-88415000D01*
X113923691Y-88415000D01*
X113690302Y-88511673D01*
X113511673Y-88690301D01*
X113415000Y-88923690D01*
X110642440Y-88923690D01*
X110642440Y-88650000D01*
X110605642Y-88465000D01*
X110642440Y-88280000D01*
X110642440Y-87380000D01*
X110605642Y-87195000D01*
X110642440Y-87010000D01*
X110642440Y-86110000D01*
X110605642Y-85925000D01*
X110642440Y-85740000D01*
X110642440Y-84840000D01*
X110605657Y-84655079D01*
X110630000Y-84596310D01*
X110630000Y-84305750D01*
X110471250Y-84147000D01*
X109122000Y-84147000D01*
X109122000Y-84167000D01*
X108868000Y-84167000D01*
X108868000Y-84147000D01*
X108848000Y-84147000D01*
X108848000Y-83893000D01*
X108868000Y-83893000D01*
X108868000Y-83873000D01*
X109122000Y-83873000D01*
X109122000Y-83893000D01*
X110471250Y-83893000D01*
X110630000Y-83734250D01*
X110630000Y-83443690D01*
X124410000Y-83443690D01*
X124410000Y-83734250D01*
X124568750Y-83893000D01*
X125918000Y-83893000D01*
X125918000Y-83093750D01*
X126172000Y-83093750D01*
X126172000Y-83893000D01*
X127521250Y-83893000D01*
X127680000Y-83734250D01*
X127680000Y-83443690D01*
X127583327Y-83210301D01*
X127404698Y-83031673D01*
X127171309Y-82935000D01*
X126330750Y-82935000D01*
X126172000Y-83093750D01*
X125918000Y-83093750D01*
X125759250Y-82935000D01*
X124918691Y-82935000D01*
X124685302Y-83031673D01*
X124506673Y-83210301D01*
X124410000Y-83443690D01*
X110630000Y-83443690D01*
X110627000Y-83436447D01*
X110627000Y-82685000D01*
X140373000Y-82685000D01*
X140373000Y-87500000D01*
X140373000Y-87500000D01*
G37*
X140373000Y-87500000D02*
X140388752Y-87561261D01*
X140420664Y-87599170D01*
X142920664Y-89599170D01*
X142951399Y-89617333D01*
X143000000Y-89627000D01*
X145373000Y-89627000D01*
X145373000Y-92265000D01*
X145035750Y-92265000D01*
X144877000Y-92423750D01*
X144877000Y-93623000D01*
X144897000Y-93623000D01*
X144897000Y-93877000D01*
X144877000Y-93877000D01*
X144877000Y-95076250D01*
X145035750Y-95235000D01*
X145373000Y-95235000D01*
X145373000Y-100078248D01*
X145343204Y-100086408D01*
X143765200Y-100875410D01*
X143504418Y-100701161D01*
X143071256Y-100615000D01*
X142528744Y-100615000D01*
X142308592Y-100658791D01*
X142306458Y-100656656D01*
X142290904Y-100578463D01*
X142122929Y-100327071D01*
X142059473Y-100284671D01*
X137459802Y-95685001D01*
X138420152Y-95685001D01*
X138494999Y-95699889D01*
X138569846Y-95685001D01*
X138569851Y-95685001D01*
X138791536Y-95640905D01*
X139042928Y-95472930D01*
X139085330Y-95409471D01*
X139303592Y-95191209D01*
X139523744Y-95235000D01*
X139816256Y-95235000D01*
X140249418Y-95148839D01*
X140740625Y-94820625D01*
X140940000Y-94522239D01*
X141139375Y-94820625D01*
X141630582Y-95148839D01*
X142063744Y-95235000D01*
X142356256Y-95235000D01*
X142789418Y-95148839D01*
X143280625Y-94820625D01*
X143295096Y-94798967D01*
X143361673Y-94959698D01*
X143540301Y-95138327D01*
X143773690Y-95235000D01*
X144464250Y-95235000D01*
X144623000Y-95076250D01*
X144623000Y-93877000D01*
X144603000Y-93877000D01*
X144603000Y-93623000D01*
X144623000Y-93623000D01*
X144623000Y-92423750D01*
X144464250Y-92265000D01*
X143773690Y-92265000D01*
X143540301Y-92361673D01*
X143361673Y-92540302D01*
X143295096Y-92701033D01*
X143280625Y-92679375D01*
X142789418Y-92351161D01*
X142356256Y-92265000D01*
X142063744Y-92265000D01*
X141630582Y-92351161D01*
X141139375Y-92679375D01*
X140940000Y-92977761D01*
X140740625Y-92679375D01*
X140249418Y-92351161D01*
X139816256Y-92265000D01*
X139523744Y-92265000D01*
X139090582Y-92351161D01*
X138599375Y-92679375D01*
X138400000Y-92977761D01*
X138200625Y-92679375D01*
X137709418Y-92351161D01*
X137276256Y-92265000D01*
X136983744Y-92265000D01*
X136763593Y-92308791D01*
X134465323Y-90010521D01*
X134754595Y-89721249D01*
X134935000Y-89285711D01*
X134935000Y-88814289D01*
X134754595Y-88378751D01*
X134421249Y-88045405D01*
X133985711Y-87865000D01*
X133514289Y-87865000D01*
X133078751Y-88045405D01*
X132789479Y-88334677D01*
X131800331Y-87345530D01*
X131757929Y-87282071D01*
X131506537Y-87114096D01*
X131284852Y-87070000D01*
X131284847Y-87070000D01*
X131210000Y-87055112D01*
X131135153Y-87070000D01*
X127680505Y-87070000D01*
X127692440Y-87010000D01*
X127692440Y-86110000D01*
X127682711Y-86061087D01*
X127738447Y-86050000D01*
X127738452Y-86050000D01*
X127960137Y-86005904D01*
X128211529Y-85837929D01*
X128253931Y-85774470D01*
X128843202Y-85185200D01*
X129009274Y-85185200D01*
X129389680Y-85027631D01*
X129603022Y-84814289D01*
X132565000Y-84814289D01*
X132565000Y-85285711D01*
X132745405Y-85721249D01*
X133078751Y-86054595D01*
X133514289Y-86235000D01*
X133985711Y-86235000D01*
X134421249Y-86054595D01*
X134754595Y-85721249D01*
X134935000Y-85285711D01*
X134935000Y-84814289D01*
X134754595Y-84378751D01*
X134421249Y-84045405D01*
X133985711Y-83865000D01*
X133514289Y-83865000D01*
X133078751Y-84045405D01*
X132745405Y-84378751D01*
X132565000Y-84814289D01*
X129603022Y-84814289D01*
X129680831Y-84736480D01*
X129838400Y-84356074D01*
X129838400Y-83944326D01*
X129680831Y-83563920D01*
X129389680Y-83272769D01*
X129009274Y-83115200D01*
X128597526Y-83115200D01*
X128217120Y-83272769D01*
X127925969Y-83563920D01*
X127768400Y-83944326D01*
X127768400Y-84110398D01*
X127626524Y-84252274D01*
X127521250Y-84147000D01*
X126172000Y-84147000D01*
X126172000Y-84167000D01*
X125918000Y-84167000D01*
X125918000Y-84147000D01*
X124568750Y-84147000D01*
X124410000Y-84305750D01*
X124410000Y-84596310D01*
X124434343Y-84655079D01*
X124397560Y-84840000D01*
X124397560Y-85740000D01*
X124409495Y-85800000D01*
X123514848Y-85800000D01*
X123440000Y-85785112D01*
X123365152Y-85800000D01*
X123365148Y-85800000D01*
X123191605Y-85834520D01*
X123143462Y-85844096D01*
X122956418Y-85969076D01*
X122892071Y-86012071D01*
X122849671Y-86075527D01*
X122460198Y-86465000D01*
X122294126Y-86465000D01*
X121913720Y-86622569D01*
X121622569Y-86913720D01*
X121465000Y-87294126D01*
X121465000Y-87705874D01*
X121622569Y-88086280D01*
X121913720Y-88377431D01*
X122209628Y-88500000D01*
X121913720Y-88622569D01*
X121622569Y-88913720D01*
X121465000Y-89294126D01*
X121465000Y-89705874D01*
X121622569Y-90086280D01*
X121913720Y-90377431D01*
X122294126Y-90535000D01*
X122460198Y-90535000D01*
X122779671Y-90854473D01*
X122822071Y-90917929D01*
X122885527Y-90960329D01*
X123073462Y-91085904D01*
X123121605Y-91095480D01*
X123295148Y-91130000D01*
X123295152Y-91130000D01*
X123370000Y-91144888D01*
X123444848Y-91130000D01*
X124409495Y-91130000D01*
X124397560Y-91190000D01*
X124397560Y-92090000D01*
X124434358Y-92275000D01*
X124397560Y-92460000D01*
X124397560Y-93360000D01*
X124434358Y-93545000D01*
X124397560Y-93730000D01*
X124397560Y-94630000D01*
X124434358Y-94815000D01*
X124397560Y-95000000D01*
X124397560Y-95900000D01*
X124434358Y-96085000D01*
X124397560Y-96270000D01*
X124397560Y-97170000D01*
X124434358Y-97355000D01*
X124397560Y-97540000D01*
X124397560Y-98440000D01*
X124434358Y-98625000D01*
X124397560Y-98810000D01*
X124397560Y-99710000D01*
X124434358Y-99895000D01*
X124397560Y-100080000D01*
X124397560Y-100980000D01*
X124446843Y-101227765D01*
X124587191Y-101437809D01*
X124797235Y-101578157D01*
X125045000Y-101627440D01*
X127045000Y-101627440D01*
X127292765Y-101578157D01*
X127502809Y-101437809D01*
X127601573Y-101290000D01*
X127723399Y-101290000D01*
X135990000Y-109556602D01*
X135990001Y-119119440D01*
X135852235Y-119146843D01*
X135642191Y-119287191D01*
X135501843Y-119497235D01*
X135452560Y-119745000D01*
X135452560Y-121295000D01*
X135501843Y-121542765D01*
X135642191Y-121752809D01*
X135852235Y-121893157D01*
X135990000Y-121920560D01*
X135990001Y-127079440D01*
X135852235Y-127106843D01*
X135642191Y-127247191D01*
X135501843Y-127457235D01*
X135452560Y-127705000D01*
X135452560Y-129255000D01*
X135501843Y-129502765D01*
X135642191Y-129712809D01*
X135852235Y-129853157D01*
X136100000Y-129902440D01*
X137400000Y-129902440D01*
X137647765Y-129853157D01*
X137857809Y-129712809D01*
X137998157Y-129502765D01*
X138047440Y-129255000D01*
X138047440Y-127705000D01*
X137998157Y-127457235D01*
X137857809Y-127247191D01*
X137647765Y-127106843D01*
X137510000Y-127079440D01*
X137510000Y-121920560D01*
X137647765Y-121893157D01*
X137857809Y-121752809D01*
X137998157Y-121542765D01*
X138047440Y-121295000D01*
X138047440Y-119745000D01*
X137998157Y-119497235D01*
X137857809Y-119287191D01*
X137647765Y-119146843D01*
X137510000Y-119119440D01*
X137510000Y-110384802D01*
X140843543Y-113718346D01*
X140859096Y-113796537D01*
X141027071Y-114047929D01*
X141090529Y-114090330D01*
X141233791Y-114233592D01*
X141160908Y-114600000D01*
X141276161Y-115179418D01*
X141604375Y-115670625D01*
X141877687Y-115853246D01*
X141472503Y-116228807D01*
X141233524Y-116743110D01*
X141354845Y-116973000D01*
X142673000Y-116973000D01*
X142673000Y-116953000D01*
X142927000Y-116953000D01*
X142927000Y-116973000D01*
X142947000Y-116973000D01*
X142947000Y-117227000D01*
X142927000Y-117227000D01*
X142927000Y-117247000D01*
X142673000Y-117247000D01*
X142673000Y-117227000D01*
X141354845Y-117227000D01*
X141233524Y-117456890D01*
X141472503Y-117971193D01*
X141651471Y-118137077D01*
X141577235Y-118151843D01*
X141367191Y-118292191D01*
X141226843Y-118502235D01*
X141177560Y-118750000D01*
X141177560Y-120450000D01*
X141226843Y-120697765D01*
X141367191Y-120907809D01*
X141577235Y-121048157D01*
X141825000Y-121097440D01*
X143673000Y-121097440D01*
X143673000Y-124373000D01*
X142500000Y-124373000D01*
X142438739Y-124388752D01*
X142400830Y-124420664D01*
X140400830Y-126920664D01*
X140382667Y-126951399D01*
X140373000Y-127000000D01*
X140373000Y-131315000D01*
X105627000Y-131315000D01*
X105627000Y-129485750D01*
X118267500Y-129485750D01*
X118267500Y-130276310D01*
X118364173Y-130509699D01*
X118542802Y-130688327D01*
X118776191Y-130785000D01*
X119804250Y-130785000D01*
X119963000Y-130626250D01*
X119963000Y-129327000D01*
X120217000Y-129327000D01*
X120217000Y-130626250D01*
X120375750Y-130785000D01*
X121403809Y-130785000D01*
X121425000Y-130776222D01*
X121446191Y-130785000D01*
X121874250Y-130785000D01*
X122033000Y-130626250D01*
X122033000Y-129327000D01*
X122287000Y-129327000D01*
X122287000Y-130626250D01*
X122445750Y-130785000D01*
X122873809Y-130785000D01*
X123000000Y-130732730D01*
X123126191Y-130785000D01*
X123554250Y-130785000D01*
X123713000Y-130626250D01*
X123713000Y-129327000D01*
X123967000Y-129327000D01*
X123967000Y-130626250D01*
X124125750Y-130785000D01*
X124553809Y-130785000D01*
X124575000Y-130776222D01*
X124596191Y-130785000D01*
X125624250Y-130785000D01*
X125783000Y-130626250D01*
X125783000Y-129327000D01*
X126037000Y-129327000D01*
X126037000Y-130626250D01*
X126195750Y-130785000D01*
X127223809Y-130785000D01*
X127457198Y-130688327D01*
X127635827Y-130509699D01*
X127732500Y-130276310D01*
X127732500Y-129485750D01*
X127573750Y-129327000D01*
X126037000Y-129327000D01*
X125783000Y-129327000D01*
X123967000Y-129327000D01*
X123713000Y-129327000D01*
X122287000Y-129327000D01*
X122033000Y-129327000D01*
X120217000Y-129327000D01*
X119963000Y-129327000D01*
X118426250Y-129327000D01*
X118267500Y-129485750D01*
X105627000Y-129485750D01*
X105627000Y-128123690D01*
X118267500Y-128123690D01*
X118267500Y-128914250D01*
X118426250Y-129073000D01*
X119963000Y-129073000D01*
X119963000Y-129053000D01*
X120217000Y-129053000D01*
X120217000Y-129073000D01*
X122033000Y-129073000D01*
X122033000Y-129053000D01*
X122287000Y-129053000D01*
X122287000Y-129073000D01*
X123713000Y-129073000D01*
X123713000Y-129053000D01*
X123967000Y-129053000D01*
X123967000Y-129073000D01*
X125783000Y-129073000D01*
X125783000Y-129053000D01*
X126037000Y-129053000D01*
X126037000Y-129073000D01*
X127573750Y-129073000D01*
X127732500Y-128914250D01*
X127732500Y-128765750D01*
X130965000Y-128765750D01*
X130965000Y-129381309D01*
X131061673Y-129614698D01*
X131240301Y-129793327D01*
X131473690Y-129890000D01*
X131964250Y-129890000D01*
X132123000Y-129731250D01*
X132123000Y-128607000D01*
X132377000Y-128607000D01*
X132377000Y-129731250D01*
X132535750Y-129890000D01*
X133026310Y-129890000D01*
X133259699Y-129793327D01*
X133438327Y-129614698D01*
X133535000Y-129381309D01*
X133535000Y-128765750D01*
X133376250Y-128607000D01*
X132377000Y-128607000D01*
X132123000Y-128607000D01*
X131123750Y-128607000D01*
X130965000Y-128765750D01*
X127732500Y-128765750D01*
X127732500Y-128123690D01*
X127635827Y-127890301D01*
X127457198Y-127711673D01*
X127223809Y-127615000D01*
X126835000Y-127615000D01*
X126835000Y-127578691D01*
X130965000Y-127578691D01*
X130965000Y-128194250D01*
X131123750Y-128353000D01*
X132123000Y-128353000D01*
X132123000Y-127228750D01*
X132377000Y-127228750D01*
X132377000Y-128353000D01*
X133376250Y-128353000D01*
X133535000Y-128194250D01*
X133535000Y-127578691D01*
X133438327Y-127345302D01*
X133259699Y-127166673D01*
X133026310Y-127070000D01*
X132535750Y-127070000D01*
X132377000Y-127228750D01*
X132123000Y-127228750D01*
X131964250Y-127070000D01*
X131473690Y-127070000D01*
X131240301Y-127166673D01*
X131061673Y-127345302D01*
X130965000Y-127578691D01*
X126835000Y-127578691D01*
X126835000Y-127185750D01*
X126676250Y-127027000D01*
X125589500Y-127027000D01*
X125589500Y-127047000D01*
X125335500Y-127047000D01*
X125335500Y-127027000D01*
X125315500Y-127027000D01*
X125315500Y-126773000D01*
X125335500Y-126773000D01*
X125335500Y-126753000D01*
X125589500Y-126753000D01*
X125589500Y-126773000D01*
X126676250Y-126773000D01*
X126835000Y-126614250D01*
X126835000Y-125723690D01*
X126810483Y-125664500D01*
X127433153Y-125664500D01*
X127508000Y-125679388D01*
X127582847Y-125664500D01*
X127582852Y-125664500D01*
X127804537Y-125620404D01*
X128055929Y-125452429D01*
X128098331Y-125388970D01*
X129897302Y-123590000D01*
X130063374Y-123590000D01*
X130443780Y-123432431D01*
X130734931Y-123141280D01*
X130892500Y-122760874D01*
X130892500Y-122349126D01*
X130734931Y-121968720D01*
X130617500Y-121851289D01*
X130617500Y-120805750D01*
X130965000Y-120805750D01*
X130965000Y-121421309D01*
X131061673Y-121654698D01*
X131240301Y-121833327D01*
X131473690Y-121930000D01*
X131964250Y-121930000D01*
X132123000Y-121771250D01*
X132123000Y-120647000D01*
X132377000Y-120647000D01*
X132377000Y-121771250D01*
X132535750Y-121930000D01*
X133026310Y-121930000D01*
X133259699Y-121833327D01*
X133438327Y-121654698D01*
X133535000Y-121421309D01*
X133535000Y-120805750D01*
X133376250Y-120647000D01*
X132377000Y-120647000D01*
X132123000Y-120647000D01*
X131123750Y-120647000D01*
X130965000Y-120805750D01*
X130617500Y-120805750D01*
X130617500Y-119618691D01*
X130965000Y-119618691D01*
X130965000Y-120234250D01*
X131123750Y-120393000D01*
X132123000Y-120393000D01*
X132123000Y-119268750D01*
X132377000Y-119268750D01*
X132377000Y-120393000D01*
X133376250Y-120393000D01*
X133535000Y-120234250D01*
X133535000Y-119618691D01*
X133438327Y-119385302D01*
X133259699Y-119206673D01*
X133026310Y-119110000D01*
X132535750Y-119110000D01*
X132377000Y-119268750D01*
X132123000Y-119268750D01*
X131964250Y-119110000D01*
X131473690Y-119110000D01*
X131240301Y-119206673D01*
X131061673Y-119385302D01*
X130965000Y-119618691D01*
X130617500Y-119618691D01*
X130617500Y-113103286D01*
X130632388Y-113028439D01*
X130617500Y-112953592D01*
X130617500Y-112953588D01*
X130573404Y-112731903D01*
X130517294Y-112647929D01*
X130447829Y-112543966D01*
X130447827Y-112543964D01*
X130405429Y-112480511D01*
X130341976Y-112438113D01*
X128125047Y-110221186D01*
X128125047Y-109886047D01*
X128057685Y-109547395D01*
X127945172Y-109379007D01*
X128015934Y-109308245D01*
X128112607Y-109074856D01*
X128112607Y-108709297D01*
X127953857Y-108550547D01*
X127129607Y-108550547D01*
X127129607Y-108570547D01*
X126875607Y-108570547D01*
X126875607Y-108550547D01*
X126855607Y-108550547D01*
X126855607Y-108296547D01*
X126875607Y-108296547D01*
X126875607Y-107422297D01*
X127129607Y-107422297D01*
X127129607Y-108296547D01*
X127953857Y-108296547D01*
X128112607Y-108137797D01*
X128112607Y-107772238D01*
X128015934Y-107538849D01*
X127837306Y-107360220D01*
X127603917Y-107263547D01*
X127288357Y-107263547D01*
X127129607Y-107422297D01*
X126875607Y-107422297D01*
X126716857Y-107263547D01*
X126401297Y-107263547D01*
X126167908Y-107360220D01*
X125989280Y-107538849D01*
X125892607Y-107772238D01*
X125892607Y-108137797D01*
X126051355Y-108296545D01*
X125892607Y-108296545D01*
X125892607Y-108391047D01*
X124690047Y-108391047D01*
X124690047Y-108151047D01*
X124621733Y-107807612D01*
X124427193Y-107516461D01*
X124136042Y-107321921D01*
X123792607Y-107253607D01*
X123292607Y-107253607D01*
X122949172Y-107321921D01*
X122658021Y-107516461D01*
X122463481Y-107807612D01*
X122395167Y-108151047D01*
X122395167Y-110151047D01*
X122398449Y-110167547D01*
X121288357Y-110167547D01*
X121129607Y-110326297D01*
X121129607Y-114675547D01*
X124078857Y-114675547D01*
X124237607Y-114516797D01*
X124237607Y-110912310D01*
X124427193Y-110785633D01*
X124621733Y-110494482D01*
X124690047Y-110151047D01*
X124690047Y-109911047D01*
X125665306Y-109911047D01*
X125880167Y-110125909D01*
X125880167Y-110461047D01*
X125947529Y-110799699D01*
X126139360Y-111086794D01*
X126426455Y-111278625D01*
X126765107Y-111345987D01*
X127100246Y-111345987D01*
X129097501Y-113343244D01*
X129097500Y-121851289D01*
X128980069Y-121968720D01*
X128822500Y-122349126D01*
X128822500Y-122515198D01*
X127193199Y-124144500D01*
X122470348Y-124144500D01*
X122395500Y-124129612D01*
X122320652Y-124144500D01*
X122320648Y-124144500D01*
X122098963Y-124188596D01*
X121847571Y-124356571D01*
X121805171Y-124420027D01*
X121215528Y-125009671D01*
X121152072Y-125052071D01*
X121109672Y-125115527D01*
X121109671Y-125115528D01*
X121043206Y-125215000D01*
X120823250Y-125215000D01*
X120664500Y-125373750D01*
X120664500Y-126773000D01*
X120684500Y-126773000D01*
X120684500Y-127027000D01*
X120664500Y-127027000D01*
X120664500Y-127047000D01*
X120410500Y-127047000D01*
X120410500Y-127027000D01*
X119323750Y-127027000D01*
X119165000Y-127185750D01*
X119165000Y-127615000D01*
X118776191Y-127615000D01*
X118542802Y-127711673D01*
X118364173Y-127890301D01*
X118267500Y-128123690D01*
X105627000Y-128123690D01*
X105627000Y-127000000D01*
X105621982Y-126964654D01*
X105599170Y-126920664D01*
X104641591Y-125723690D01*
X119165000Y-125723690D01*
X119165000Y-126614250D01*
X119323750Y-126773000D01*
X120410500Y-126773000D01*
X120410500Y-125373750D01*
X120251750Y-125215000D01*
X119673691Y-125215000D01*
X119440302Y-125311673D01*
X119261673Y-125490301D01*
X119165000Y-125723690D01*
X104641591Y-125723690D01*
X103599170Y-124420664D01*
X103548601Y-124382667D01*
X103500000Y-124373000D01*
X98735000Y-124373000D01*
X98735000Y-99223691D01*
X101140000Y-99223691D01*
X101140000Y-99589250D01*
X101298750Y-99748000D01*
X102123000Y-99748000D01*
X102123000Y-98873750D01*
X101964250Y-98715000D01*
X101648690Y-98715000D01*
X101415301Y-98811673D01*
X101236673Y-98990302D01*
X101140000Y-99223691D01*
X98735000Y-99223691D01*
X98735000Y-96785750D01*
X101215000Y-96785750D01*
X101215000Y-97101310D01*
X101311673Y-97334699D01*
X101490302Y-97513327D01*
X101723691Y-97610000D01*
X102089250Y-97610000D01*
X102248000Y-97451250D01*
X102248000Y-96627000D01*
X101373750Y-96627000D01*
X101215000Y-96785750D01*
X98735000Y-96785750D01*
X98735000Y-95898690D01*
X101215000Y-95898690D01*
X101215000Y-96214250D01*
X101373750Y-96373000D01*
X102248000Y-96373000D01*
X102248000Y-95548750D01*
X102089250Y-95390000D01*
X101723691Y-95390000D01*
X101490302Y-95486673D01*
X101311673Y-95665301D01*
X101215000Y-95898690D01*
X98735000Y-95898690D01*
X98735000Y-92785750D01*
X101215000Y-92785750D01*
X101215000Y-93101310D01*
X101311673Y-93334699D01*
X101490302Y-93513327D01*
X101723691Y-93610000D01*
X102089250Y-93610000D01*
X102248000Y-93451250D01*
X102248000Y-92627000D01*
X101373750Y-92627000D01*
X101215000Y-92785750D01*
X98735000Y-92785750D01*
X98735000Y-91898690D01*
X101215000Y-91898690D01*
X101215000Y-92214250D01*
X101373750Y-92373000D01*
X102248000Y-92373000D01*
X102248000Y-91548750D01*
X102089250Y-91390000D01*
X101723691Y-91390000D01*
X101490302Y-91486673D01*
X101311673Y-91665301D01*
X101215000Y-91898690D01*
X98735000Y-91898690D01*
X98735000Y-89627000D01*
X102947394Y-89627000D01*
X103365001Y-90044607D01*
X103365000Y-91534356D01*
X103330460Y-91557435D01*
X103259698Y-91486673D01*
X103026309Y-91390000D01*
X102660750Y-91390000D01*
X102502000Y-91548750D01*
X102502000Y-92373000D01*
X102522000Y-92373000D01*
X102522000Y-92627000D01*
X102502000Y-92627000D01*
X102502000Y-93451250D01*
X102660750Y-93610000D01*
X103026309Y-93610000D01*
X103259698Y-93513327D01*
X103330460Y-93442565D01*
X103365000Y-93465644D01*
X103365001Y-95534356D01*
X103330460Y-95557435D01*
X103259698Y-95486673D01*
X103026309Y-95390000D01*
X102660750Y-95390000D01*
X102502000Y-95548750D01*
X102502000Y-96373000D01*
X102522000Y-96373000D01*
X102522000Y-96627000D01*
X102502000Y-96627000D01*
X102502000Y-97451250D01*
X102660750Y-97610000D01*
X103026309Y-97610000D01*
X103259698Y-97513327D01*
X103330460Y-97442565D01*
X103387572Y-97480726D01*
X103409097Y-97588937D01*
X103577072Y-97840329D01*
X103640528Y-97882729D01*
X103714600Y-97956801D01*
X103714600Y-98122874D01*
X103872169Y-98503280D01*
X104084544Y-98715655D01*
X103360000Y-99440199D01*
X103360000Y-99223691D01*
X103263327Y-98990302D01*
X103084699Y-98811673D01*
X102851310Y-98715000D01*
X102535750Y-98715000D01*
X102377000Y-98873750D01*
X102377000Y-99748000D01*
X102397000Y-99748000D01*
X102397000Y-100002000D01*
X102377000Y-100002000D01*
X102377000Y-100022000D01*
X102123000Y-100022000D01*
X102123000Y-100002000D01*
X101298750Y-100002000D01*
X101140000Y-100160750D01*
X101140000Y-100526309D01*
X101236673Y-100759698D01*
X101307435Y-100830460D01*
X101194922Y-100998848D01*
X101127560Y-101337500D01*
X101127560Y-101912500D01*
X101194922Y-102251152D01*
X101386753Y-102538247D01*
X101673848Y-102730078D01*
X102012500Y-102797440D01*
X102347639Y-102797440D01*
X103652560Y-104102362D01*
X103652560Y-105285138D01*
X102515530Y-106422169D01*
X102452071Y-106464571D01*
X102284096Y-106715964D01*
X102240000Y-106937649D01*
X102240000Y-106937653D01*
X102225112Y-107012500D01*
X102240000Y-107087347D01*
X102240000Y-107869440D01*
X102102235Y-107896843D01*
X101892191Y-108037191D01*
X101751843Y-108247235D01*
X101702560Y-108495000D01*
X101702560Y-110045000D01*
X101751843Y-110292765D01*
X101892191Y-110502809D01*
X102102235Y-110643157D01*
X102240000Y-110670560D01*
X102240001Y-115829440D01*
X102102235Y-115856843D01*
X101892191Y-115997191D01*
X101751843Y-116207235D01*
X101702560Y-116455000D01*
X101702560Y-118005000D01*
X101751843Y-118252765D01*
X101892191Y-118462809D01*
X102102235Y-118603157D01*
X102350000Y-118652440D01*
X103650000Y-118652440D01*
X103897765Y-118603157D01*
X104107809Y-118462809D01*
X104248157Y-118252765D01*
X104297440Y-118005000D01*
X104297440Y-117515750D01*
X106215000Y-117515750D01*
X106215000Y-118131309D01*
X106311673Y-118364698D01*
X106490301Y-118543327D01*
X106723690Y-118640000D01*
X107214250Y-118640000D01*
X107373000Y-118481250D01*
X107373000Y-117357000D01*
X107627000Y-117357000D01*
X107627000Y-118481250D01*
X107785750Y-118640000D01*
X108276310Y-118640000D01*
X108509699Y-118543327D01*
X108688327Y-118364698D01*
X108785000Y-118131309D01*
X108785000Y-117515750D01*
X108626250Y-117357000D01*
X107627000Y-117357000D01*
X107373000Y-117357000D01*
X106373750Y-117357000D01*
X106215000Y-117515750D01*
X104297440Y-117515750D01*
X104297440Y-116455000D01*
X104272316Y-116328691D01*
X106215000Y-116328691D01*
X106215000Y-116944250D01*
X106373750Y-117103000D01*
X107373000Y-117103000D01*
X107373000Y-115978750D01*
X107627000Y-115978750D01*
X107627000Y-117103000D01*
X108626250Y-117103000D01*
X108785000Y-116944250D01*
X108785000Y-116328691D01*
X108688327Y-116095302D01*
X108509699Y-115916673D01*
X108276310Y-115820000D01*
X107785750Y-115820000D01*
X107627000Y-115978750D01*
X107373000Y-115978750D01*
X107214250Y-115820000D01*
X106723690Y-115820000D01*
X106490301Y-115916673D01*
X106311673Y-116095302D01*
X106215000Y-116328691D01*
X104272316Y-116328691D01*
X104248157Y-116207235D01*
X104107809Y-115997191D01*
X103897765Y-115856843D01*
X103760000Y-115829440D01*
X103760000Y-115088297D01*
X117767607Y-115088297D01*
X117767607Y-118928857D01*
X117864280Y-119162246D01*
X118042909Y-119340874D01*
X118276298Y-119437547D01*
X120716857Y-119437547D01*
X120875607Y-119278797D01*
X120875607Y-114929547D01*
X121129607Y-114929547D01*
X121129607Y-119278797D01*
X121288357Y-119437547D01*
X123728916Y-119437547D01*
X123962305Y-119340874D01*
X124140934Y-119162246D01*
X124237607Y-118928857D01*
X124237607Y-115088297D01*
X124078857Y-114929547D01*
X121129607Y-114929547D01*
X120875607Y-114929547D01*
X117926357Y-114929547D01*
X117767607Y-115088297D01*
X103760000Y-115088297D01*
X103760000Y-110670560D01*
X103897765Y-110643157D01*
X104107809Y-110502809D01*
X104248157Y-110292765D01*
X104297440Y-110045000D01*
X104297440Y-109555750D01*
X106215000Y-109555750D01*
X106215000Y-110171309D01*
X106311673Y-110404698D01*
X106490301Y-110583327D01*
X106723690Y-110680000D01*
X107214250Y-110680000D01*
X107373000Y-110521250D01*
X107373000Y-109397000D01*
X107627000Y-109397000D01*
X107627000Y-110521250D01*
X107785750Y-110680000D01*
X108276310Y-110680000D01*
X108509699Y-110583327D01*
X108688327Y-110404698D01*
X108785000Y-110171309D01*
X108785000Y-109555750D01*
X108626250Y-109397000D01*
X107627000Y-109397000D01*
X107373000Y-109397000D01*
X106373750Y-109397000D01*
X106215000Y-109555750D01*
X104297440Y-109555750D01*
X104297440Y-108495000D01*
X104272316Y-108368691D01*
X106215000Y-108368691D01*
X106215000Y-108984250D01*
X106373750Y-109143000D01*
X107373000Y-109143000D01*
X107373000Y-108018750D01*
X107627000Y-108018750D01*
X107627000Y-109143000D01*
X108626250Y-109143000D01*
X108785000Y-108984250D01*
X108785000Y-108368691D01*
X108688327Y-108135302D01*
X108509699Y-107956673D01*
X108276310Y-107860000D01*
X107785750Y-107860000D01*
X107627000Y-108018750D01*
X107373000Y-108018750D01*
X107214250Y-107860000D01*
X106723690Y-107860000D01*
X106490301Y-107956673D01*
X106311673Y-108135302D01*
X106215000Y-108368691D01*
X104272316Y-108368691D01*
X104248157Y-108247235D01*
X104107809Y-108037191D01*
X103897765Y-107896843D01*
X103760000Y-107869440D01*
X103760000Y-107327301D01*
X104192544Y-106894757D01*
X104206565Y-106904126D01*
X104550000Y-106972440D01*
X105475000Y-106972440D01*
X105818435Y-106904126D01*
X106109586Y-106709586D01*
X106304126Y-106418435D01*
X106372440Y-106075000D01*
X106372440Y-104459742D01*
X106627560Y-104714862D01*
X106627560Y-106075000D01*
X106695874Y-106418435D01*
X106890414Y-106709586D01*
X107181565Y-106904126D01*
X107525000Y-106972440D01*
X108450000Y-106972440D01*
X108793435Y-106904126D01*
X108807456Y-106894758D01*
X112570720Y-110658023D01*
X112613118Y-110721476D01*
X112676571Y-110763874D01*
X112676573Y-110763876D01*
X112730860Y-110800149D01*
X112864510Y-110889451D01*
X113086195Y-110933547D01*
X113086199Y-110933547D01*
X113161046Y-110948435D01*
X113235893Y-110933547D01*
X113786963Y-110933547D01*
X113889360Y-111086794D01*
X114176455Y-111278625D01*
X114515107Y-111345987D01*
X114990107Y-111345987D01*
X115328759Y-111278625D01*
X115615854Y-111086794D01*
X115718251Y-110933547D01*
X117365260Y-110933547D01*
X117440107Y-110948435D01*
X117514954Y-110933547D01*
X117514959Y-110933547D01*
X117734141Y-110889949D01*
X117767607Y-110912310D01*
X117767607Y-114516797D01*
X117926357Y-114675547D01*
X120875607Y-114675547D01*
X120875607Y-110326297D01*
X120716857Y-110167547D01*
X119606765Y-110167547D01*
X119610047Y-110151047D01*
X119610047Y-108151047D01*
X119541733Y-107807612D01*
X119347193Y-107516461D01*
X119056042Y-107321921D01*
X118712607Y-107253607D01*
X118212607Y-107253607D01*
X117869172Y-107321921D01*
X117578021Y-107516461D01*
X117383481Y-107807612D01*
X117315167Y-108151047D01*
X117315167Y-109223685D01*
X117125306Y-109413547D01*
X115718251Y-109413547D01*
X115695172Y-109379007D01*
X115765934Y-109308245D01*
X115862607Y-109074856D01*
X115862607Y-108709297D01*
X115703857Y-108550547D01*
X114879607Y-108550547D01*
X114879607Y-108570547D01*
X114625607Y-108570547D01*
X114625607Y-108550547D01*
X113801357Y-108550547D01*
X113642607Y-108709297D01*
X113642607Y-109074856D01*
X113739280Y-109308245D01*
X113810042Y-109379007D01*
X113786963Y-109413547D01*
X113475850Y-109413547D01*
X111834541Y-107772238D01*
X113642607Y-107772238D01*
X113642607Y-108137797D01*
X113801357Y-108296547D01*
X114625607Y-108296547D01*
X114625607Y-107422297D01*
X114879607Y-107422297D01*
X114879607Y-108296547D01*
X115703857Y-108296547D01*
X115862607Y-108137797D01*
X115862607Y-107772238D01*
X115765934Y-107538849D01*
X115587306Y-107360220D01*
X115353917Y-107263547D01*
X115038357Y-107263547D01*
X114879607Y-107422297D01*
X114625607Y-107422297D01*
X114466857Y-107263547D01*
X114151297Y-107263547D01*
X113917908Y-107360220D01*
X113739280Y-107538849D01*
X113642607Y-107772238D01*
X111834541Y-107772238D01*
X109347440Y-105285139D01*
X109347440Y-103925000D01*
X109279126Y-103581565D01*
X109084586Y-103290414D01*
X108793435Y-103095874D01*
X108450000Y-103027560D01*
X107525000Y-103027560D01*
X107181565Y-103095874D01*
X107167544Y-103105242D01*
X106297000Y-102234699D01*
X106297000Y-101835750D01*
X110760000Y-101835750D01*
X110760000Y-102676309D01*
X110856673Y-102909698D01*
X111035301Y-103088327D01*
X111268690Y-103185000D01*
X111559250Y-103185000D01*
X111718000Y-103026250D01*
X111718000Y-101677000D01*
X110918750Y-101677000D01*
X110760000Y-101835750D01*
X106297000Y-101835750D01*
X106297000Y-100779711D01*
X106414431Y-100662280D01*
X106572000Y-100281874D01*
X106572000Y-99870126D01*
X106414431Y-99489720D01*
X106123280Y-99198569D01*
X105860203Y-99089599D01*
X107347560Y-97602242D01*
X107347560Y-98440000D01*
X107384358Y-98625000D01*
X107347560Y-98810000D01*
X107347560Y-99710000D01*
X107384358Y-99895000D01*
X107347560Y-100080000D01*
X107347560Y-100980000D01*
X107396843Y-101227765D01*
X107537191Y-101437809D01*
X107747235Y-101578157D01*
X107995000Y-101627440D01*
X109995000Y-101627440D01*
X110242765Y-101578157D01*
X110452809Y-101437809D01*
X110593157Y-101227765D01*
X110642440Y-100980000D01*
X110642440Y-100423691D01*
X110760000Y-100423691D01*
X110760000Y-101264250D01*
X110918750Y-101423000D01*
X111718000Y-101423000D01*
X111718000Y-100073750D01*
X111972000Y-100073750D01*
X111972000Y-101423000D01*
X111992000Y-101423000D01*
X111992000Y-101677000D01*
X111972000Y-101677000D01*
X111972000Y-103026250D01*
X112130750Y-103185000D01*
X112421310Y-103185000D01*
X112476834Y-103162001D01*
X112655000Y-103197440D01*
X113555000Y-103197440D01*
X113740000Y-103160642D01*
X113925000Y-103197440D01*
X114825000Y-103197440D01*
X115010000Y-103160642D01*
X115195000Y-103197440D01*
X116095000Y-103197440D01*
X116280000Y-103160642D01*
X116465000Y-103197440D01*
X117365000Y-103197440D01*
X117550000Y-103160642D01*
X117735000Y-103197440D01*
X118635000Y-103197440D01*
X118815000Y-103161636D01*
X118995000Y-103197440D01*
X119895000Y-103197440D01*
X120085000Y-103159647D01*
X120275000Y-103197440D01*
X121175000Y-103197440D01*
X121360000Y-103160642D01*
X121545000Y-103197440D01*
X122445000Y-103197440D01*
X122630000Y-103160642D01*
X122815000Y-103197440D01*
X123715000Y-103197440D01*
X123962765Y-103148157D01*
X124172809Y-103007809D01*
X124313157Y-102797765D01*
X124362440Y-102550000D01*
X124362440Y-100550000D01*
X124313157Y-100302235D01*
X124172809Y-100092191D01*
X123962765Y-99951843D01*
X123715000Y-99902560D01*
X122815000Y-99902560D01*
X122630000Y-99939358D01*
X122445000Y-99902560D01*
X121545000Y-99902560D01*
X121360000Y-99939358D01*
X121175000Y-99902560D01*
X120275000Y-99902560D01*
X120085000Y-99940353D01*
X119895000Y-99902560D01*
X118995000Y-99902560D01*
X118815000Y-99938364D01*
X118635000Y-99902560D01*
X117735000Y-99902560D01*
X117550000Y-99939358D01*
X117365000Y-99902560D01*
X116465000Y-99902560D01*
X116280000Y-99939358D01*
X116095000Y-99902560D01*
X115195000Y-99902560D01*
X115010000Y-99939358D01*
X114825000Y-99902560D01*
X113925000Y-99902560D01*
X113740000Y-99939358D01*
X113555000Y-99902560D01*
X112655000Y-99902560D01*
X112476834Y-99937999D01*
X112421310Y-99915000D01*
X112130750Y-99915000D01*
X111972000Y-100073750D01*
X111718000Y-100073750D01*
X111559250Y-99915000D01*
X111268690Y-99915000D01*
X111035301Y-100011673D01*
X110856673Y-100190302D01*
X110760000Y-100423691D01*
X110642440Y-100423691D01*
X110642440Y-100080000D01*
X110605642Y-99895000D01*
X110642440Y-99710000D01*
X110642440Y-98810000D01*
X110605642Y-98625000D01*
X110642440Y-98440000D01*
X110642440Y-97540000D01*
X110605642Y-97355000D01*
X110642440Y-97170000D01*
X110642440Y-96270000D01*
X110605642Y-96085000D01*
X110642440Y-95900000D01*
X110642440Y-95000000D01*
X110605642Y-94815000D01*
X110642440Y-94630000D01*
X110642440Y-93730000D01*
X110605642Y-93545000D01*
X110642440Y-93360000D01*
X110642440Y-92460000D01*
X110605642Y-92275000D01*
X110642440Y-92090000D01*
X110642440Y-91835750D01*
X113415000Y-91835750D01*
X113415000Y-94176310D01*
X113511673Y-94409699D01*
X113690302Y-94588327D01*
X113923691Y-94685000D01*
X116264250Y-94685000D01*
X116423000Y-94526250D01*
X116423000Y-91677000D01*
X116677000Y-91677000D01*
X116677000Y-94526250D01*
X116835750Y-94685000D01*
X119176309Y-94685000D01*
X119409698Y-94588327D01*
X119588327Y-94409699D01*
X119685000Y-94176310D01*
X119685000Y-91835750D01*
X119526250Y-91677000D01*
X116677000Y-91677000D01*
X116423000Y-91677000D01*
X113573750Y-91677000D01*
X113415000Y-91835750D01*
X110642440Y-91835750D01*
X110642440Y-91190000D01*
X110605642Y-91005000D01*
X110642440Y-90820000D01*
X110642440Y-89920000D01*
X110605642Y-89735000D01*
X110642440Y-89550000D01*
X110642440Y-88923690D01*
X113415000Y-88923690D01*
X113415000Y-91264250D01*
X113573750Y-91423000D01*
X116423000Y-91423000D01*
X116423000Y-88573750D01*
X116677000Y-88573750D01*
X116677000Y-91423000D01*
X119526250Y-91423000D01*
X119685000Y-91264250D01*
X119685000Y-88923690D01*
X119588327Y-88690301D01*
X119409698Y-88511673D01*
X119176309Y-88415000D01*
X116835750Y-88415000D01*
X116677000Y-88573750D01*
X116423000Y-88573750D01*
X116264250Y-88415000D01*
X113923691Y-88415000D01*
X113690302Y-88511673D01*
X113511673Y-88690301D01*
X113415000Y-88923690D01*
X110642440Y-88923690D01*
X110642440Y-88650000D01*
X110605642Y-88465000D01*
X110642440Y-88280000D01*
X110642440Y-87380000D01*
X110605642Y-87195000D01*
X110642440Y-87010000D01*
X110642440Y-86110000D01*
X110605642Y-85925000D01*
X110642440Y-85740000D01*
X110642440Y-84840000D01*
X110605657Y-84655079D01*
X110630000Y-84596310D01*
X110630000Y-84305750D01*
X110471250Y-84147000D01*
X109122000Y-84147000D01*
X109122000Y-84167000D01*
X108868000Y-84167000D01*
X108868000Y-84147000D01*
X108848000Y-84147000D01*
X108848000Y-83893000D01*
X108868000Y-83893000D01*
X108868000Y-83873000D01*
X109122000Y-83873000D01*
X109122000Y-83893000D01*
X110471250Y-83893000D01*
X110630000Y-83734250D01*
X110630000Y-83443690D01*
X124410000Y-83443690D01*
X124410000Y-83734250D01*
X124568750Y-83893000D01*
X125918000Y-83893000D01*
X125918000Y-83093750D01*
X126172000Y-83093750D01*
X126172000Y-83893000D01*
X127521250Y-83893000D01*
X127680000Y-83734250D01*
X127680000Y-83443690D01*
X127583327Y-83210301D01*
X127404698Y-83031673D01*
X127171309Y-82935000D01*
X126330750Y-82935000D01*
X126172000Y-83093750D01*
X125918000Y-83093750D01*
X125759250Y-82935000D01*
X124918691Y-82935000D01*
X124685302Y-83031673D01*
X124506673Y-83210301D01*
X124410000Y-83443690D01*
X110630000Y-83443690D01*
X110627000Y-83436447D01*
X110627000Y-82685000D01*
X140373000Y-82685000D01*
X140373000Y-87500000D01*
G36*
X140373000Y-87500000D02*
X140388752Y-87561261D01*
X140420664Y-87599170D01*
X142920664Y-89599170D01*
X142951399Y-89617333D01*
X143000000Y-89627000D01*
X145373000Y-89627000D01*
X145373000Y-92265000D01*
X145035750Y-92265000D01*
X144877000Y-92423750D01*
X144877000Y-93623000D01*
X144897000Y-93623000D01*
X144897000Y-93877000D01*
X144877000Y-93877000D01*
X144877000Y-95076250D01*
X145035750Y-95235000D01*
X145373000Y-95235000D01*
X145373000Y-100078248D01*
X145343204Y-100086408D01*
X143765200Y-100875410D01*
X143504418Y-100701161D01*
X143071256Y-100615000D01*
X142528744Y-100615000D01*
X142308592Y-100658791D01*
X142306458Y-100656656D01*
X142290904Y-100578463D01*
X142122929Y-100327071D01*
X142059473Y-100284671D01*
X137459802Y-95685001D01*
X138420152Y-95685001D01*
X138494999Y-95699889D01*
X138569846Y-95685001D01*
X138569851Y-95685001D01*
X138791536Y-95640905D01*
X139042928Y-95472930D01*
X139085330Y-95409471D01*
X139303592Y-95191209D01*
X139523744Y-95235000D01*
X139816256Y-95235000D01*
X140249418Y-95148839D01*
X140740625Y-94820625D01*
X140940000Y-94522239D01*
X141139375Y-94820625D01*
X141630582Y-95148839D01*
X142063744Y-95235000D01*
X142356256Y-95235000D01*
X142789418Y-95148839D01*
X143280625Y-94820625D01*
X143295096Y-94798967D01*
X143361673Y-94959698D01*
X143540301Y-95138327D01*
X143773690Y-95235000D01*
X144464250Y-95235000D01*
X144623000Y-95076250D01*
X144623000Y-93877000D01*
X144603000Y-93877000D01*
X144603000Y-93623000D01*
X144623000Y-93623000D01*
X144623000Y-92423750D01*
X144464250Y-92265000D01*
X143773690Y-92265000D01*
X143540301Y-92361673D01*
X143361673Y-92540302D01*
X143295096Y-92701033D01*
X143280625Y-92679375D01*
X142789418Y-92351161D01*
X142356256Y-92265000D01*
X142063744Y-92265000D01*
X141630582Y-92351161D01*
X141139375Y-92679375D01*
X140940000Y-92977761D01*
X140740625Y-92679375D01*
X140249418Y-92351161D01*
X139816256Y-92265000D01*
X139523744Y-92265000D01*
X139090582Y-92351161D01*
X138599375Y-92679375D01*
X138400000Y-92977761D01*
X138200625Y-92679375D01*
X137709418Y-92351161D01*
X137276256Y-92265000D01*
X136983744Y-92265000D01*
X136763593Y-92308791D01*
X134465323Y-90010521D01*
X134754595Y-89721249D01*
X134935000Y-89285711D01*
X134935000Y-88814289D01*
X134754595Y-88378751D01*
X134421249Y-88045405D01*
X133985711Y-87865000D01*
X133514289Y-87865000D01*
X133078751Y-88045405D01*
X132789479Y-88334677D01*
X131800331Y-87345530D01*
X131757929Y-87282071D01*
X131506537Y-87114096D01*
X131284852Y-87070000D01*
X131284847Y-87070000D01*
X131210000Y-87055112D01*
X131135153Y-87070000D01*
X127680505Y-87070000D01*
X127692440Y-87010000D01*
X127692440Y-86110000D01*
X127682711Y-86061087D01*
X127738447Y-86050000D01*
X127738452Y-86050000D01*
X127960137Y-86005904D01*
X128211529Y-85837929D01*
X128253931Y-85774470D01*
X128843202Y-85185200D01*
X129009274Y-85185200D01*
X129389680Y-85027631D01*
X129603022Y-84814289D01*
X132565000Y-84814289D01*
X132565000Y-85285711D01*
X132745405Y-85721249D01*
X133078751Y-86054595D01*
X133514289Y-86235000D01*
X133985711Y-86235000D01*
X134421249Y-86054595D01*
X134754595Y-85721249D01*
X134935000Y-85285711D01*
X134935000Y-84814289D01*
X134754595Y-84378751D01*
X134421249Y-84045405D01*
X133985711Y-83865000D01*
X133514289Y-83865000D01*
X133078751Y-84045405D01*
X132745405Y-84378751D01*
X132565000Y-84814289D01*
X129603022Y-84814289D01*
X129680831Y-84736480D01*
X129838400Y-84356074D01*
X129838400Y-83944326D01*
X129680831Y-83563920D01*
X129389680Y-83272769D01*
X129009274Y-83115200D01*
X128597526Y-83115200D01*
X128217120Y-83272769D01*
X127925969Y-83563920D01*
X127768400Y-83944326D01*
X127768400Y-84110398D01*
X127626524Y-84252274D01*
X127521250Y-84147000D01*
X126172000Y-84147000D01*
X126172000Y-84167000D01*
X125918000Y-84167000D01*
X125918000Y-84147000D01*
X124568750Y-84147000D01*
X124410000Y-84305750D01*
X124410000Y-84596310D01*
X124434343Y-84655079D01*
X124397560Y-84840000D01*
X124397560Y-85740000D01*
X124409495Y-85800000D01*
X123514848Y-85800000D01*
X123440000Y-85785112D01*
X123365152Y-85800000D01*
X123365148Y-85800000D01*
X123191605Y-85834520D01*
X123143462Y-85844096D01*
X122956418Y-85969076D01*
X122892071Y-86012071D01*
X122849671Y-86075527D01*
X122460198Y-86465000D01*
X122294126Y-86465000D01*
X121913720Y-86622569D01*
X121622569Y-86913720D01*
X121465000Y-87294126D01*
X121465000Y-87705874D01*
X121622569Y-88086280D01*
X121913720Y-88377431D01*
X122209628Y-88500000D01*
X121913720Y-88622569D01*
X121622569Y-88913720D01*
X121465000Y-89294126D01*
X121465000Y-89705874D01*
X121622569Y-90086280D01*
X121913720Y-90377431D01*
X122294126Y-90535000D01*
X122460198Y-90535000D01*
X122779671Y-90854473D01*
X122822071Y-90917929D01*
X122885527Y-90960329D01*
X123073462Y-91085904D01*
X123121605Y-91095480D01*
X123295148Y-91130000D01*
X123295152Y-91130000D01*
X123370000Y-91144888D01*
X123444848Y-91130000D01*
X124409495Y-91130000D01*
X124397560Y-91190000D01*
X124397560Y-92090000D01*
X124434358Y-92275000D01*
X124397560Y-92460000D01*
X124397560Y-93360000D01*
X124434358Y-93545000D01*
X124397560Y-93730000D01*
X124397560Y-94630000D01*
X124434358Y-94815000D01*
X124397560Y-95000000D01*
X124397560Y-95900000D01*
X124434358Y-96085000D01*
X124397560Y-96270000D01*
X124397560Y-97170000D01*
X124434358Y-97355000D01*
X124397560Y-97540000D01*
X124397560Y-98440000D01*
X124434358Y-98625000D01*
X124397560Y-98810000D01*
X124397560Y-99710000D01*
X124434358Y-99895000D01*
X124397560Y-100080000D01*
X124397560Y-100980000D01*
X124446843Y-101227765D01*
X124587191Y-101437809D01*
X124797235Y-101578157D01*
X125045000Y-101627440D01*
X127045000Y-101627440D01*
X127292765Y-101578157D01*
X127502809Y-101437809D01*
X127601573Y-101290000D01*
X127723399Y-101290000D01*
X135990000Y-109556602D01*
X135990001Y-119119440D01*
X135852235Y-119146843D01*
X135642191Y-119287191D01*
X135501843Y-119497235D01*
X135452560Y-119745000D01*
X135452560Y-121295000D01*
X135501843Y-121542765D01*
X135642191Y-121752809D01*
X135852235Y-121893157D01*
X135990000Y-121920560D01*
X135990001Y-127079440D01*
X135852235Y-127106843D01*
X135642191Y-127247191D01*
X135501843Y-127457235D01*
X135452560Y-127705000D01*
X135452560Y-129255000D01*
X135501843Y-129502765D01*
X135642191Y-129712809D01*
X135852235Y-129853157D01*
X136100000Y-129902440D01*
X137400000Y-129902440D01*
X137647765Y-129853157D01*
X137857809Y-129712809D01*
X137998157Y-129502765D01*
X138047440Y-129255000D01*
X138047440Y-127705000D01*
X137998157Y-127457235D01*
X137857809Y-127247191D01*
X137647765Y-127106843D01*
X137510000Y-127079440D01*
X137510000Y-121920560D01*
X137647765Y-121893157D01*
X137857809Y-121752809D01*
X137998157Y-121542765D01*
X138047440Y-121295000D01*
X138047440Y-119745000D01*
X137998157Y-119497235D01*
X137857809Y-119287191D01*
X137647765Y-119146843D01*
X137510000Y-119119440D01*
X137510000Y-110384802D01*
X140843543Y-113718346D01*
X140859096Y-113796537D01*
X141027071Y-114047929D01*
X141090529Y-114090330D01*
X141233791Y-114233592D01*
X141160908Y-114600000D01*
X141276161Y-115179418D01*
X141604375Y-115670625D01*
X141877687Y-115853246D01*
X141472503Y-116228807D01*
X141233524Y-116743110D01*
X141354845Y-116973000D01*
X142673000Y-116973000D01*
X142673000Y-116953000D01*
X142927000Y-116953000D01*
X142927000Y-116973000D01*
X142947000Y-116973000D01*
X142947000Y-117227000D01*
X142927000Y-117227000D01*
X142927000Y-117247000D01*
X142673000Y-117247000D01*
X142673000Y-117227000D01*
X141354845Y-117227000D01*
X141233524Y-117456890D01*
X141472503Y-117971193D01*
X141651471Y-118137077D01*
X141577235Y-118151843D01*
X141367191Y-118292191D01*
X141226843Y-118502235D01*
X141177560Y-118750000D01*
X141177560Y-120450000D01*
X141226843Y-120697765D01*
X141367191Y-120907809D01*
X141577235Y-121048157D01*
X141825000Y-121097440D01*
X143673000Y-121097440D01*
X143673000Y-124373000D01*
X142500000Y-124373000D01*
X142438739Y-124388752D01*
X142400830Y-124420664D01*
X140400830Y-126920664D01*
X140382667Y-126951399D01*
X140373000Y-127000000D01*
X140373000Y-131315000D01*
X105627000Y-131315000D01*
X105627000Y-129485750D01*
X118267500Y-129485750D01*
X118267500Y-130276310D01*
X118364173Y-130509699D01*
X118542802Y-130688327D01*
X118776191Y-130785000D01*
X119804250Y-130785000D01*
X119963000Y-130626250D01*
X119963000Y-129327000D01*
X120217000Y-129327000D01*
X120217000Y-130626250D01*
X120375750Y-130785000D01*
X121403809Y-130785000D01*
X121425000Y-130776222D01*
X121446191Y-130785000D01*
X121874250Y-130785000D01*
X122033000Y-130626250D01*
X122033000Y-129327000D01*
X122287000Y-129327000D01*
X122287000Y-130626250D01*
X122445750Y-130785000D01*
X122873809Y-130785000D01*
X123000000Y-130732730D01*
X123126191Y-130785000D01*
X123554250Y-130785000D01*
X123713000Y-130626250D01*
X123713000Y-129327000D01*
X123967000Y-129327000D01*
X123967000Y-130626250D01*
X124125750Y-130785000D01*
X124553809Y-130785000D01*
X124575000Y-130776222D01*
X124596191Y-130785000D01*
X125624250Y-130785000D01*
X125783000Y-130626250D01*
X125783000Y-129327000D01*
X126037000Y-129327000D01*
X126037000Y-130626250D01*
X126195750Y-130785000D01*
X127223809Y-130785000D01*
X127457198Y-130688327D01*
X127635827Y-130509699D01*
X127732500Y-130276310D01*
X127732500Y-129485750D01*
X127573750Y-129327000D01*
X126037000Y-129327000D01*
X125783000Y-129327000D01*
X123967000Y-129327000D01*
X123713000Y-129327000D01*
X122287000Y-129327000D01*
X122033000Y-129327000D01*
X120217000Y-129327000D01*
X119963000Y-129327000D01*
X118426250Y-129327000D01*
X118267500Y-129485750D01*
X105627000Y-129485750D01*
X105627000Y-128123690D01*
X118267500Y-128123690D01*
X118267500Y-128914250D01*
X118426250Y-129073000D01*
X119963000Y-129073000D01*
X119963000Y-129053000D01*
X120217000Y-129053000D01*
X120217000Y-129073000D01*
X122033000Y-129073000D01*
X122033000Y-129053000D01*
X122287000Y-129053000D01*
X122287000Y-129073000D01*
X123713000Y-129073000D01*
X123713000Y-129053000D01*
X123967000Y-129053000D01*
X123967000Y-129073000D01*
X125783000Y-129073000D01*
X125783000Y-129053000D01*
X126037000Y-129053000D01*
X126037000Y-129073000D01*
X127573750Y-129073000D01*
X127732500Y-128914250D01*
X127732500Y-128765750D01*
X130965000Y-128765750D01*
X130965000Y-129381309D01*
X131061673Y-129614698D01*
X131240301Y-129793327D01*
X131473690Y-129890000D01*
X131964250Y-129890000D01*
X132123000Y-129731250D01*
X132123000Y-128607000D01*
X132377000Y-128607000D01*
X132377000Y-129731250D01*
X132535750Y-129890000D01*
X133026310Y-129890000D01*
X133259699Y-129793327D01*
X133438327Y-129614698D01*
X133535000Y-129381309D01*
X133535000Y-128765750D01*
X133376250Y-128607000D01*
X132377000Y-128607000D01*
X132123000Y-128607000D01*
X131123750Y-128607000D01*
X130965000Y-128765750D01*
X127732500Y-128765750D01*
X127732500Y-128123690D01*
X127635827Y-127890301D01*
X127457198Y-127711673D01*
X127223809Y-127615000D01*
X126835000Y-127615000D01*
X126835000Y-127578691D01*
X130965000Y-127578691D01*
X130965000Y-128194250D01*
X131123750Y-128353000D01*
X132123000Y-128353000D01*
X132123000Y-127228750D01*
X132377000Y-127228750D01*
X132377000Y-128353000D01*
X133376250Y-128353000D01*
X133535000Y-128194250D01*
X133535000Y-127578691D01*
X133438327Y-127345302D01*
X133259699Y-127166673D01*
X133026310Y-127070000D01*
X132535750Y-127070000D01*
X132377000Y-127228750D01*
X132123000Y-127228750D01*
X131964250Y-127070000D01*
X131473690Y-127070000D01*
X131240301Y-127166673D01*
X131061673Y-127345302D01*
X130965000Y-127578691D01*
X126835000Y-127578691D01*
X126835000Y-127185750D01*
X126676250Y-127027000D01*
X125589500Y-127027000D01*
X125589500Y-127047000D01*
X125335500Y-127047000D01*
X125335500Y-127027000D01*
X125315500Y-127027000D01*
X125315500Y-126773000D01*
X125335500Y-126773000D01*
X125335500Y-126753000D01*
X125589500Y-126753000D01*
X125589500Y-126773000D01*
X126676250Y-126773000D01*
X126835000Y-126614250D01*
X126835000Y-125723690D01*
X126810483Y-125664500D01*
X127433153Y-125664500D01*
X127508000Y-125679388D01*
X127582847Y-125664500D01*
X127582852Y-125664500D01*
X127804537Y-125620404D01*
X128055929Y-125452429D01*
X128098331Y-125388970D01*
X129897302Y-123590000D01*
X130063374Y-123590000D01*
X130443780Y-123432431D01*
X130734931Y-123141280D01*
X130892500Y-122760874D01*
X130892500Y-122349126D01*
X130734931Y-121968720D01*
X130617500Y-121851289D01*
X130617500Y-120805750D01*
X130965000Y-120805750D01*
X130965000Y-121421309D01*
X131061673Y-121654698D01*
X131240301Y-121833327D01*
X131473690Y-121930000D01*
X131964250Y-121930000D01*
X132123000Y-121771250D01*
X132123000Y-120647000D01*
X132377000Y-120647000D01*
X132377000Y-121771250D01*
X132535750Y-121930000D01*
X133026310Y-121930000D01*
X133259699Y-121833327D01*
X133438327Y-121654698D01*
X133535000Y-121421309D01*
X133535000Y-120805750D01*
X133376250Y-120647000D01*
X132377000Y-120647000D01*
X132123000Y-120647000D01*
X131123750Y-120647000D01*
X130965000Y-120805750D01*
X130617500Y-120805750D01*
X130617500Y-119618691D01*
X130965000Y-119618691D01*
X130965000Y-120234250D01*
X131123750Y-120393000D01*
X132123000Y-120393000D01*
X132123000Y-119268750D01*
X132377000Y-119268750D01*
X132377000Y-120393000D01*
X133376250Y-120393000D01*
X133535000Y-120234250D01*
X133535000Y-119618691D01*
X133438327Y-119385302D01*
X133259699Y-119206673D01*
X133026310Y-119110000D01*
X132535750Y-119110000D01*
X132377000Y-119268750D01*
X132123000Y-119268750D01*
X131964250Y-119110000D01*
X131473690Y-119110000D01*
X131240301Y-119206673D01*
X131061673Y-119385302D01*
X130965000Y-119618691D01*
X130617500Y-119618691D01*
X130617500Y-113103286D01*
X130632388Y-113028439D01*
X130617500Y-112953592D01*
X130617500Y-112953588D01*
X130573404Y-112731903D01*
X130517294Y-112647929D01*
X130447829Y-112543966D01*
X130447827Y-112543964D01*
X130405429Y-112480511D01*
X130341976Y-112438113D01*
X128125047Y-110221186D01*
X128125047Y-109886047D01*
X128057685Y-109547395D01*
X127945172Y-109379007D01*
X128015934Y-109308245D01*
X128112607Y-109074856D01*
X128112607Y-108709297D01*
X127953857Y-108550547D01*
X127129607Y-108550547D01*
X127129607Y-108570547D01*
X126875607Y-108570547D01*
X126875607Y-108550547D01*
X126855607Y-108550547D01*
X126855607Y-108296547D01*
X126875607Y-108296547D01*
X126875607Y-107422297D01*
X127129607Y-107422297D01*
X127129607Y-108296547D01*
X127953857Y-108296547D01*
X128112607Y-108137797D01*
X128112607Y-107772238D01*
X128015934Y-107538849D01*
X127837306Y-107360220D01*
X127603917Y-107263547D01*
X127288357Y-107263547D01*
X127129607Y-107422297D01*
X126875607Y-107422297D01*
X126716857Y-107263547D01*
X126401297Y-107263547D01*
X126167908Y-107360220D01*
X125989280Y-107538849D01*
X125892607Y-107772238D01*
X125892607Y-108137797D01*
X126051355Y-108296545D01*
X125892607Y-108296545D01*
X125892607Y-108391047D01*
X124690047Y-108391047D01*
X124690047Y-108151047D01*
X124621733Y-107807612D01*
X124427193Y-107516461D01*
X124136042Y-107321921D01*
X123792607Y-107253607D01*
X123292607Y-107253607D01*
X122949172Y-107321921D01*
X122658021Y-107516461D01*
X122463481Y-107807612D01*
X122395167Y-108151047D01*
X122395167Y-110151047D01*
X122398449Y-110167547D01*
X121288357Y-110167547D01*
X121129607Y-110326297D01*
X121129607Y-114675547D01*
X124078857Y-114675547D01*
X124237607Y-114516797D01*
X124237607Y-110912310D01*
X124427193Y-110785633D01*
X124621733Y-110494482D01*
X124690047Y-110151047D01*
X124690047Y-109911047D01*
X125665306Y-109911047D01*
X125880167Y-110125909D01*
X125880167Y-110461047D01*
X125947529Y-110799699D01*
X126139360Y-111086794D01*
X126426455Y-111278625D01*
X126765107Y-111345987D01*
X127100246Y-111345987D01*
X129097501Y-113343244D01*
X129097500Y-121851289D01*
X128980069Y-121968720D01*
X128822500Y-122349126D01*
X128822500Y-122515198D01*
X127193199Y-124144500D01*
X122470348Y-124144500D01*
X122395500Y-124129612D01*
X122320652Y-124144500D01*
X122320648Y-124144500D01*
X122098963Y-124188596D01*
X121847571Y-124356571D01*
X121805171Y-124420027D01*
X121215528Y-125009671D01*
X121152072Y-125052071D01*
X121109672Y-125115527D01*
X121109671Y-125115528D01*
X121043206Y-125215000D01*
X120823250Y-125215000D01*
X120664500Y-125373750D01*
X120664500Y-126773000D01*
X120684500Y-126773000D01*
X120684500Y-127027000D01*
X120664500Y-127027000D01*
X120664500Y-127047000D01*
X120410500Y-127047000D01*
X120410500Y-127027000D01*
X119323750Y-127027000D01*
X119165000Y-127185750D01*
X119165000Y-127615000D01*
X118776191Y-127615000D01*
X118542802Y-127711673D01*
X118364173Y-127890301D01*
X118267500Y-128123690D01*
X105627000Y-128123690D01*
X105627000Y-127000000D01*
X105621982Y-126964654D01*
X105599170Y-126920664D01*
X104641591Y-125723690D01*
X119165000Y-125723690D01*
X119165000Y-126614250D01*
X119323750Y-126773000D01*
X120410500Y-126773000D01*
X120410500Y-125373750D01*
X120251750Y-125215000D01*
X119673691Y-125215000D01*
X119440302Y-125311673D01*
X119261673Y-125490301D01*
X119165000Y-125723690D01*
X104641591Y-125723690D01*
X103599170Y-124420664D01*
X103548601Y-124382667D01*
X103500000Y-124373000D01*
X98735000Y-124373000D01*
X98735000Y-99223691D01*
X101140000Y-99223691D01*
X101140000Y-99589250D01*
X101298750Y-99748000D01*
X102123000Y-99748000D01*
X102123000Y-98873750D01*
X101964250Y-98715000D01*
X101648690Y-98715000D01*
X101415301Y-98811673D01*
X101236673Y-98990302D01*
X101140000Y-99223691D01*
X98735000Y-99223691D01*
X98735000Y-96785750D01*
X101215000Y-96785750D01*
X101215000Y-97101310D01*
X101311673Y-97334699D01*
X101490302Y-97513327D01*
X101723691Y-97610000D01*
X102089250Y-97610000D01*
X102248000Y-97451250D01*
X102248000Y-96627000D01*
X101373750Y-96627000D01*
X101215000Y-96785750D01*
X98735000Y-96785750D01*
X98735000Y-95898690D01*
X101215000Y-95898690D01*
X101215000Y-96214250D01*
X101373750Y-96373000D01*
X102248000Y-96373000D01*
X102248000Y-95548750D01*
X102089250Y-95390000D01*
X101723691Y-95390000D01*
X101490302Y-95486673D01*
X101311673Y-95665301D01*
X101215000Y-95898690D01*
X98735000Y-95898690D01*
X98735000Y-92785750D01*
X101215000Y-92785750D01*
X101215000Y-93101310D01*
X101311673Y-93334699D01*
X101490302Y-93513327D01*
X101723691Y-93610000D01*
X102089250Y-93610000D01*
X102248000Y-93451250D01*
X102248000Y-92627000D01*
X101373750Y-92627000D01*
X101215000Y-92785750D01*
X98735000Y-92785750D01*
X98735000Y-91898690D01*
X101215000Y-91898690D01*
X101215000Y-92214250D01*
X101373750Y-92373000D01*
X102248000Y-92373000D01*
X102248000Y-91548750D01*
X102089250Y-91390000D01*
X101723691Y-91390000D01*
X101490302Y-91486673D01*
X101311673Y-91665301D01*
X101215000Y-91898690D01*
X98735000Y-91898690D01*
X98735000Y-89627000D01*
X102947394Y-89627000D01*
X103365001Y-90044607D01*
X103365000Y-91534356D01*
X103330460Y-91557435D01*
X103259698Y-91486673D01*
X103026309Y-91390000D01*
X102660750Y-91390000D01*
X102502000Y-91548750D01*
X102502000Y-92373000D01*
X102522000Y-92373000D01*
X102522000Y-92627000D01*
X102502000Y-92627000D01*
X102502000Y-93451250D01*
X102660750Y-93610000D01*
X103026309Y-93610000D01*
X103259698Y-93513327D01*
X103330460Y-93442565D01*
X103365000Y-93465644D01*
X103365001Y-95534356D01*
X103330460Y-95557435D01*
X103259698Y-95486673D01*
X103026309Y-95390000D01*
X102660750Y-95390000D01*
X102502000Y-95548750D01*
X102502000Y-96373000D01*
X102522000Y-96373000D01*
X102522000Y-96627000D01*
X102502000Y-96627000D01*
X102502000Y-97451250D01*
X102660750Y-97610000D01*
X103026309Y-97610000D01*
X103259698Y-97513327D01*
X103330460Y-97442565D01*
X103387572Y-97480726D01*
X103409097Y-97588937D01*
X103577072Y-97840329D01*
X103640528Y-97882729D01*
X103714600Y-97956801D01*
X103714600Y-98122874D01*
X103872169Y-98503280D01*
X104084544Y-98715655D01*
X103360000Y-99440199D01*
X103360000Y-99223691D01*
X103263327Y-98990302D01*
X103084699Y-98811673D01*
X102851310Y-98715000D01*
X102535750Y-98715000D01*
X102377000Y-98873750D01*
X102377000Y-99748000D01*
X102397000Y-99748000D01*
X102397000Y-100002000D01*
X102377000Y-100002000D01*
X102377000Y-100022000D01*
X102123000Y-100022000D01*
X102123000Y-100002000D01*
X101298750Y-100002000D01*
X101140000Y-100160750D01*
X101140000Y-100526309D01*
X101236673Y-100759698D01*
X101307435Y-100830460D01*
X101194922Y-100998848D01*
X101127560Y-101337500D01*
X101127560Y-101912500D01*
X101194922Y-102251152D01*
X101386753Y-102538247D01*
X101673848Y-102730078D01*
X102012500Y-102797440D01*
X102347639Y-102797440D01*
X103652560Y-104102362D01*
X103652560Y-105285138D01*
X102515530Y-106422169D01*
X102452071Y-106464571D01*
X102284096Y-106715964D01*
X102240000Y-106937649D01*
X102240000Y-106937653D01*
X102225112Y-107012500D01*
X102240000Y-107087347D01*
X102240000Y-107869440D01*
X102102235Y-107896843D01*
X101892191Y-108037191D01*
X101751843Y-108247235D01*
X101702560Y-108495000D01*
X101702560Y-110045000D01*
X101751843Y-110292765D01*
X101892191Y-110502809D01*
X102102235Y-110643157D01*
X102240000Y-110670560D01*
X102240001Y-115829440D01*
X102102235Y-115856843D01*
X101892191Y-115997191D01*
X101751843Y-116207235D01*
X101702560Y-116455000D01*
X101702560Y-118005000D01*
X101751843Y-118252765D01*
X101892191Y-118462809D01*
X102102235Y-118603157D01*
X102350000Y-118652440D01*
X103650000Y-118652440D01*
X103897765Y-118603157D01*
X104107809Y-118462809D01*
X104248157Y-118252765D01*
X104297440Y-118005000D01*
X104297440Y-117515750D01*
X106215000Y-117515750D01*
X106215000Y-118131309D01*
X106311673Y-118364698D01*
X106490301Y-118543327D01*
X106723690Y-118640000D01*
X107214250Y-118640000D01*
X107373000Y-118481250D01*
X107373000Y-117357000D01*
X107627000Y-117357000D01*
X107627000Y-118481250D01*
X107785750Y-118640000D01*
X108276310Y-118640000D01*
X108509699Y-118543327D01*
X108688327Y-118364698D01*
X108785000Y-118131309D01*
X108785000Y-117515750D01*
X108626250Y-117357000D01*
X107627000Y-117357000D01*
X107373000Y-117357000D01*
X106373750Y-117357000D01*
X106215000Y-117515750D01*
X104297440Y-117515750D01*
X104297440Y-116455000D01*
X104272316Y-116328691D01*
X106215000Y-116328691D01*
X106215000Y-116944250D01*
X106373750Y-117103000D01*
X107373000Y-117103000D01*
X107373000Y-115978750D01*
X107627000Y-115978750D01*
X107627000Y-117103000D01*
X108626250Y-117103000D01*
X108785000Y-116944250D01*
X108785000Y-116328691D01*
X108688327Y-116095302D01*
X108509699Y-115916673D01*
X108276310Y-115820000D01*
X107785750Y-115820000D01*
X107627000Y-115978750D01*
X107373000Y-115978750D01*
X107214250Y-115820000D01*
X106723690Y-115820000D01*
X106490301Y-115916673D01*
X106311673Y-116095302D01*
X106215000Y-116328691D01*
X104272316Y-116328691D01*
X104248157Y-116207235D01*
X104107809Y-115997191D01*
X103897765Y-115856843D01*
X103760000Y-115829440D01*
X103760000Y-115088297D01*
X117767607Y-115088297D01*
X117767607Y-118928857D01*
X117864280Y-119162246D01*
X118042909Y-119340874D01*
X118276298Y-119437547D01*
X120716857Y-119437547D01*
X120875607Y-119278797D01*
X120875607Y-114929547D01*
X121129607Y-114929547D01*
X121129607Y-119278797D01*
X121288357Y-119437547D01*
X123728916Y-119437547D01*
X123962305Y-119340874D01*
X124140934Y-119162246D01*
X124237607Y-118928857D01*
X124237607Y-115088297D01*
X124078857Y-114929547D01*
X121129607Y-114929547D01*
X120875607Y-114929547D01*
X117926357Y-114929547D01*
X117767607Y-115088297D01*
X103760000Y-115088297D01*
X103760000Y-110670560D01*
X103897765Y-110643157D01*
X104107809Y-110502809D01*
X104248157Y-110292765D01*
X104297440Y-110045000D01*
X104297440Y-109555750D01*
X106215000Y-109555750D01*
X106215000Y-110171309D01*
X106311673Y-110404698D01*
X106490301Y-110583327D01*
X106723690Y-110680000D01*
X107214250Y-110680000D01*
X107373000Y-110521250D01*
X107373000Y-109397000D01*
X107627000Y-109397000D01*
X107627000Y-110521250D01*
X107785750Y-110680000D01*
X108276310Y-110680000D01*
X108509699Y-110583327D01*
X108688327Y-110404698D01*
X108785000Y-110171309D01*
X108785000Y-109555750D01*
X108626250Y-109397000D01*
X107627000Y-109397000D01*
X107373000Y-109397000D01*
X106373750Y-109397000D01*
X106215000Y-109555750D01*
X104297440Y-109555750D01*
X104297440Y-108495000D01*
X104272316Y-108368691D01*
X106215000Y-108368691D01*
X106215000Y-108984250D01*
X106373750Y-109143000D01*
X107373000Y-109143000D01*
X107373000Y-108018750D01*
X107627000Y-108018750D01*
X107627000Y-109143000D01*
X108626250Y-109143000D01*
X108785000Y-108984250D01*
X108785000Y-108368691D01*
X108688327Y-108135302D01*
X108509699Y-107956673D01*
X108276310Y-107860000D01*
X107785750Y-107860000D01*
X107627000Y-108018750D01*
X107373000Y-108018750D01*
X107214250Y-107860000D01*
X106723690Y-107860000D01*
X106490301Y-107956673D01*
X106311673Y-108135302D01*
X106215000Y-108368691D01*
X104272316Y-108368691D01*
X104248157Y-108247235D01*
X104107809Y-108037191D01*
X103897765Y-107896843D01*
X103760000Y-107869440D01*
X103760000Y-107327301D01*
X104192544Y-106894757D01*
X104206565Y-106904126D01*
X104550000Y-106972440D01*
X105475000Y-106972440D01*
X105818435Y-106904126D01*
X106109586Y-106709586D01*
X106304126Y-106418435D01*
X106372440Y-106075000D01*
X106372440Y-104459742D01*
X106627560Y-104714862D01*
X106627560Y-106075000D01*
X106695874Y-106418435D01*
X106890414Y-106709586D01*
X107181565Y-106904126D01*
X107525000Y-106972440D01*
X108450000Y-106972440D01*
X108793435Y-106904126D01*
X108807456Y-106894758D01*
X112570720Y-110658023D01*
X112613118Y-110721476D01*
X112676571Y-110763874D01*
X112676573Y-110763876D01*
X112730860Y-110800149D01*
X112864510Y-110889451D01*
X113086195Y-110933547D01*
X113086199Y-110933547D01*
X113161046Y-110948435D01*
X113235893Y-110933547D01*
X113786963Y-110933547D01*
X113889360Y-111086794D01*
X114176455Y-111278625D01*
X114515107Y-111345987D01*
X114990107Y-111345987D01*
X115328759Y-111278625D01*
X115615854Y-111086794D01*
X115718251Y-110933547D01*
X117365260Y-110933547D01*
X117440107Y-110948435D01*
X117514954Y-110933547D01*
X117514959Y-110933547D01*
X117734141Y-110889949D01*
X117767607Y-110912310D01*
X117767607Y-114516797D01*
X117926357Y-114675547D01*
X120875607Y-114675547D01*
X120875607Y-110326297D01*
X120716857Y-110167547D01*
X119606765Y-110167547D01*
X119610047Y-110151047D01*
X119610047Y-108151047D01*
X119541733Y-107807612D01*
X119347193Y-107516461D01*
X119056042Y-107321921D01*
X118712607Y-107253607D01*
X118212607Y-107253607D01*
X117869172Y-107321921D01*
X117578021Y-107516461D01*
X117383481Y-107807612D01*
X117315167Y-108151047D01*
X117315167Y-109223685D01*
X117125306Y-109413547D01*
X115718251Y-109413547D01*
X115695172Y-109379007D01*
X115765934Y-109308245D01*
X115862607Y-109074856D01*
X115862607Y-108709297D01*
X115703857Y-108550547D01*
X114879607Y-108550547D01*
X114879607Y-108570547D01*
X114625607Y-108570547D01*
X114625607Y-108550547D01*
X113801357Y-108550547D01*
X113642607Y-108709297D01*
X113642607Y-109074856D01*
X113739280Y-109308245D01*
X113810042Y-109379007D01*
X113786963Y-109413547D01*
X113475850Y-109413547D01*
X111834541Y-107772238D01*
X113642607Y-107772238D01*
X113642607Y-108137797D01*
X113801357Y-108296547D01*
X114625607Y-108296547D01*
X114625607Y-107422297D01*
X114879607Y-107422297D01*
X114879607Y-108296547D01*
X115703857Y-108296547D01*
X115862607Y-108137797D01*
X115862607Y-107772238D01*
X115765934Y-107538849D01*
X115587306Y-107360220D01*
X115353917Y-107263547D01*
X115038357Y-107263547D01*
X114879607Y-107422297D01*
X114625607Y-107422297D01*
X114466857Y-107263547D01*
X114151297Y-107263547D01*
X113917908Y-107360220D01*
X113739280Y-107538849D01*
X113642607Y-107772238D01*
X111834541Y-107772238D01*
X109347440Y-105285139D01*
X109347440Y-103925000D01*
X109279126Y-103581565D01*
X109084586Y-103290414D01*
X108793435Y-103095874D01*
X108450000Y-103027560D01*
X107525000Y-103027560D01*
X107181565Y-103095874D01*
X107167544Y-103105242D01*
X106297000Y-102234699D01*
X106297000Y-101835750D01*
X110760000Y-101835750D01*
X110760000Y-102676309D01*
X110856673Y-102909698D01*
X111035301Y-103088327D01*
X111268690Y-103185000D01*
X111559250Y-103185000D01*
X111718000Y-103026250D01*
X111718000Y-101677000D01*
X110918750Y-101677000D01*
X110760000Y-101835750D01*
X106297000Y-101835750D01*
X106297000Y-100779711D01*
X106414431Y-100662280D01*
X106572000Y-100281874D01*
X106572000Y-99870126D01*
X106414431Y-99489720D01*
X106123280Y-99198569D01*
X105860203Y-99089599D01*
X107347560Y-97602242D01*
X107347560Y-98440000D01*
X107384358Y-98625000D01*
X107347560Y-98810000D01*
X107347560Y-99710000D01*
X107384358Y-99895000D01*
X107347560Y-100080000D01*
X107347560Y-100980000D01*
X107396843Y-101227765D01*
X107537191Y-101437809D01*
X107747235Y-101578157D01*
X107995000Y-101627440D01*
X109995000Y-101627440D01*
X110242765Y-101578157D01*
X110452809Y-101437809D01*
X110593157Y-101227765D01*
X110642440Y-100980000D01*
X110642440Y-100423691D01*
X110760000Y-100423691D01*
X110760000Y-101264250D01*
X110918750Y-101423000D01*
X111718000Y-101423000D01*
X111718000Y-100073750D01*
X111972000Y-100073750D01*
X111972000Y-101423000D01*
X111992000Y-101423000D01*
X111992000Y-101677000D01*
X111972000Y-101677000D01*
X111972000Y-103026250D01*
X112130750Y-103185000D01*
X112421310Y-103185000D01*
X112476834Y-103162001D01*
X112655000Y-103197440D01*
X113555000Y-103197440D01*
X113740000Y-103160642D01*
X113925000Y-103197440D01*
X114825000Y-103197440D01*
X115010000Y-103160642D01*
X115195000Y-103197440D01*
X116095000Y-103197440D01*
X116280000Y-103160642D01*
X116465000Y-103197440D01*
X117365000Y-103197440D01*
X117550000Y-103160642D01*
X117735000Y-103197440D01*
X118635000Y-103197440D01*
X118815000Y-103161636D01*
X118995000Y-103197440D01*
X119895000Y-103197440D01*
X120085000Y-103159647D01*
X120275000Y-103197440D01*
X121175000Y-103197440D01*
X121360000Y-103160642D01*
X121545000Y-103197440D01*
X122445000Y-103197440D01*
X122630000Y-103160642D01*
X122815000Y-103197440D01*
X123715000Y-103197440D01*
X123962765Y-103148157D01*
X124172809Y-103007809D01*
X124313157Y-102797765D01*
X124362440Y-102550000D01*
X124362440Y-100550000D01*
X124313157Y-100302235D01*
X124172809Y-100092191D01*
X123962765Y-99951843D01*
X123715000Y-99902560D01*
X122815000Y-99902560D01*
X122630000Y-99939358D01*
X122445000Y-99902560D01*
X121545000Y-99902560D01*
X121360000Y-99939358D01*
X121175000Y-99902560D01*
X120275000Y-99902560D01*
X120085000Y-99940353D01*
X119895000Y-99902560D01*
X118995000Y-99902560D01*
X118815000Y-99938364D01*
X118635000Y-99902560D01*
X117735000Y-99902560D01*
X117550000Y-99939358D01*
X117365000Y-99902560D01*
X116465000Y-99902560D01*
X116280000Y-99939358D01*
X116095000Y-99902560D01*
X115195000Y-99902560D01*
X115010000Y-99939358D01*
X114825000Y-99902560D01*
X113925000Y-99902560D01*
X113740000Y-99939358D01*
X113555000Y-99902560D01*
X112655000Y-99902560D01*
X112476834Y-99937999D01*
X112421310Y-99915000D01*
X112130750Y-99915000D01*
X111972000Y-100073750D01*
X111718000Y-100073750D01*
X111559250Y-99915000D01*
X111268690Y-99915000D01*
X111035301Y-100011673D01*
X110856673Y-100190302D01*
X110760000Y-100423691D01*
X110642440Y-100423691D01*
X110642440Y-100080000D01*
X110605642Y-99895000D01*
X110642440Y-99710000D01*
X110642440Y-98810000D01*
X110605642Y-98625000D01*
X110642440Y-98440000D01*
X110642440Y-97540000D01*
X110605642Y-97355000D01*
X110642440Y-97170000D01*
X110642440Y-96270000D01*
X110605642Y-96085000D01*
X110642440Y-95900000D01*
X110642440Y-95000000D01*
X110605642Y-94815000D01*
X110642440Y-94630000D01*
X110642440Y-93730000D01*
X110605642Y-93545000D01*
X110642440Y-93360000D01*
X110642440Y-92460000D01*
X110605642Y-92275000D01*
X110642440Y-92090000D01*
X110642440Y-91835750D01*
X113415000Y-91835750D01*
X113415000Y-94176310D01*
X113511673Y-94409699D01*
X113690302Y-94588327D01*
X113923691Y-94685000D01*
X116264250Y-94685000D01*
X116423000Y-94526250D01*
X116423000Y-91677000D01*
X116677000Y-91677000D01*
X116677000Y-94526250D01*
X116835750Y-94685000D01*
X119176309Y-94685000D01*
X119409698Y-94588327D01*
X119588327Y-94409699D01*
X119685000Y-94176310D01*
X119685000Y-91835750D01*
X119526250Y-91677000D01*
X116677000Y-91677000D01*
X116423000Y-91677000D01*
X113573750Y-91677000D01*
X113415000Y-91835750D01*
X110642440Y-91835750D01*
X110642440Y-91190000D01*
X110605642Y-91005000D01*
X110642440Y-90820000D01*
X110642440Y-89920000D01*
X110605642Y-89735000D01*
X110642440Y-89550000D01*
X110642440Y-88923690D01*
X113415000Y-88923690D01*
X113415000Y-91264250D01*
X113573750Y-91423000D01*
X116423000Y-91423000D01*
X116423000Y-88573750D01*
X116677000Y-88573750D01*
X116677000Y-91423000D01*
X119526250Y-91423000D01*
X119685000Y-91264250D01*
X119685000Y-88923690D01*
X119588327Y-88690301D01*
X119409698Y-88511673D01*
X119176309Y-88415000D01*
X116835750Y-88415000D01*
X116677000Y-88573750D01*
X116423000Y-88573750D01*
X116264250Y-88415000D01*
X113923691Y-88415000D01*
X113690302Y-88511673D01*
X113511673Y-88690301D01*
X113415000Y-88923690D01*
X110642440Y-88923690D01*
X110642440Y-88650000D01*
X110605642Y-88465000D01*
X110642440Y-88280000D01*
X110642440Y-87380000D01*
X110605642Y-87195000D01*
X110642440Y-87010000D01*
X110642440Y-86110000D01*
X110605642Y-85925000D01*
X110642440Y-85740000D01*
X110642440Y-84840000D01*
X110605657Y-84655079D01*
X110630000Y-84596310D01*
X110630000Y-84305750D01*
X110471250Y-84147000D01*
X109122000Y-84147000D01*
X109122000Y-84167000D01*
X108868000Y-84167000D01*
X108868000Y-84147000D01*
X108848000Y-84147000D01*
X108848000Y-83893000D01*
X108868000Y-83893000D01*
X108868000Y-83873000D01*
X109122000Y-83873000D01*
X109122000Y-83893000D01*
X110471250Y-83893000D01*
X110630000Y-83734250D01*
X110630000Y-83443690D01*
X124410000Y-83443690D01*
X124410000Y-83734250D01*
X124568750Y-83893000D01*
X125918000Y-83893000D01*
X125918000Y-83093750D01*
X126172000Y-83093750D01*
X126172000Y-83893000D01*
X127521250Y-83893000D01*
X127680000Y-83734250D01*
X127680000Y-83443690D01*
X127583327Y-83210301D01*
X127404698Y-83031673D01*
X127171309Y-82935000D01*
X126330750Y-82935000D01*
X126172000Y-83093750D01*
X125918000Y-83093750D01*
X125759250Y-82935000D01*
X124918691Y-82935000D01*
X124685302Y-83031673D01*
X124506673Y-83210301D01*
X124410000Y-83443690D01*
X110630000Y-83443690D01*
X110627000Y-83436447D01*
X110627000Y-82685000D01*
X140373000Y-82685000D01*
X140373000Y-87500000D01*
X140373000Y-87500000D01*
G37*
X140373000Y-87500000D02*
X140388752Y-87561261D01*
X140420664Y-87599170D01*
X142920664Y-89599170D01*
X142951399Y-89617333D01*
X143000000Y-89627000D01*
X145373000Y-89627000D01*
X145373000Y-92265000D01*
X145035750Y-92265000D01*
X144877000Y-92423750D01*
X144877000Y-93623000D01*
X144897000Y-93623000D01*
X144897000Y-93877000D01*
X144877000Y-93877000D01*
X144877000Y-95076250D01*
X145035750Y-95235000D01*
X145373000Y-95235000D01*
X145373000Y-100078248D01*
X145343204Y-100086408D01*
X143765200Y-100875410D01*
X143504418Y-100701161D01*
X143071256Y-100615000D01*
X142528744Y-100615000D01*
X142308592Y-100658791D01*
X142306458Y-100656656D01*
X142290904Y-100578463D01*
X142122929Y-100327071D01*
X142059473Y-100284671D01*
X137459802Y-95685001D01*
X138420152Y-95685001D01*
X138494999Y-95699889D01*
X138569846Y-95685001D01*
X138569851Y-95685001D01*
X138791536Y-95640905D01*
X139042928Y-95472930D01*
X139085330Y-95409471D01*
X139303592Y-95191209D01*
X139523744Y-95235000D01*
X139816256Y-95235000D01*
X140249418Y-95148839D01*
X140740625Y-94820625D01*
X140940000Y-94522239D01*
X141139375Y-94820625D01*
X141630582Y-95148839D01*
X142063744Y-95235000D01*
X142356256Y-95235000D01*
X142789418Y-95148839D01*
X143280625Y-94820625D01*
X143295096Y-94798967D01*
X143361673Y-94959698D01*
X143540301Y-95138327D01*
X143773690Y-95235000D01*
X144464250Y-95235000D01*
X144623000Y-95076250D01*
X144623000Y-93877000D01*
X144603000Y-93877000D01*
X144603000Y-93623000D01*
X144623000Y-93623000D01*
X144623000Y-92423750D01*
X144464250Y-92265000D01*
X143773690Y-92265000D01*
X143540301Y-92361673D01*
X143361673Y-92540302D01*
X143295096Y-92701033D01*
X143280625Y-92679375D01*
X142789418Y-92351161D01*
X142356256Y-92265000D01*
X142063744Y-92265000D01*
X141630582Y-92351161D01*
X141139375Y-92679375D01*
X140940000Y-92977761D01*
X140740625Y-92679375D01*
X140249418Y-92351161D01*
X139816256Y-92265000D01*
X139523744Y-92265000D01*
X139090582Y-92351161D01*
X138599375Y-92679375D01*
X138400000Y-92977761D01*
X138200625Y-92679375D01*
X137709418Y-92351161D01*
X137276256Y-92265000D01*
X136983744Y-92265000D01*
X136763593Y-92308791D01*
X134465323Y-90010521D01*
X134754595Y-89721249D01*
X134935000Y-89285711D01*
X134935000Y-88814289D01*
X134754595Y-88378751D01*
X134421249Y-88045405D01*
X133985711Y-87865000D01*
X133514289Y-87865000D01*
X133078751Y-88045405D01*
X132789479Y-88334677D01*
X131800331Y-87345530D01*
X131757929Y-87282071D01*
X131506537Y-87114096D01*
X131284852Y-87070000D01*
X131284847Y-87070000D01*
X131210000Y-87055112D01*
X131135153Y-87070000D01*
X127680505Y-87070000D01*
X127692440Y-87010000D01*
X127692440Y-86110000D01*
X127682711Y-86061087D01*
X127738447Y-86050000D01*
X127738452Y-86050000D01*
X127960137Y-86005904D01*
X128211529Y-85837929D01*
X128253931Y-85774470D01*
X128843202Y-85185200D01*
X129009274Y-85185200D01*
X129389680Y-85027631D01*
X129603022Y-84814289D01*
X132565000Y-84814289D01*
X132565000Y-85285711D01*
X132745405Y-85721249D01*
X133078751Y-86054595D01*
X133514289Y-86235000D01*
X133985711Y-86235000D01*
X134421249Y-86054595D01*
X134754595Y-85721249D01*
X134935000Y-85285711D01*
X134935000Y-84814289D01*
X134754595Y-84378751D01*
X134421249Y-84045405D01*
X133985711Y-83865000D01*
X133514289Y-83865000D01*
X133078751Y-84045405D01*
X132745405Y-84378751D01*
X132565000Y-84814289D01*
X129603022Y-84814289D01*
X129680831Y-84736480D01*
X129838400Y-84356074D01*
X129838400Y-83944326D01*
X129680831Y-83563920D01*
X129389680Y-83272769D01*
X129009274Y-83115200D01*
X128597526Y-83115200D01*
X128217120Y-83272769D01*
X127925969Y-83563920D01*
X127768400Y-83944326D01*
X127768400Y-84110398D01*
X127626524Y-84252274D01*
X127521250Y-84147000D01*
X126172000Y-84147000D01*
X126172000Y-84167000D01*
X125918000Y-84167000D01*
X125918000Y-84147000D01*
X124568750Y-84147000D01*
X124410000Y-84305750D01*
X124410000Y-84596310D01*
X124434343Y-84655079D01*
X124397560Y-84840000D01*
X124397560Y-85740000D01*
X124409495Y-85800000D01*
X123514848Y-85800000D01*
X123440000Y-85785112D01*
X123365152Y-85800000D01*
X123365148Y-85800000D01*
X123191605Y-85834520D01*
X123143462Y-85844096D01*
X122956418Y-85969076D01*
X122892071Y-86012071D01*
X122849671Y-86075527D01*
X122460198Y-86465000D01*
X122294126Y-86465000D01*
X121913720Y-86622569D01*
X121622569Y-86913720D01*
X121465000Y-87294126D01*
X121465000Y-87705874D01*
X121622569Y-88086280D01*
X121913720Y-88377431D01*
X122209628Y-88500000D01*
X121913720Y-88622569D01*
X121622569Y-88913720D01*
X121465000Y-89294126D01*
X121465000Y-89705874D01*
X121622569Y-90086280D01*
X121913720Y-90377431D01*
X122294126Y-90535000D01*
X122460198Y-90535000D01*
X122779671Y-90854473D01*
X122822071Y-90917929D01*
X122885527Y-90960329D01*
X123073462Y-91085904D01*
X123121605Y-91095480D01*
X123295148Y-91130000D01*
X123295152Y-91130000D01*
X123370000Y-91144888D01*
X123444848Y-91130000D01*
X124409495Y-91130000D01*
X124397560Y-91190000D01*
X124397560Y-92090000D01*
X124434358Y-92275000D01*
X124397560Y-92460000D01*
X124397560Y-93360000D01*
X124434358Y-93545000D01*
X124397560Y-93730000D01*
X124397560Y-94630000D01*
X124434358Y-94815000D01*
X124397560Y-95000000D01*
X124397560Y-95900000D01*
X124434358Y-96085000D01*
X124397560Y-96270000D01*
X124397560Y-97170000D01*
X124434358Y-97355000D01*
X124397560Y-97540000D01*
X124397560Y-98440000D01*
X124434358Y-98625000D01*
X124397560Y-98810000D01*
X124397560Y-99710000D01*
X124434358Y-99895000D01*
X124397560Y-100080000D01*
X124397560Y-100980000D01*
X124446843Y-101227765D01*
X124587191Y-101437809D01*
X124797235Y-101578157D01*
X125045000Y-101627440D01*
X127045000Y-101627440D01*
X127292765Y-101578157D01*
X127502809Y-101437809D01*
X127601573Y-101290000D01*
X127723399Y-101290000D01*
X135990000Y-109556602D01*
X135990001Y-119119440D01*
X135852235Y-119146843D01*
X135642191Y-119287191D01*
X135501843Y-119497235D01*
X135452560Y-119745000D01*
X135452560Y-121295000D01*
X135501843Y-121542765D01*
X135642191Y-121752809D01*
X135852235Y-121893157D01*
X135990000Y-121920560D01*
X135990001Y-127079440D01*
X135852235Y-127106843D01*
X135642191Y-127247191D01*
X135501843Y-127457235D01*
X135452560Y-127705000D01*
X135452560Y-129255000D01*
X135501843Y-129502765D01*
X135642191Y-129712809D01*
X135852235Y-129853157D01*
X136100000Y-129902440D01*
X137400000Y-129902440D01*
X137647765Y-129853157D01*
X137857809Y-129712809D01*
X137998157Y-129502765D01*
X138047440Y-129255000D01*
X138047440Y-127705000D01*
X137998157Y-127457235D01*
X137857809Y-127247191D01*
X137647765Y-127106843D01*
X137510000Y-127079440D01*
X137510000Y-121920560D01*
X137647765Y-121893157D01*
X137857809Y-121752809D01*
X137998157Y-121542765D01*
X138047440Y-121295000D01*
X138047440Y-119745000D01*
X137998157Y-119497235D01*
X137857809Y-119287191D01*
X137647765Y-119146843D01*
X137510000Y-119119440D01*
X137510000Y-110384802D01*
X140843543Y-113718346D01*
X140859096Y-113796537D01*
X141027071Y-114047929D01*
X141090529Y-114090330D01*
X141233791Y-114233592D01*
X141160908Y-114600000D01*
X141276161Y-115179418D01*
X141604375Y-115670625D01*
X141877687Y-115853246D01*
X141472503Y-116228807D01*
X141233524Y-116743110D01*
X141354845Y-116973000D01*
X142673000Y-116973000D01*
X142673000Y-116953000D01*
X142927000Y-116953000D01*
X142927000Y-116973000D01*
X142947000Y-116973000D01*
X142947000Y-117227000D01*
X142927000Y-117227000D01*
X142927000Y-117247000D01*
X142673000Y-117247000D01*
X142673000Y-117227000D01*
X141354845Y-117227000D01*
X141233524Y-117456890D01*
X141472503Y-117971193D01*
X141651471Y-118137077D01*
X141577235Y-118151843D01*
X141367191Y-118292191D01*
X141226843Y-118502235D01*
X141177560Y-118750000D01*
X141177560Y-120450000D01*
X141226843Y-120697765D01*
X141367191Y-120907809D01*
X141577235Y-121048157D01*
X141825000Y-121097440D01*
X143673000Y-121097440D01*
X143673000Y-124373000D01*
X142500000Y-124373000D01*
X142438739Y-124388752D01*
X142400830Y-124420664D01*
X140400830Y-126920664D01*
X140382667Y-126951399D01*
X140373000Y-127000000D01*
X140373000Y-131315000D01*
X105627000Y-131315000D01*
X105627000Y-129485750D01*
X118267500Y-129485750D01*
X118267500Y-130276310D01*
X118364173Y-130509699D01*
X118542802Y-130688327D01*
X118776191Y-130785000D01*
X119804250Y-130785000D01*
X119963000Y-130626250D01*
X119963000Y-129327000D01*
X120217000Y-129327000D01*
X120217000Y-130626250D01*
X120375750Y-130785000D01*
X121403809Y-130785000D01*
X121425000Y-130776222D01*
X121446191Y-130785000D01*
X121874250Y-130785000D01*
X122033000Y-130626250D01*
X122033000Y-129327000D01*
X122287000Y-129327000D01*
X122287000Y-130626250D01*
X122445750Y-130785000D01*
X122873809Y-130785000D01*
X123000000Y-130732730D01*
X123126191Y-130785000D01*
X123554250Y-130785000D01*
X123713000Y-130626250D01*
X123713000Y-129327000D01*
X123967000Y-129327000D01*
X123967000Y-130626250D01*
X124125750Y-130785000D01*
X124553809Y-130785000D01*
X124575000Y-130776222D01*
X124596191Y-130785000D01*
X125624250Y-130785000D01*
X125783000Y-130626250D01*
X125783000Y-129327000D01*
X126037000Y-129327000D01*
X126037000Y-130626250D01*
X126195750Y-130785000D01*
X127223809Y-130785000D01*
X127457198Y-130688327D01*
X127635827Y-130509699D01*
X127732500Y-130276310D01*
X127732500Y-129485750D01*
X127573750Y-129327000D01*
X126037000Y-129327000D01*
X125783000Y-129327000D01*
X123967000Y-129327000D01*
X123713000Y-129327000D01*
X122287000Y-129327000D01*
X122033000Y-129327000D01*
X120217000Y-129327000D01*
X119963000Y-129327000D01*
X118426250Y-129327000D01*
X118267500Y-129485750D01*
X105627000Y-129485750D01*
X105627000Y-128123690D01*
X118267500Y-128123690D01*
X118267500Y-128914250D01*
X118426250Y-129073000D01*
X119963000Y-129073000D01*
X119963000Y-129053000D01*
X120217000Y-129053000D01*
X120217000Y-129073000D01*
X122033000Y-129073000D01*
X122033000Y-129053000D01*
X122287000Y-129053000D01*
X122287000Y-129073000D01*
X123713000Y-129073000D01*
X123713000Y-129053000D01*
X123967000Y-129053000D01*
X123967000Y-129073000D01*
X125783000Y-129073000D01*
X125783000Y-129053000D01*
X126037000Y-129053000D01*
X126037000Y-129073000D01*
X127573750Y-129073000D01*
X127732500Y-128914250D01*
X127732500Y-128765750D01*
X130965000Y-128765750D01*
X130965000Y-129381309D01*
X131061673Y-129614698D01*
X131240301Y-129793327D01*
X131473690Y-129890000D01*
X131964250Y-129890000D01*
X132123000Y-129731250D01*
X132123000Y-128607000D01*
X132377000Y-128607000D01*
X132377000Y-129731250D01*
X132535750Y-129890000D01*
X133026310Y-129890000D01*
X133259699Y-129793327D01*
X133438327Y-129614698D01*
X133535000Y-129381309D01*
X133535000Y-128765750D01*
X133376250Y-128607000D01*
X132377000Y-128607000D01*
X132123000Y-128607000D01*
X131123750Y-128607000D01*
X130965000Y-128765750D01*
X127732500Y-128765750D01*
X127732500Y-128123690D01*
X127635827Y-127890301D01*
X127457198Y-127711673D01*
X127223809Y-127615000D01*
X126835000Y-127615000D01*
X126835000Y-127578691D01*
X130965000Y-127578691D01*
X130965000Y-128194250D01*
X131123750Y-128353000D01*
X132123000Y-128353000D01*
X132123000Y-127228750D01*
X132377000Y-127228750D01*
X132377000Y-128353000D01*
X133376250Y-128353000D01*
X133535000Y-128194250D01*
X133535000Y-127578691D01*
X133438327Y-127345302D01*
X133259699Y-127166673D01*
X133026310Y-127070000D01*
X132535750Y-127070000D01*
X132377000Y-127228750D01*
X132123000Y-127228750D01*
X131964250Y-127070000D01*
X131473690Y-127070000D01*
X131240301Y-127166673D01*
X131061673Y-127345302D01*
X130965000Y-127578691D01*
X126835000Y-127578691D01*
X126835000Y-127185750D01*
X126676250Y-127027000D01*
X125589500Y-127027000D01*
X125589500Y-127047000D01*
X125335500Y-127047000D01*
X125335500Y-127027000D01*
X125315500Y-127027000D01*
X125315500Y-126773000D01*
X125335500Y-126773000D01*
X125335500Y-126753000D01*
X125589500Y-126753000D01*
X125589500Y-126773000D01*
X126676250Y-126773000D01*
X126835000Y-126614250D01*
X126835000Y-125723690D01*
X126810483Y-125664500D01*
X127433153Y-125664500D01*
X127508000Y-125679388D01*
X127582847Y-125664500D01*
X127582852Y-125664500D01*
X127804537Y-125620404D01*
X128055929Y-125452429D01*
X128098331Y-125388970D01*
X129897302Y-123590000D01*
X130063374Y-123590000D01*
X130443780Y-123432431D01*
X130734931Y-123141280D01*
X130892500Y-122760874D01*
X130892500Y-122349126D01*
X130734931Y-121968720D01*
X130617500Y-121851289D01*
X130617500Y-120805750D01*
X130965000Y-120805750D01*
X130965000Y-121421309D01*
X131061673Y-121654698D01*
X131240301Y-121833327D01*
X131473690Y-121930000D01*
X131964250Y-121930000D01*
X132123000Y-121771250D01*
X132123000Y-120647000D01*
X132377000Y-120647000D01*
X132377000Y-121771250D01*
X132535750Y-121930000D01*
X133026310Y-121930000D01*
X133259699Y-121833327D01*
X133438327Y-121654698D01*
X133535000Y-121421309D01*
X133535000Y-120805750D01*
X133376250Y-120647000D01*
X132377000Y-120647000D01*
X132123000Y-120647000D01*
X131123750Y-120647000D01*
X130965000Y-120805750D01*
X130617500Y-120805750D01*
X130617500Y-119618691D01*
X130965000Y-119618691D01*
X130965000Y-120234250D01*
X131123750Y-120393000D01*
X132123000Y-120393000D01*
X132123000Y-119268750D01*
X132377000Y-119268750D01*
X132377000Y-120393000D01*
X133376250Y-120393000D01*
X133535000Y-120234250D01*
X133535000Y-119618691D01*
X133438327Y-119385302D01*
X133259699Y-119206673D01*
X133026310Y-119110000D01*
X132535750Y-119110000D01*
X132377000Y-119268750D01*
X132123000Y-119268750D01*
X131964250Y-119110000D01*
X131473690Y-119110000D01*
X131240301Y-119206673D01*
X131061673Y-119385302D01*
X130965000Y-119618691D01*
X130617500Y-119618691D01*
X130617500Y-113103286D01*
X130632388Y-113028439D01*
X130617500Y-112953592D01*
X130617500Y-112953588D01*
X130573404Y-112731903D01*
X130517294Y-112647929D01*
X130447829Y-112543966D01*
X130447827Y-112543964D01*
X130405429Y-112480511D01*
X130341976Y-112438113D01*
X128125047Y-110221186D01*
X128125047Y-109886047D01*
X128057685Y-109547395D01*
X127945172Y-109379007D01*
X128015934Y-109308245D01*
X128112607Y-109074856D01*
X128112607Y-108709297D01*
X127953857Y-108550547D01*
X127129607Y-108550547D01*
X127129607Y-108570547D01*
X126875607Y-108570547D01*
X126875607Y-108550547D01*
X126855607Y-108550547D01*
X126855607Y-108296547D01*
X126875607Y-108296547D01*
X126875607Y-107422297D01*
X127129607Y-107422297D01*
X127129607Y-108296547D01*
X127953857Y-108296547D01*
X128112607Y-108137797D01*
X128112607Y-107772238D01*
X128015934Y-107538849D01*
X127837306Y-107360220D01*
X127603917Y-107263547D01*
X127288357Y-107263547D01*
X127129607Y-107422297D01*
X126875607Y-107422297D01*
X126716857Y-107263547D01*
X126401297Y-107263547D01*
X126167908Y-107360220D01*
X125989280Y-107538849D01*
X125892607Y-107772238D01*
X125892607Y-108137797D01*
X126051355Y-108296545D01*
X125892607Y-108296545D01*
X125892607Y-108391047D01*
X124690047Y-108391047D01*
X124690047Y-108151047D01*
X124621733Y-107807612D01*
X124427193Y-107516461D01*
X124136042Y-107321921D01*
X123792607Y-107253607D01*
X123292607Y-107253607D01*
X122949172Y-107321921D01*
X122658021Y-107516461D01*
X122463481Y-107807612D01*
X122395167Y-108151047D01*
X122395167Y-110151047D01*
X122398449Y-110167547D01*
X121288357Y-110167547D01*
X121129607Y-110326297D01*
X121129607Y-114675547D01*
X124078857Y-114675547D01*
X124237607Y-114516797D01*
X124237607Y-110912310D01*
X124427193Y-110785633D01*
X124621733Y-110494482D01*
X124690047Y-110151047D01*
X124690047Y-109911047D01*
X125665306Y-109911047D01*
X125880167Y-110125909D01*
X125880167Y-110461047D01*
X125947529Y-110799699D01*
X126139360Y-111086794D01*
X126426455Y-111278625D01*
X126765107Y-111345987D01*
X127100246Y-111345987D01*
X129097501Y-113343244D01*
X129097500Y-121851289D01*
X128980069Y-121968720D01*
X128822500Y-122349126D01*
X128822500Y-122515198D01*
X127193199Y-124144500D01*
X122470348Y-124144500D01*
X122395500Y-124129612D01*
X122320652Y-124144500D01*
X122320648Y-124144500D01*
X122098963Y-124188596D01*
X121847571Y-124356571D01*
X121805171Y-124420027D01*
X121215528Y-125009671D01*
X121152072Y-125052071D01*
X121109672Y-125115527D01*
X121109671Y-125115528D01*
X121043206Y-125215000D01*
X120823250Y-125215000D01*
X120664500Y-125373750D01*
X120664500Y-126773000D01*
X120684500Y-126773000D01*
X120684500Y-127027000D01*
X120664500Y-127027000D01*
X120664500Y-127047000D01*
X120410500Y-127047000D01*
X120410500Y-127027000D01*
X119323750Y-127027000D01*
X119165000Y-127185750D01*
X119165000Y-127615000D01*
X118776191Y-127615000D01*
X118542802Y-127711673D01*
X118364173Y-127890301D01*
X118267500Y-128123690D01*
X105627000Y-128123690D01*
X105627000Y-127000000D01*
X105621982Y-126964654D01*
X105599170Y-126920664D01*
X104641591Y-125723690D01*
X119165000Y-125723690D01*
X119165000Y-126614250D01*
X119323750Y-126773000D01*
X120410500Y-126773000D01*
X120410500Y-125373750D01*
X120251750Y-125215000D01*
X119673691Y-125215000D01*
X119440302Y-125311673D01*
X119261673Y-125490301D01*
X119165000Y-125723690D01*
X104641591Y-125723690D01*
X103599170Y-124420664D01*
X103548601Y-124382667D01*
X103500000Y-124373000D01*
X98735000Y-124373000D01*
X98735000Y-99223691D01*
X101140000Y-99223691D01*
X101140000Y-99589250D01*
X101298750Y-99748000D01*
X102123000Y-99748000D01*
X102123000Y-98873750D01*
X101964250Y-98715000D01*
X101648690Y-98715000D01*
X101415301Y-98811673D01*
X101236673Y-98990302D01*
X101140000Y-99223691D01*
X98735000Y-99223691D01*
X98735000Y-96785750D01*
X101215000Y-96785750D01*
X101215000Y-97101310D01*
X101311673Y-97334699D01*
X101490302Y-97513327D01*
X101723691Y-97610000D01*
X102089250Y-97610000D01*
X102248000Y-97451250D01*
X102248000Y-96627000D01*
X101373750Y-96627000D01*
X101215000Y-96785750D01*
X98735000Y-96785750D01*
X98735000Y-95898690D01*
X101215000Y-95898690D01*
X101215000Y-96214250D01*
X101373750Y-96373000D01*
X102248000Y-96373000D01*
X102248000Y-95548750D01*
X102089250Y-95390000D01*
X101723691Y-95390000D01*
X101490302Y-95486673D01*
X101311673Y-95665301D01*
X101215000Y-95898690D01*
X98735000Y-95898690D01*
X98735000Y-92785750D01*
X101215000Y-92785750D01*
X101215000Y-93101310D01*
X101311673Y-93334699D01*
X101490302Y-93513327D01*
X101723691Y-93610000D01*
X102089250Y-93610000D01*
X102248000Y-93451250D01*
X102248000Y-92627000D01*
X101373750Y-92627000D01*
X101215000Y-92785750D01*
X98735000Y-92785750D01*
X98735000Y-91898690D01*
X101215000Y-91898690D01*
X101215000Y-92214250D01*
X101373750Y-92373000D01*
X102248000Y-92373000D01*
X102248000Y-91548750D01*
X102089250Y-91390000D01*
X101723691Y-91390000D01*
X101490302Y-91486673D01*
X101311673Y-91665301D01*
X101215000Y-91898690D01*
X98735000Y-91898690D01*
X98735000Y-89627000D01*
X102947394Y-89627000D01*
X103365001Y-90044607D01*
X103365000Y-91534356D01*
X103330460Y-91557435D01*
X103259698Y-91486673D01*
X103026309Y-91390000D01*
X102660750Y-91390000D01*
X102502000Y-91548750D01*
X102502000Y-92373000D01*
X102522000Y-92373000D01*
X102522000Y-92627000D01*
X102502000Y-92627000D01*
X102502000Y-93451250D01*
X102660750Y-93610000D01*
X103026309Y-93610000D01*
X103259698Y-93513327D01*
X103330460Y-93442565D01*
X103365000Y-93465644D01*
X103365001Y-95534356D01*
X103330460Y-95557435D01*
X103259698Y-95486673D01*
X103026309Y-95390000D01*
X102660750Y-95390000D01*
X102502000Y-95548750D01*
X102502000Y-96373000D01*
X102522000Y-96373000D01*
X102522000Y-96627000D01*
X102502000Y-96627000D01*
X102502000Y-97451250D01*
X102660750Y-97610000D01*
X103026309Y-97610000D01*
X103259698Y-97513327D01*
X103330460Y-97442565D01*
X103387572Y-97480726D01*
X103409097Y-97588937D01*
X103577072Y-97840329D01*
X103640528Y-97882729D01*
X103714600Y-97956801D01*
X103714600Y-98122874D01*
X103872169Y-98503280D01*
X104084544Y-98715655D01*
X103360000Y-99440199D01*
X103360000Y-99223691D01*
X103263327Y-98990302D01*
X103084699Y-98811673D01*
X102851310Y-98715000D01*
X102535750Y-98715000D01*
X102377000Y-98873750D01*
X102377000Y-99748000D01*
X102397000Y-99748000D01*
X102397000Y-100002000D01*
X102377000Y-100002000D01*
X102377000Y-100022000D01*
X102123000Y-100022000D01*
X102123000Y-100002000D01*
X101298750Y-100002000D01*
X101140000Y-100160750D01*
X101140000Y-100526309D01*
X101236673Y-100759698D01*
X101307435Y-100830460D01*
X101194922Y-100998848D01*
X101127560Y-101337500D01*
X101127560Y-101912500D01*
X101194922Y-102251152D01*
X101386753Y-102538247D01*
X101673848Y-102730078D01*
X102012500Y-102797440D01*
X102347639Y-102797440D01*
X103652560Y-104102362D01*
X103652560Y-105285138D01*
X102515530Y-106422169D01*
X102452071Y-106464571D01*
X102284096Y-106715964D01*
X102240000Y-106937649D01*
X102240000Y-106937653D01*
X102225112Y-107012500D01*
X102240000Y-107087347D01*
X102240000Y-107869440D01*
X102102235Y-107896843D01*
X101892191Y-108037191D01*
X101751843Y-108247235D01*
X101702560Y-108495000D01*
X101702560Y-110045000D01*
X101751843Y-110292765D01*
X101892191Y-110502809D01*
X102102235Y-110643157D01*
X102240000Y-110670560D01*
X102240001Y-115829440D01*
X102102235Y-115856843D01*
X101892191Y-115997191D01*
X101751843Y-116207235D01*
X101702560Y-116455000D01*
X101702560Y-118005000D01*
X101751843Y-118252765D01*
X101892191Y-118462809D01*
X102102235Y-118603157D01*
X102350000Y-118652440D01*
X103650000Y-118652440D01*
X103897765Y-118603157D01*
X104107809Y-118462809D01*
X104248157Y-118252765D01*
X104297440Y-118005000D01*
X104297440Y-117515750D01*
X106215000Y-117515750D01*
X106215000Y-118131309D01*
X106311673Y-118364698D01*
X106490301Y-118543327D01*
X106723690Y-118640000D01*
X107214250Y-118640000D01*
X107373000Y-118481250D01*
X107373000Y-117357000D01*
X107627000Y-117357000D01*
X107627000Y-118481250D01*
X107785750Y-118640000D01*
X108276310Y-118640000D01*
X108509699Y-118543327D01*
X108688327Y-118364698D01*
X108785000Y-118131309D01*
X108785000Y-117515750D01*
X108626250Y-117357000D01*
X107627000Y-117357000D01*
X107373000Y-117357000D01*
X106373750Y-117357000D01*
X106215000Y-117515750D01*
X104297440Y-117515750D01*
X104297440Y-116455000D01*
X104272316Y-116328691D01*
X106215000Y-116328691D01*
X106215000Y-116944250D01*
X106373750Y-117103000D01*
X107373000Y-117103000D01*
X107373000Y-115978750D01*
X107627000Y-115978750D01*
X107627000Y-117103000D01*
X108626250Y-117103000D01*
X108785000Y-116944250D01*
X108785000Y-116328691D01*
X108688327Y-116095302D01*
X108509699Y-115916673D01*
X108276310Y-115820000D01*
X107785750Y-115820000D01*
X107627000Y-115978750D01*
X107373000Y-115978750D01*
X107214250Y-115820000D01*
X106723690Y-115820000D01*
X106490301Y-115916673D01*
X106311673Y-116095302D01*
X106215000Y-116328691D01*
X104272316Y-116328691D01*
X104248157Y-116207235D01*
X104107809Y-115997191D01*
X103897765Y-115856843D01*
X103760000Y-115829440D01*
X103760000Y-115088297D01*
X117767607Y-115088297D01*
X117767607Y-118928857D01*
X117864280Y-119162246D01*
X118042909Y-119340874D01*
X118276298Y-119437547D01*
X120716857Y-119437547D01*
X120875607Y-119278797D01*
X120875607Y-114929547D01*
X121129607Y-114929547D01*
X121129607Y-119278797D01*
X121288357Y-119437547D01*
X123728916Y-119437547D01*
X123962305Y-119340874D01*
X124140934Y-119162246D01*
X124237607Y-118928857D01*
X124237607Y-115088297D01*
X124078857Y-114929547D01*
X121129607Y-114929547D01*
X120875607Y-114929547D01*
X117926357Y-114929547D01*
X117767607Y-115088297D01*
X103760000Y-115088297D01*
X103760000Y-110670560D01*
X103897765Y-110643157D01*
X104107809Y-110502809D01*
X104248157Y-110292765D01*
X104297440Y-110045000D01*
X104297440Y-109555750D01*
X106215000Y-109555750D01*
X106215000Y-110171309D01*
X106311673Y-110404698D01*
X106490301Y-110583327D01*
X106723690Y-110680000D01*
X107214250Y-110680000D01*
X107373000Y-110521250D01*
X107373000Y-109397000D01*
X107627000Y-109397000D01*
X107627000Y-110521250D01*
X107785750Y-110680000D01*
X108276310Y-110680000D01*
X108509699Y-110583327D01*
X108688327Y-110404698D01*
X108785000Y-110171309D01*
X108785000Y-109555750D01*
X108626250Y-109397000D01*
X107627000Y-109397000D01*
X107373000Y-109397000D01*
X106373750Y-109397000D01*
X106215000Y-109555750D01*
X104297440Y-109555750D01*
X104297440Y-108495000D01*
X104272316Y-108368691D01*
X106215000Y-108368691D01*
X106215000Y-108984250D01*
X106373750Y-109143000D01*
X107373000Y-109143000D01*
X107373000Y-108018750D01*
X107627000Y-108018750D01*
X107627000Y-109143000D01*
X108626250Y-109143000D01*
X108785000Y-108984250D01*
X108785000Y-108368691D01*
X108688327Y-108135302D01*
X108509699Y-107956673D01*
X108276310Y-107860000D01*
X107785750Y-107860000D01*
X107627000Y-108018750D01*
X107373000Y-108018750D01*
X107214250Y-107860000D01*
X106723690Y-107860000D01*
X106490301Y-107956673D01*
X106311673Y-108135302D01*
X106215000Y-108368691D01*
X104272316Y-108368691D01*
X104248157Y-108247235D01*
X104107809Y-108037191D01*
X103897765Y-107896843D01*
X103760000Y-107869440D01*
X103760000Y-107327301D01*
X104192544Y-106894757D01*
X104206565Y-106904126D01*
X104550000Y-106972440D01*
X105475000Y-106972440D01*
X105818435Y-106904126D01*
X106109586Y-106709586D01*
X106304126Y-106418435D01*
X106372440Y-106075000D01*
X106372440Y-104459742D01*
X106627560Y-104714862D01*
X106627560Y-106075000D01*
X106695874Y-106418435D01*
X106890414Y-106709586D01*
X107181565Y-106904126D01*
X107525000Y-106972440D01*
X108450000Y-106972440D01*
X108793435Y-106904126D01*
X108807456Y-106894758D01*
X112570720Y-110658023D01*
X112613118Y-110721476D01*
X112676571Y-110763874D01*
X112676573Y-110763876D01*
X112730860Y-110800149D01*
X112864510Y-110889451D01*
X113086195Y-110933547D01*
X113086199Y-110933547D01*
X113161046Y-110948435D01*
X113235893Y-110933547D01*
X113786963Y-110933547D01*
X113889360Y-111086794D01*
X114176455Y-111278625D01*
X114515107Y-111345987D01*
X114990107Y-111345987D01*
X115328759Y-111278625D01*
X115615854Y-111086794D01*
X115718251Y-110933547D01*
X117365260Y-110933547D01*
X117440107Y-110948435D01*
X117514954Y-110933547D01*
X117514959Y-110933547D01*
X117734141Y-110889949D01*
X117767607Y-110912310D01*
X117767607Y-114516797D01*
X117926357Y-114675547D01*
X120875607Y-114675547D01*
X120875607Y-110326297D01*
X120716857Y-110167547D01*
X119606765Y-110167547D01*
X119610047Y-110151047D01*
X119610047Y-108151047D01*
X119541733Y-107807612D01*
X119347193Y-107516461D01*
X119056042Y-107321921D01*
X118712607Y-107253607D01*
X118212607Y-107253607D01*
X117869172Y-107321921D01*
X117578021Y-107516461D01*
X117383481Y-107807612D01*
X117315167Y-108151047D01*
X117315167Y-109223685D01*
X117125306Y-109413547D01*
X115718251Y-109413547D01*
X115695172Y-109379007D01*
X115765934Y-109308245D01*
X115862607Y-109074856D01*
X115862607Y-108709297D01*
X115703857Y-108550547D01*
X114879607Y-108550547D01*
X114879607Y-108570547D01*
X114625607Y-108570547D01*
X114625607Y-108550547D01*
X113801357Y-108550547D01*
X113642607Y-108709297D01*
X113642607Y-109074856D01*
X113739280Y-109308245D01*
X113810042Y-109379007D01*
X113786963Y-109413547D01*
X113475850Y-109413547D01*
X111834541Y-107772238D01*
X113642607Y-107772238D01*
X113642607Y-108137797D01*
X113801357Y-108296547D01*
X114625607Y-108296547D01*
X114625607Y-107422297D01*
X114879607Y-107422297D01*
X114879607Y-108296547D01*
X115703857Y-108296547D01*
X115862607Y-108137797D01*
X115862607Y-107772238D01*
X115765934Y-107538849D01*
X115587306Y-107360220D01*
X115353917Y-107263547D01*
X115038357Y-107263547D01*
X114879607Y-107422297D01*
X114625607Y-107422297D01*
X114466857Y-107263547D01*
X114151297Y-107263547D01*
X113917908Y-107360220D01*
X113739280Y-107538849D01*
X113642607Y-107772238D01*
X111834541Y-107772238D01*
X109347440Y-105285139D01*
X109347440Y-103925000D01*
X109279126Y-103581565D01*
X109084586Y-103290414D01*
X108793435Y-103095874D01*
X108450000Y-103027560D01*
X107525000Y-103027560D01*
X107181565Y-103095874D01*
X107167544Y-103105242D01*
X106297000Y-102234699D01*
X106297000Y-101835750D01*
X110760000Y-101835750D01*
X110760000Y-102676309D01*
X110856673Y-102909698D01*
X111035301Y-103088327D01*
X111268690Y-103185000D01*
X111559250Y-103185000D01*
X111718000Y-103026250D01*
X111718000Y-101677000D01*
X110918750Y-101677000D01*
X110760000Y-101835750D01*
X106297000Y-101835750D01*
X106297000Y-100779711D01*
X106414431Y-100662280D01*
X106572000Y-100281874D01*
X106572000Y-99870126D01*
X106414431Y-99489720D01*
X106123280Y-99198569D01*
X105860203Y-99089599D01*
X107347560Y-97602242D01*
X107347560Y-98440000D01*
X107384358Y-98625000D01*
X107347560Y-98810000D01*
X107347560Y-99710000D01*
X107384358Y-99895000D01*
X107347560Y-100080000D01*
X107347560Y-100980000D01*
X107396843Y-101227765D01*
X107537191Y-101437809D01*
X107747235Y-101578157D01*
X107995000Y-101627440D01*
X109995000Y-101627440D01*
X110242765Y-101578157D01*
X110452809Y-101437809D01*
X110593157Y-101227765D01*
X110642440Y-100980000D01*
X110642440Y-100423691D01*
X110760000Y-100423691D01*
X110760000Y-101264250D01*
X110918750Y-101423000D01*
X111718000Y-101423000D01*
X111718000Y-100073750D01*
X111972000Y-100073750D01*
X111972000Y-101423000D01*
X111992000Y-101423000D01*
X111992000Y-101677000D01*
X111972000Y-101677000D01*
X111972000Y-103026250D01*
X112130750Y-103185000D01*
X112421310Y-103185000D01*
X112476834Y-103162001D01*
X112655000Y-103197440D01*
X113555000Y-103197440D01*
X113740000Y-103160642D01*
X113925000Y-103197440D01*
X114825000Y-103197440D01*
X115010000Y-103160642D01*
X115195000Y-103197440D01*
X116095000Y-103197440D01*
X116280000Y-103160642D01*
X116465000Y-103197440D01*
X117365000Y-103197440D01*
X117550000Y-103160642D01*
X117735000Y-103197440D01*
X118635000Y-103197440D01*
X118815000Y-103161636D01*
X118995000Y-103197440D01*
X119895000Y-103197440D01*
X120085000Y-103159647D01*
X120275000Y-103197440D01*
X121175000Y-103197440D01*
X121360000Y-103160642D01*
X121545000Y-103197440D01*
X122445000Y-103197440D01*
X122630000Y-103160642D01*
X122815000Y-103197440D01*
X123715000Y-103197440D01*
X123962765Y-103148157D01*
X124172809Y-103007809D01*
X124313157Y-102797765D01*
X124362440Y-102550000D01*
X124362440Y-100550000D01*
X124313157Y-100302235D01*
X124172809Y-100092191D01*
X123962765Y-99951843D01*
X123715000Y-99902560D01*
X122815000Y-99902560D01*
X122630000Y-99939358D01*
X122445000Y-99902560D01*
X121545000Y-99902560D01*
X121360000Y-99939358D01*
X121175000Y-99902560D01*
X120275000Y-99902560D01*
X120085000Y-99940353D01*
X119895000Y-99902560D01*
X118995000Y-99902560D01*
X118815000Y-99938364D01*
X118635000Y-99902560D01*
X117735000Y-99902560D01*
X117550000Y-99939358D01*
X117365000Y-99902560D01*
X116465000Y-99902560D01*
X116280000Y-99939358D01*
X116095000Y-99902560D01*
X115195000Y-99902560D01*
X115010000Y-99939358D01*
X114825000Y-99902560D01*
X113925000Y-99902560D01*
X113740000Y-99939358D01*
X113555000Y-99902560D01*
X112655000Y-99902560D01*
X112476834Y-99937999D01*
X112421310Y-99915000D01*
X112130750Y-99915000D01*
X111972000Y-100073750D01*
X111718000Y-100073750D01*
X111559250Y-99915000D01*
X111268690Y-99915000D01*
X111035301Y-100011673D01*
X110856673Y-100190302D01*
X110760000Y-100423691D01*
X110642440Y-100423691D01*
X110642440Y-100080000D01*
X110605642Y-99895000D01*
X110642440Y-99710000D01*
X110642440Y-98810000D01*
X110605642Y-98625000D01*
X110642440Y-98440000D01*
X110642440Y-97540000D01*
X110605642Y-97355000D01*
X110642440Y-97170000D01*
X110642440Y-96270000D01*
X110605642Y-96085000D01*
X110642440Y-95900000D01*
X110642440Y-95000000D01*
X110605642Y-94815000D01*
X110642440Y-94630000D01*
X110642440Y-93730000D01*
X110605642Y-93545000D01*
X110642440Y-93360000D01*
X110642440Y-92460000D01*
X110605642Y-92275000D01*
X110642440Y-92090000D01*
X110642440Y-91835750D01*
X113415000Y-91835750D01*
X113415000Y-94176310D01*
X113511673Y-94409699D01*
X113690302Y-94588327D01*
X113923691Y-94685000D01*
X116264250Y-94685000D01*
X116423000Y-94526250D01*
X116423000Y-91677000D01*
X116677000Y-91677000D01*
X116677000Y-94526250D01*
X116835750Y-94685000D01*
X119176309Y-94685000D01*
X119409698Y-94588327D01*
X119588327Y-94409699D01*
X119685000Y-94176310D01*
X119685000Y-91835750D01*
X119526250Y-91677000D01*
X116677000Y-91677000D01*
X116423000Y-91677000D01*
X113573750Y-91677000D01*
X113415000Y-91835750D01*
X110642440Y-91835750D01*
X110642440Y-91190000D01*
X110605642Y-91005000D01*
X110642440Y-90820000D01*
X110642440Y-89920000D01*
X110605642Y-89735000D01*
X110642440Y-89550000D01*
X110642440Y-88923690D01*
X113415000Y-88923690D01*
X113415000Y-91264250D01*
X113573750Y-91423000D01*
X116423000Y-91423000D01*
X116423000Y-88573750D01*
X116677000Y-88573750D01*
X116677000Y-91423000D01*
X119526250Y-91423000D01*
X119685000Y-91264250D01*
X119685000Y-88923690D01*
X119588327Y-88690301D01*
X119409698Y-88511673D01*
X119176309Y-88415000D01*
X116835750Y-88415000D01*
X116677000Y-88573750D01*
X116423000Y-88573750D01*
X116264250Y-88415000D01*
X113923691Y-88415000D01*
X113690302Y-88511673D01*
X113511673Y-88690301D01*
X113415000Y-88923690D01*
X110642440Y-88923690D01*
X110642440Y-88650000D01*
X110605642Y-88465000D01*
X110642440Y-88280000D01*
X110642440Y-87380000D01*
X110605642Y-87195000D01*
X110642440Y-87010000D01*
X110642440Y-86110000D01*
X110605642Y-85925000D01*
X110642440Y-85740000D01*
X110642440Y-84840000D01*
X110605657Y-84655079D01*
X110630000Y-84596310D01*
X110630000Y-84305750D01*
X110471250Y-84147000D01*
X109122000Y-84147000D01*
X109122000Y-84167000D01*
X108868000Y-84167000D01*
X108868000Y-84147000D01*
X108848000Y-84147000D01*
X108848000Y-83893000D01*
X108868000Y-83893000D01*
X108868000Y-83873000D01*
X109122000Y-83873000D01*
X109122000Y-83893000D01*
X110471250Y-83893000D01*
X110630000Y-83734250D01*
X110630000Y-83443690D01*
X124410000Y-83443690D01*
X124410000Y-83734250D01*
X124568750Y-83893000D01*
X125918000Y-83893000D01*
X125918000Y-83093750D01*
X126172000Y-83093750D01*
X126172000Y-83893000D01*
X127521250Y-83893000D01*
X127680000Y-83734250D01*
X127680000Y-83443690D01*
X127583327Y-83210301D01*
X127404698Y-83031673D01*
X127171309Y-82935000D01*
X126330750Y-82935000D01*
X126172000Y-83093750D01*
X125918000Y-83093750D01*
X125759250Y-82935000D01*
X124918691Y-82935000D01*
X124685302Y-83031673D01*
X124506673Y-83210301D01*
X124410000Y-83443690D01*
X110630000Y-83443690D01*
X110627000Y-83436447D01*
X110627000Y-82685000D01*
X140373000Y-82685000D01*
X140373000Y-87500000D01*
G04 #@! TD*
M02*
