G04 #@! TF.GenerationSoftware,KiCad,Pcbnew,(5.0.0)*
G04 #@! TF.CreationDate,2019-09-16T11:16:57+09:00*
G04 #@! TF.ProjectId,ESP32,45535033322E6B696361645F70636200,rev?*
G04 #@! TF.SameCoordinates,Original*
G04 #@! TF.FileFunction,Paste,Bot*
G04 #@! TF.FilePolarity,Positive*
%FSLAX46Y46*%
G04 Gerber Fmt 4.6, Leading zero omitted, Abs format (unit mm)*
G04 Created by KiCad (PCBNEW (5.0.0)) date 09/16/19 11:16:57*
%MOMM*%
%LPD*%
G01*
G04 APERTURE LIST*
%ADD10R,1.800000X1.600000*%
%ADD11C,0.100000*%
%ADD12C,1.000000*%
G04 APERTURE END LIST*
D10*
G04 #@! TO.C,SW3*
X128350000Y-86250000D03*
X139200000Y-86250000D03*
D11*
G36*
X131624504Y-90051204D02*
X131648773Y-90054804D01*
X131672571Y-90060765D01*
X131695671Y-90069030D01*
X131717849Y-90079520D01*
X131738893Y-90092133D01*
X131758598Y-90106747D01*
X131776777Y-90123223D01*
X131793253Y-90141402D01*
X131807867Y-90161107D01*
X131820480Y-90182151D01*
X131830970Y-90204329D01*
X131839235Y-90227429D01*
X131845196Y-90251227D01*
X131848796Y-90275496D01*
X131850000Y-90300000D01*
X131850000Y-91400000D01*
X131848796Y-91424504D01*
X131845196Y-91448773D01*
X131839235Y-91472571D01*
X131830970Y-91495671D01*
X131820480Y-91517849D01*
X131807867Y-91538893D01*
X131793253Y-91558598D01*
X131776777Y-91576777D01*
X131758598Y-91593253D01*
X131738893Y-91607867D01*
X131717849Y-91620480D01*
X131695671Y-91630970D01*
X131672571Y-91639235D01*
X131648773Y-91645196D01*
X131624504Y-91648796D01*
X131600000Y-91650000D01*
X131100000Y-91650000D01*
X131075496Y-91648796D01*
X131051227Y-91645196D01*
X131027429Y-91639235D01*
X131004329Y-91630970D01*
X130982151Y-91620480D01*
X130961107Y-91607867D01*
X130941402Y-91593253D01*
X130923223Y-91576777D01*
X130906747Y-91558598D01*
X130892133Y-91538893D01*
X130879520Y-91517849D01*
X130869030Y-91495671D01*
X130860765Y-91472571D01*
X130854804Y-91448773D01*
X130851204Y-91424504D01*
X130850000Y-91400000D01*
X130850000Y-90300000D01*
X130851204Y-90275496D01*
X130854804Y-90251227D01*
X130860765Y-90227429D01*
X130869030Y-90204329D01*
X130879520Y-90182151D01*
X130892133Y-90161107D01*
X130906747Y-90141402D01*
X130923223Y-90123223D01*
X130941402Y-90106747D01*
X130961107Y-90092133D01*
X130982151Y-90079520D01*
X131004329Y-90069030D01*
X131027429Y-90060765D01*
X131051227Y-90054804D01*
X131075496Y-90051204D01*
X131100000Y-90050000D01*
X131600000Y-90050000D01*
X131624504Y-90051204D01*
X131624504Y-90051204D01*
G37*
D12*
X131350000Y-90850000D03*
D11*
G36*
X134824504Y-90051204D02*
X134848773Y-90054804D01*
X134872571Y-90060765D01*
X134895671Y-90069030D01*
X134917849Y-90079520D01*
X134938893Y-90092133D01*
X134958598Y-90106747D01*
X134976777Y-90123223D01*
X134993253Y-90141402D01*
X135007867Y-90161107D01*
X135020480Y-90182151D01*
X135030970Y-90204329D01*
X135039235Y-90227429D01*
X135045196Y-90251227D01*
X135048796Y-90275496D01*
X135050000Y-90300000D01*
X135050000Y-91400000D01*
X135048796Y-91424504D01*
X135045196Y-91448773D01*
X135039235Y-91472571D01*
X135030970Y-91495671D01*
X135020480Y-91517849D01*
X135007867Y-91538893D01*
X134993253Y-91558598D01*
X134976777Y-91576777D01*
X134958598Y-91593253D01*
X134938893Y-91607867D01*
X134917849Y-91620480D01*
X134895671Y-91630970D01*
X134872571Y-91639235D01*
X134848773Y-91645196D01*
X134824504Y-91648796D01*
X134800000Y-91650000D01*
X134300000Y-91650000D01*
X134275496Y-91648796D01*
X134251227Y-91645196D01*
X134227429Y-91639235D01*
X134204329Y-91630970D01*
X134182151Y-91620480D01*
X134161107Y-91607867D01*
X134141402Y-91593253D01*
X134123223Y-91576777D01*
X134106747Y-91558598D01*
X134092133Y-91538893D01*
X134079520Y-91517849D01*
X134069030Y-91495671D01*
X134060765Y-91472571D01*
X134054804Y-91448773D01*
X134051204Y-91424504D01*
X134050000Y-91400000D01*
X134050000Y-90300000D01*
X134051204Y-90275496D01*
X134054804Y-90251227D01*
X134060765Y-90227429D01*
X134069030Y-90204329D01*
X134079520Y-90182151D01*
X134092133Y-90161107D01*
X134106747Y-90141402D01*
X134123223Y-90123223D01*
X134141402Y-90106747D01*
X134161107Y-90092133D01*
X134182151Y-90079520D01*
X134204329Y-90069030D01*
X134227429Y-90060765D01*
X134251227Y-90054804D01*
X134275496Y-90051204D01*
X134300000Y-90050000D01*
X134800000Y-90050000D01*
X134824504Y-90051204D01*
X134824504Y-90051204D01*
G37*
D12*
X134550000Y-90850000D03*
D11*
G36*
X130024504Y-90051204D02*
X130048773Y-90054804D01*
X130072571Y-90060765D01*
X130095671Y-90069030D01*
X130117849Y-90079520D01*
X130138893Y-90092133D01*
X130158598Y-90106747D01*
X130176777Y-90123223D01*
X130193253Y-90141402D01*
X130207867Y-90161107D01*
X130220480Y-90182151D01*
X130230970Y-90204329D01*
X130239235Y-90227429D01*
X130245196Y-90251227D01*
X130248796Y-90275496D01*
X130250000Y-90300000D01*
X130250000Y-91400000D01*
X130248796Y-91424504D01*
X130245196Y-91448773D01*
X130239235Y-91472571D01*
X130230970Y-91495671D01*
X130220480Y-91517849D01*
X130207867Y-91538893D01*
X130193253Y-91558598D01*
X130176777Y-91576777D01*
X130158598Y-91593253D01*
X130138893Y-91607867D01*
X130117849Y-91620480D01*
X130095671Y-91630970D01*
X130072571Y-91639235D01*
X130048773Y-91645196D01*
X130024504Y-91648796D01*
X130000000Y-91650000D01*
X129500000Y-91650000D01*
X129475496Y-91648796D01*
X129451227Y-91645196D01*
X129427429Y-91639235D01*
X129404329Y-91630970D01*
X129382151Y-91620480D01*
X129361107Y-91607867D01*
X129341402Y-91593253D01*
X129323223Y-91576777D01*
X129306747Y-91558598D01*
X129292133Y-91538893D01*
X129279520Y-91517849D01*
X129269030Y-91495671D01*
X129260765Y-91472571D01*
X129254804Y-91448773D01*
X129251204Y-91424504D01*
X129250000Y-91400000D01*
X129250000Y-90300000D01*
X129251204Y-90275496D01*
X129254804Y-90251227D01*
X129260765Y-90227429D01*
X129269030Y-90204329D01*
X129279520Y-90182151D01*
X129292133Y-90161107D01*
X129306747Y-90141402D01*
X129323223Y-90123223D01*
X129341402Y-90106747D01*
X129361107Y-90092133D01*
X129382151Y-90079520D01*
X129404329Y-90069030D01*
X129427429Y-90060765D01*
X129451227Y-90054804D01*
X129475496Y-90051204D01*
X129500000Y-90050000D01*
X130000000Y-90050000D01*
X130024504Y-90051204D01*
X130024504Y-90051204D01*
G37*
D12*
X129750000Y-90850000D03*
D11*
G36*
X138024504Y-90051204D02*
X138048773Y-90054804D01*
X138072571Y-90060765D01*
X138095671Y-90069030D01*
X138117849Y-90079520D01*
X138138893Y-90092133D01*
X138158598Y-90106747D01*
X138176777Y-90123223D01*
X138193253Y-90141402D01*
X138207867Y-90161107D01*
X138220480Y-90182151D01*
X138230970Y-90204329D01*
X138239235Y-90227429D01*
X138245196Y-90251227D01*
X138248796Y-90275496D01*
X138250000Y-90300000D01*
X138250000Y-91400000D01*
X138248796Y-91424504D01*
X138245196Y-91448773D01*
X138239235Y-91472571D01*
X138230970Y-91495671D01*
X138220480Y-91517849D01*
X138207867Y-91538893D01*
X138193253Y-91558598D01*
X138176777Y-91576777D01*
X138158598Y-91593253D01*
X138138893Y-91607867D01*
X138117849Y-91620480D01*
X138095671Y-91630970D01*
X138072571Y-91639235D01*
X138048773Y-91645196D01*
X138024504Y-91648796D01*
X138000000Y-91650000D01*
X137500000Y-91650000D01*
X137475496Y-91648796D01*
X137451227Y-91645196D01*
X137427429Y-91639235D01*
X137404329Y-91630970D01*
X137382151Y-91620480D01*
X137361107Y-91607867D01*
X137341402Y-91593253D01*
X137323223Y-91576777D01*
X137306747Y-91558598D01*
X137292133Y-91538893D01*
X137279520Y-91517849D01*
X137269030Y-91495671D01*
X137260765Y-91472571D01*
X137254804Y-91448773D01*
X137251204Y-91424504D01*
X137250000Y-91400000D01*
X137250000Y-90300000D01*
X137251204Y-90275496D01*
X137254804Y-90251227D01*
X137260765Y-90227429D01*
X137269030Y-90204329D01*
X137279520Y-90182151D01*
X137292133Y-90161107D01*
X137306747Y-90141402D01*
X137323223Y-90123223D01*
X137341402Y-90106747D01*
X137361107Y-90092133D01*
X137382151Y-90079520D01*
X137404329Y-90069030D01*
X137427429Y-90060765D01*
X137451227Y-90054804D01*
X137475496Y-90051204D01*
X137500000Y-90050000D01*
X138000000Y-90050000D01*
X138024504Y-90051204D01*
X138024504Y-90051204D01*
G37*
D12*
X137750000Y-90850000D03*
D11*
G36*
X133224504Y-90051204D02*
X133248773Y-90054804D01*
X133272571Y-90060765D01*
X133295671Y-90069030D01*
X133317849Y-90079520D01*
X133338893Y-90092133D01*
X133358598Y-90106747D01*
X133376777Y-90123223D01*
X133393253Y-90141402D01*
X133407867Y-90161107D01*
X133420480Y-90182151D01*
X133430970Y-90204329D01*
X133439235Y-90227429D01*
X133445196Y-90251227D01*
X133448796Y-90275496D01*
X133450000Y-90300000D01*
X133450000Y-91400000D01*
X133448796Y-91424504D01*
X133445196Y-91448773D01*
X133439235Y-91472571D01*
X133430970Y-91495671D01*
X133420480Y-91517849D01*
X133407867Y-91538893D01*
X133393253Y-91558598D01*
X133376777Y-91576777D01*
X133358598Y-91593253D01*
X133338893Y-91607867D01*
X133317849Y-91620480D01*
X133295671Y-91630970D01*
X133272571Y-91639235D01*
X133248773Y-91645196D01*
X133224504Y-91648796D01*
X133200000Y-91650000D01*
X132700000Y-91650000D01*
X132675496Y-91648796D01*
X132651227Y-91645196D01*
X132627429Y-91639235D01*
X132604329Y-91630970D01*
X132582151Y-91620480D01*
X132561107Y-91607867D01*
X132541402Y-91593253D01*
X132523223Y-91576777D01*
X132506747Y-91558598D01*
X132492133Y-91538893D01*
X132479520Y-91517849D01*
X132469030Y-91495671D01*
X132460765Y-91472571D01*
X132454804Y-91448773D01*
X132451204Y-91424504D01*
X132450000Y-91400000D01*
X132450000Y-90300000D01*
X132451204Y-90275496D01*
X132454804Y-90251227D01*
X132460765Y-90227429D01*
X132469030Y-90204329D01*
X132479520Y-90182151D01*
X132492133Y-90161107D01*
X132506747Y-90141402D01*
X132523223Y-90123223D01*
X132541402Y-90106747D01*
X132561107Y-90092133D01*
X132582151Y-90079520D01*
X132604329Y-90069030D01*
X132627429Y-90060765D01*
X132651227Y-90054804D01*
X132675496Y-90051204D01*
X132700000Y-90050000D01*
X133200000Y-90050000D01*
X133224504Y-90051204D01*
X133224504Y-90051204D01*
G37*
D12*
X132950000Y-90850000D03*
D11*
G36*
X136424504Y-90051204D02*
X136448773Y-90054804D01*
X136472571Y-90060765D01*
X136495671Y-90069030D01*
X136517849Y-90079520D01*
X136538893Y-90092133D01*
X136558598Y-90106747D01*
X136576777Y-90123223D01*
X136593253Y-90141402D01*
X136607867Y-90161107D01*
X136620480Y-90182151D01*
X136630970Y-90204329D01*
X136639235Y-90227429D01*
X136645196Y-90251227D01*
X136648796Y-90275496D01*
X136650000Y-90300000D01*
X136650000Y-91400000D01*
X136648796Y-91424504D01*
X136645196Y-91448773D01*
X136639235Y-91472571D01*
X136630970Y-91495671D01*
X136620480Y-91517849D01*
X136607867Y-91538893D01*
X136593253Y-91558598D01*
X136576777Y-91576777D01*
X136558598Y-91593253D01*
X136538893Y-91607867D01*
X136517849Y-91620480D01*
X136495671Y-91630970D01*
X136472571Y-91639235D01*
X136448773Y-91645196D01*
X136424504Y-91648796D01*
X136400000Y-91650000D01*
X135900000Y-91650000D01*
X135875496Y-91648796D01*
X135851227Y-91645196D01*
X135827429Y-91639235D01*
X135804329Y-91630970D01*
X135782151Y-91620480D01*
X135761107Y-91607867D01*
X135741402Y-91593253D01*
X135723223Y-91576777D01*
X135706747Y-91558598D01*
X135692133Y-91538893D01*
X135679520Y-91517849D01*
X135669030Y-91495671D01*
X135660765Y-91472571D01*
X135654804Y-91448773D01*
X135651204Y-91424504D01*
X135650000Y-91400000D01*
X135650000Y-90300000D01*
X135651204Y-90275496D01*
X135654804Y-90251227D01*
X135660765Y-90227429D01*
X135669030Y-90204329D01*
X135679520Y-90182151D01*
X135692133Y-90161107D01*
X135706747Y-90141402D01*
X135723223Y-90123223D01*
X135741402Y-90106747D01*
X135761107Y-90092133D01*
X135782151Y-90079520D01*
X135804329Y-90069030D01*
X135827429Y-90060765D01*
X135851227Y-90054804D01*
X135875496Y-90051204D01*
X135900000Y-90050000D01*
X136400000Y-90050000D01*
X136424504Y-90051204D01*
X136424504Y-90051204D01*
G37*
D12*
X136150000Y-90850000D03*
G04 #@! TD*
M02*
