G04 #@! TF.GenerationSoftware,KiCad,Pcbnew,(5.0.0)*
G04 #@! TF.CreationDate,2019-09-16T11:16:57+09:00*
G04 #@! TF.ProjectId,ESP32,45535033322E6B696361645F70636200,rev?*
G04 #@! TF.SameCoordinates,Original*
G04 #@! TF.FileFunction,Copper,L2,Bot,Signal*
G04 #@! TF.FilePolarity,Positive*
%FSLAX46Y46*%
G04 Gerber Fmt 4.6, Leading zero omitted, Abs format (unit mm)*
G04 Created by KiCad (PCBNEW (5.0.0)) date 09/16/19 11:16:57*
%MOMM*%
%LPD*%
G01*
G04 APERTURE LIST*
G04 #@! TA.AperFunction,SMDPad,CuDef*
%ADD10R,1.800000X1.600000*%
G04 #@! TD*
G04 #@! TA.AperFunction,Conductor*
%ADD11C,0.100000*%
G04 #@! TD*
G04 #@! TA.AperFunction,SMDPad,CuDef*
%ADD12C,1.000000*%
G04 #@! TD*
G04 #@! TA.AperFunction,ComponentPad*
%ADD13R,1.950000X1.700000*%
G04 #@! TD*
G04 #@! TA.AperFunction,ComponentPad*
%ADD14O,1.950000X1.700000*%
G04 #@! TD*
G04 #@! TA.AperFunction,ComponentPad*
%ADD15R,1.700000X1.700000*%
G04 #@! TD*
G04 #@! TA.AperFunction,ComponentPad*
%ADD16O,1.700000X1.700000*%
G04 #@! TD*
G04 #@! TA.AperFunction,ViaPad*
%ADD17C,0.800000*%
G04 #@! TD*
G04 #@! TA.AperFunction,Conductor*
%ADD18C,0.250000*%
G04 #@! TD*
G04 #@! TA.AperFunction,Conductor*
%ADD19C,0.254000*%
G04 #@! TD*
G04 APERTURE END LIST*
D10*
G04 #@! TO.P,SW3,3*
G04 #@! TO.N,Net-(C1-Pad1)*
X128350000Y-86250000D03*
X139200000Y-86250000D03*
D11*
G04 #@! TD*
G04 #@! TO.N,Net-(SW3-Pad1)*
G04 #@! TO.C,SW3*
G36*
X131624504Y-90051204D02*
X131648773Y-90054804D01*
X131672571Y-90060765D01*
X131695671Y-90069030D01*
X131717849Y-90079520D01*
X131738893Y-90092133D01*
X131758598Y-90106747D01*
X131776777Y-90123223D01*
X131793253Y-90141402D01*
X131807867Y-90161107D01*
X131820480Y-90182151D01*
X131830970Y-90204329D01*
X131839235Y-90227429D01*
X131845196Y-90251227D01*
X131848796Y-90275496D01*
X131850000Y-90300000D01*
X131850000Y-91400000D01*
X131848796Y-91424504D01*
X131845196Y-91448773D01*
X131839235Y-91472571D01*
X131830970Y-91495671D01*
X131820480Y-91517849D01*
X131807867Y-91538893D01*
X131793253Y-91558598D01*
X131776777Y-91576777D01*
X131758598Y-91593253D01*
X131738893Y-91607867D01*
X131717849Y-91620480D01*
X131695671Y-91630970D01*
X131672571Y-91639235D01*
X131648773Y-91645196D01*
X131624504Y-91648796D01*
X131600000Y-91650000D01*
X131100000Y-91650000D01*
X131075496Y-91648796D01*
X131051227Y-91645196D01*
X131027429Y-91639235D01*
X131004329Y-91630970D01*
X130982151Y-91620480D01*
X130961107Y-91607867D01*
X130941402Y-91593253D01*
X130923223Y-91576777D01*
X130906747Y-91558598D01*
X130892133Y-91538893D01*
X130879520Y-91517849D01*
X130869030Y-91495671D01*
X130860765Y-91472571D01*
X130854804Y-91448773D01*
X130851204Y-91424504D01*
X130850000Y-91400000D01*
X130850000Y-90300000D01*
X130851204Y-90275496D01*
X130854804Y-90251227D01*
X130860765Y-90227429D01*
X130869030Y-90204329D01*
X130879520Y-90182151D01*
X130892133Y-90161107D01*
X130906747Y-90141402D01*
X130923223Y-90123223D01*
X130941402Y-90106747D01*
X130961107Y-90092133D01*
X130982151Y-90079520D01*
X131004329Y-90069030D01*
X131027429Y-90060765D01*
X131051227Y-90054804D01*
X131075496Y-90051204D01*
X131100000Y-90050000D01*
X131600000Y-90050000D01*
X131624504Y-90051204D01*
X131624504Y-90051204D01*
G37*
D12*
G04 #@! TO.P,SW3,1*
G04 #@! TO.N,Net-(SW3-Pad1)*
X131350000Y-90850000D03*
D11*
G04 #@! TD*
G04 #@! TO.N,Net-(SW3-Pad2)*
G04 #@! TO.C,SW3*
G36*
X134824504Y-90051204D02*
X134848773Y-90054804D01*
X134872571Y-90060765D01*
X134895671Y-90069030D01*
X134917849Y-90079520D01*
X134938893Y-90092133D01*
X134958598Y-90106747D01*
X134976777Y-90123223D01*
X134993253Y-90141402D01*
X135007867Y-90161107D01*
X135020480Y-90182151D01*
X135030970Y-90204329D01*
X135039235Y-90227429D01*
X135045196Y-90251227D01*
X135048796Y-90275496D01*
X135050000Y-90300000D01*
X135050000Y-91400000D01*
X135048796Y-91424504D01*
X135045196Y-91448773D01*
X135039235Y-91472571D01*
X135030970Y-91495671D01*
X135020480Y-91517849D01*
X135007867Y-91538893D01*
X134993253Y-91558598D01*
X134976777Y-91576777D01*
X134958598Y-91593253D01*
X134938893Y-91607867D01*
X134917849Y-91620480D01*
X134895671Y-91630970D01*
X134872571Y-91639235D01*
X134848773Y-91645196D01*
X134824504Y-91648796D01*
X134800000Y-91650000D01*
X134300000Y-91650000D01*
X134275496Y-91648796D01*
X134251227Y-91645196D01*
X134227429Y-91639235D01*
X134204329Y-91630970D01*
X134182151Y-91620480D01*
X134161107Y-91607867D01*
X134141402Y-91593253D01*
X134123223Y-91576777D01*
X134106747Y-91558598D01*
X134092133Y-91538893D01*
X134079520Y-91517849D01*
X134069030Y-91495671D01*
X134060765Y-91472571D01*
X134054804Y-91448773D01*
X134051204Y-91424504D01*
X134050000Y-91400000D01*
X134050000Y-90300000D01*
X134051204Y-90275496D01*
X134054804Y-90251227D01*
X134060765Y-90227429D01*
X134069030Y-90204329D01*
X134079520Y-90182151D01*
X134092133Y-90161107D01*
X134106747Y-90141402D01*
X134123223Y-90123223D01*
X134141402Y-90106747D01*
X134161107Y-90092133D01*
X134182151Y-90079520D01*
X134204329Y-90069030D01*
X134227429Y-90060765D01*
X134251227Y-90054804D01*
X134275496Y-90051204D01*
X134300000Y-90050000D01*
X134800000Y-90050000D01*
X134824504Y-90051204D01*
X134824504Y-90051204D01*
G37*
D12*
G04 #@! TO.P,SW3,2*
G04 #@! TO.N,Net-(SW3-Pad2)*
X134550000Y-90850000D03*
D11*
G04 #@! TD*
G04 #@! TO.N,Net-(C1-Pad1)*
G04 #@! TO.C,SW3*
G36*
X130024504Y-90051204D02*
X130048773Y-90054804D01*
X130072571Y-90060765D01*
X130095671Y-90069030D01*
X130117849Y-90079520D01*
X130138893Y-90092133D01*
X130158598Y-90106747D01*
X130176777Y-90123223D01*
X130193253Y-90141402D01*
X130207867Y-90161107D01*
X130220480Y-90182151D01*
X130230970Y-90204329D01*
X130239235Y-90227429D01*
X130245196Y-90251227D01*
X130248796Y-90275496D01*
X130250000Y-90300000D01*
X130250000Y-91400000D01*
X130248796Y-91424504D01*
X130245196Y-91448773D01*
X130239235Y-91472571D01*
X130230970Y-91495671D01*
X130220480Y-91517849D01*
X130207867Y-91538893D01*
X130193253Y-91558598D01*
X130176777Y-91576777D01*
X130158598Y-91593253D01*
X130138893Y-91607867D01*
X130117849Y-91620480D01*
X130095671Y-91630970D01*
X130072571Y-91639235D01*
X130048773Y-91645196D01*
X130024504Y-91648796D01*
X130000000Y-91650000D01*
X129500000Y-91650000D01*
X129475496Y-91648796D01*
X129451227Y-91645196D01*
X129427429Y-91639235D01*
X129404329Y-91630970D01*
X129382151Y-91620480D01*
X129361107Y-91607867D01*
X129341402Y-91593253D01*
X129323223Y-91576777D01*
X129306747Y-91558598D01*
X129292133Y-91538893D01*
X129279520Y-91517849D01*
X129269030Y-91495671D01*
X129260765Y-91472571D01*
X129254804Y-91448773D01*
X129251204Y-91424504D01*
X129250000Y-91400000D01*
X129250000Y-90300000D01*
X129251204Y-90275496D01*
X129254804Y-90251227D01*
X129260765Y-90227429D01*
X129269030Y-90204329D01*
X129279520Y-90182151D01*
X129292133Y-90161107D01*
X129306747Y-90141402D01*
X129323223Y-90123223D01*
X129341402Y-90106747D01*
X129361107Y-90092133D01*
X129382151Y-90079520D01*
X129404329Y-90069030D01*
X129427429Y-90060765D01*
X129451227Y-90054804D01*
X129475496Y-90051204D01*
X129500000Y-90050000D01*
X130000000Y-90050000D01*
X130024504Y-90051204D01*
X130024504Y-90051204D01*
G37*
D12*
G04 #@! TO.P,SW3,3*
G04 #@! TO.N,Net-(C1-Pad1)*
X129750000Y-90850000D03*
D11*
G04 #@! TD*
G04 #@! TO.N,Net-(SW3-Pad4)*
G04 #@! TO.C,SW3*
G36*
X138024504Y-90051204D02*
X138048773Y-90054804D01*
X138072571Y-90060765D01*
X138095671Y-90069030D01*
X138117849Y-90079520D01*
X138138893Y-90092133D01*
X138158598Y-90106747D01*
X138176777Y-90123223D01*
X138193253Y-90141402D01*
X138207867Y-90161107D01*
X138220480Y-90182151D01*
X138230970Y-90204329D01*
X138239235Y-90227429D01*
X138245196Y-90251227D01*
X138248796Y-90275496D01*
X138250000Y-90300000D01*
X138250000Y-91400000D01*
X138248796Y-91424504D01*
X138245196Y-91448773D01*
X138239235Y-91472571D01*
X138230970Y-91495671D01*
X138220480Y-91517849D01*
X138207867Y-91538893D01*
X138193253Y-91558598D01*
X138176777Y-91576777D01*
X138158598Y-91593253D01*
X138138893Y-91607867D01*
X138117849Y-91620480D01*
X138095671Y-91630970D01*
X138072571Y-91639235D01*
X138048773Y-91645196D01*
X138024504Y-91648796D01*
X138000000Y-91650000D01*
X137500000Y-91650000D01*
X137475496Y-91648796D01*
X137451227Y-91645196D01*
X137427429Y-91639235D01*
X137404329Y-91630970D01*
X137382151Y-91620480D01*
X137361107Y-91607867D01*
X137341402Y-91593253D01*
X137323223Y-91576777D01*
X137306747Y-91558598D01*
X137292133Y-91538893D01*
X137279520Y-91517849D01*
X137269030Y-91495671D01*
X137260765Y-91472571D01*
X137254804Y-91448773D01*
X137251204Y-91424504D01*
X137250000Y-91400000D01*
X137250000Y-90300000D01*
X137251204Y-90275496D01*
X137254804Y-90251227D01*
X137260765Y-90227429D01*
X137269030Y-90204329D01*
X137279520Y-90182151D01*
X137292133Y-90161107D01*
X137306747Y-90141402D01*
X137323223Y-90123223D01*
X137341402Y-90106747D01*
X137361107Y-90092133D01*
X137382151Y-90079520D01*
X137404329Y-90069030D01*
X137427429Y-90060765D01*
X137451227Y-90054804D01*
X137475496Y-90051204D01*
X137500000Y-90050000D01*
X138000000Y-90050000D01*
X138024504Y-90051204D01*
X138024504Y-90051204D01*
G37*
D12*
G04 #@! TO.P,SW3,4*
G04 #@! TO.N,Net-(SW3-Pad4)*
X137750000Y-90850000D03*
D11*
G04 #@! TD*
G04 #@! TO.N,N/C*
G04 #@! TO.C,SW3*
G36*
X133224504Y-90051204D02*
X133248773Y-90054804D01*
X133272571Y-90060765D01*
X133295671Y-90069030D01*
X133317849Y-90079520D01*
X133338893Y-90092133D01*
X133358598Y-90106747D01*
X133376777Y-90123223D01*
X133393253Y-90141402D01*
X133407867Y-90161107D01*
X133420480Y-90182151D01*
X133430970Y-90204329D01*
X133439235Y-90227429D01*
X133445196Y-90251227D01*
X133448796Y-90275496D01*
X133450000Y-90300000D01*
X133450000Y-91400000D01*
X133448796Y-91424504D01*
X133445196Y-91448773D01*
X133439235Y-91472571D01*
X133430970Y-91495671D01*
X133420480Y-91517849D01*
X133407867Y-91538893D01*
X133393253Y-91558598D01*
X133376777Y-91576777D01*
X133358598Y-91593253D01*
X133338893Y-91607867D01*
X133317849Y-91620480D01*
X133295671Y-91630970D01*
X133272571Y-91639235D01*
X133248773Y-91645196D01*
X133224504Y-91648796D01*
X133200000Y-91650000D01*
X132700000Y-91650000D01*
X132675496Y-91648796D01*
X132651227Y-91645196D01*
X132627429Y-91639235D01*
X132604329Y-91630970D01*
X132582151Y-91620480D01*
X132561107Y-91607867D01*
X132541402Y-91593253D01*
X132523223Y-91576777D01*
X132506747Y-91558598D01*
X132492133Y-91538893D01*
X132479520Y-91517849D01*
X132469030Y-91495671D01*
X132460765Y-91472571D01*
X132454804Y-91448773D01*
X132451204Y-91424504D01*
X132450000Y-91400000D01*
X132450000Y-90300000D01*
X132451204Y-90275496D01*
X132454804Y-90251227D01*
X132460765Y-90227429D01*
X132469030Y-90204329D01*
X132479520Y-90182151D01*
X132492133Y-90161107D01*
X132506747Y-90141402D01*
X132523223Y-90123223D01*
X132541402Y-90106747D01*
X132561107Y-90092133D01*
X132582151Y-90079520D01*
X132604329Y-90069030D01*
X132627429Y-90060765D01*
X132651227Y-90054804D01*
X132675496Y-90051204D01*
X132700000Y-90050000D01*
X133200000Y-90050000D01*
X133224504Y-90051204D01*
X133224504Y-90051204D01*
G37*
D12*
G04 #@! TO.P,SW3,5*
G04 #@! TO.N,N/C*
X132950000Y-90850000D03*
D11*
G04 #@! TD*
G04 #@! TO.N,N/C*
G04 #@! TO.C,SW3*
G36*
X136424504Y-90051204D02*
X136448773Y-90054804D01*
X136472571Y-90060765D01*
X136495671Y-90069030D01*
X136517849Y-90079520D01*
X136538893Y-90092133D01*
X136558598Y-90106747D01*
X136576777Y-90123223D01*
X136593253Y-90141402D01*
X136607867Y-90161107D01*
X136620480Y-90182151D01*
X136630970Y-90204329D01*
X136639235Y-90227429D01*
X136645196Y-90251227D01*
X136648796Y-90275496D01*
X136650000Y-90300000D01*
X136650000Y-91400000D01*
X136648796Y-91424504D01*
X136645196Y-91448773D01*
X136639235Y-91472571D01*
X136630970Y-91495671D01*
X136620480Y-91517849D01*
X136607867Y-91538893D01*
X136593253Y-91558598D01*
X136576777Y-91576777D01*
X136558598Y-91593253D01*
X136538893Y-91607867D01*
X136517849Y-91620480D01*
X136495671Y-91630970D01*
X136472571Y-91639235D01*
X136448773Y-91645196D01*
X136424504Y-91648796D01*
X136400000Y-91650000D01*
X135900000Y-91650000D01*
X135875496Y-91648796D01*
X135851227Y-91645196D01*
X135827429Y-91639235D01*
X135804329Y-91630970D01*
X135782151Y-91620480D01*
X135761107Y-91607867D01*
X135741402Y-91593253D01*
X135723223Y-91576777D01*
X135706747Y-91558598D01*
X135692133Y-91538893D01*
X135679520Y-91517849D01*
X135669030Y-91495671D01*
X135660765Y-91472571D01*
X135654804Y-91448773D01*
X135651204Y-91424504D01*
X135650000Y-91400000D01*
X135650000Y-90300000D01*
X135651204Y-90275496D01*
X135654804Y-90251227D01*
X135660765Y-90227429D01*
X135669030Y-90204329D01*
X135679520Y-90182151D01*
X135692133Y-90161107D01*
X135706747Y-90141402D01*
X135723223Y-90123223D01*
X135741402Y-90106747D01*
X135761107Y-90092133D01*
X135782151Y-90079520D01*
X135804329Y-90069030D01*
X135827429Y-90060765D01*
X135851227Y-90054804D01*
X135875496Y-90051204D01*
X135900000Y-90050000D01*
X136400000Y-90050000D01*
X136424504Y-90051204D01*
X136424504Y-90051204D01*
G37*
D12*
G04 #@! TO.P,SW3,6*
G04 #@! TO.N,N/C*
X136150000Y-90850000D03*
G04 #@! TD*
D13*
G04 #@! TO.P,J2,1*
G04 #@! TO.N,Net-(C4-Pad1)*
X142800000Y-119600000D03*
D14*
G04 #@! TO.P,J2,2*
G04 #@! TO.N,Net-(C1-Pad1)*
X142800000Y-117100000D03*
G04 #@! TO.P,J2,3*
G04 #@! TO.N,Net-(J2-Pad3)*
X142800000Y-114600000D03*
G04 #@! TO.P,J2,4*
G04 #@! TO.N,Net-(J2-Pad4)*
X142800000Y-112100000D03*
G04 #@! TO.P,J2,5*
G04 #@! TO.N,Net-(J2-Pad5)*
X142800000Y-109600000D03*
G04 #@! TO.P,J2,6*
G04 #@! TO.N,Net-(J2-Pad6)*
X142800000Y-107100000D03*
G04 #@! TO.P,J2,7*
G04 #@! TO.N,Net-(J2-Pad7)*
X142800000Y-104600000D03*
G04 #@! TO.P,J2,8*
G04 #@! TO.N,Net-(J2-Pad8)*
X142800000Y-102100000D03*
G04 #@! TD*
D15*
G04 #@! TO.P,J3,1*
G04 #@! TO.N,Net-(C1-Pad1)*
X144750000Y-93750000D03*
D16*
G04 #@! TO.P,J3,2*
G04 #@! TO.N,Net-(C4-Pad1)*
X142210000Y-93750000D03*
G04 #@! TO.P,J3,3*
G04 #@! TO.N,Net-(J3-Pad3)*
X139670000Y-93750000D03*
G04 #@! TO.P,J3,4*
G04 #@! TO.N,Net-(J3-Pad4)*
X137130000Y-93750000D03*
G04 #@! TD*
D17*
G04 #@! TO.N,Net-(C1-Pad1)*
X114500000Y-85500000D03*
X116500000Y-85500000D03*
X118500000Y-85500000D03*
X112500000Y-85500000D03*
X112500000Y-87500000D03*
X114500000Y-87500000D03*
X116500000Y-87500000D03*
X118500000Y-87500000D03*
X120500000Y-87500000D03*
X112500000Y-91500000D03*
X112500000Y-93500000D03*
X112500000Y-95500000D03*
X114500000Y-95500000D03*
X116500000Y-95500000D03*
X112500000Y-89500000D03*
X120500000Y-85500000D03*
X118500000Y-95500000D03*
X120500000Y-95500000D03*
X120500000Y-89500000D03*
X120500000Y-91500000D03*
X120500000Y-93500000D03*
X112500000Y-97500000D03*
X114500000Y-97500000D03*
X116500000Y-97500000D03*
X118500000Y-97500000D03*
X120500000Y-97500000D03*
X122500000Y-91500000D03*
X122500000Y-93500000D03*
X122500000Y-95500000D03*
X122500000Y-97500000D03*
X122500000Y-85500000D03*
G04 #@! TO.N,Net-(C1-Pad2)*
X104749600Y-97917000D03*
X105537000Y-100076000D03*
G04 #@! TO.N,Net-(C4-Pad1)*
X129857500Y-122555000D03*
G04 #@! TO.N,Net-(SW3-Pad1)*
X122500000Y-87500000D03*
G04 #@! TO.N,Net-(SW3-Pad2)*
X122500000Y-89500000D03*
G04 #@! TO.N,Net-(SW3-Pad4)*
X128803400Y-84150200D03*
G04 #@! TD*
D18*
G04 #@! TO.N,Net-(C1-Pad2)*
X104749600Y-99288600D02*
X105537000Y-100076000D01*
X104749600Y-97917000D02*
X104749600Y-99288600D01*
G04 #@! TO.N,Net-(C4-Pad1)*
X141360001Y-94599999D02*
X142210000Y-93750000D01*
X141360001Y-118285001D02*
X141360001Y-94599999D01*
X142675000Y-119600000D02*
X141360001Y-118285001D01*
X142800000Y-119600000D02*
X142675000Y-119600000D01*
X130423185Y-122555000D02*
X129857500Y-122555000D01*
X140945000Y-122555000D02*
X130423185Y-122555000D01*
X142800000Y-120700000D02*
X140945000Y-122555000D01*
X142800000Y-119600000D02*
X142800000Y-120700000D01*
G04 #@! TO.N,Net-(SW3-Pad1)*
X122899999Y-87899999D02*
X122500000Y-87500000D01*
X126975010Y-91975010D02*
X122899999Y-87899999D01*
X130238180Y-91975010D02*
X126975010Y-91975010D01*
X130779290Y-91433900D02*
X130238180Y-91975010D01*
X130779290Y-91420710D02*
X130779290Y-91433900D01*
X131350000Y-90850000D02*
X130779290Y-91420710D01*
G04 #@! TO.N,Net-(SW3-Pad2)*
X122899999Y-89899999D02*
X122500000Y-89500000D01*
X125425020Y-92425020D02*
X122899999Y-89899999D01*
X132988170Y-92425020D02*
X125425020Y-92425020D01*
X133979290Y-91433900D02*
X132988170Y-92425020D01*
X133979290Y-91420710D02*
X133979290Y-91433900D01*
X134550000Y-90850000D02*
X133979290Y-91420710D01*
G04 #@! TO.N,Net-(SW3-Pad4)*
X137750000Y-87550000D02*
X137750000Y-90850000D01*
X134350200Y-84150200D02*
X137750000Y-87550000D01*
X128803400Y-84150200D02*
X134350200Y-84150200D01*
G04 #@! TD*
D19*
G04 #@! TO.N,Net-(C1-Pad1)*
G36*
X140373000Y-84875761D02*
X140226310Y-84815000D01*
X139485750Y-84815000D01*
X139327000Y-84973750D01*
X139327000Y-86123000D01*
X139347000Y-86123000D01*
X139347000Y-86377000D01*
X139327000Y-86377000D01*
X139327000Y-87526250D01*
X139485750Y-87685000D01*
X140226310Y-87685000D01*
X140425050Y-87602679D01*
X142920664Y-89599170D01*
X142951399Y-89617333D01*
X143000000Y-89627000D01*
X145373000Y-89627000D01*
X145373000Y-92265000D01*
X145035750Y-92265000D01*
X144877000Y-92423750D01*
X144877000Y-93623000D01*
X144897000Y-93623000D01*
X144897000Y-93877000D01*
X144877000Y-93877000D01*
X144877000Y-93897000D01*
X144623000Y-93897000D01*
X144623000Y-93877000D01*
X144603000Y-93877000D01*
X144603000Y-93623000D01*
X144623000Y-93623000D01*
X144623000Y-92423750D01*
X144464250Y-92265000D01*
X143773690Y-92265000D01*
X143540301Y-92361673D01*
X143361673Y-92540302D01*
X143295096Y-92701033D01*
X143280625Y-92679375D01*
X142789418Y-92351161D01*
X142356256Y-92265000D01*
X142063744Y-92265000D01*
X141630582Y-92351161D01*
X141139375Y-92679375D01*
X140940000Y-92977761D01*
X140740625Y-92679375D01*
X140249418Y-92351161D01*
X139816256Y-92265000D01*
X139523744Y-92265000D01*
X139090582Y-92351161D01*
X138599375Y-92679375D01*
X138400000Y-92977761D01*
X138200625Y-92679375D01*
X137709418Y-92351161D01*
X137276256Y-92265000D01*
X136983744Y-92265000D01*
X136550582Y-92351161D01*
X136059375Y-92679375D01*
X135731161Y-93170582D01*
X135615908Y-93750000D01*
X135731161Y-94329418D01*
X136059375Y-94820625D01*
X136550582Y-95148839D01*
X136983744Y-95235000D01*
X137276256Y-95235000D01*
X137709418Y-95148839D01*
X138200625Y-94820625D01*
X138400000Y-94522239D01*
X138599375Y-94820625D01*
X139090582Y-95148839D01*
X139523744Y-95235000D01*
X139816256Y-95235000D01*
X140249418Y-95148839D01*
X140600002Y-94914586D01*
X140600001Y-118210154D01*
X140585113Y-118285001D01*
X140600001Y-118359848D01*
X140600001Y-118359852D01*
X140644097Y-118581537D01*
X140812072Y-118832930D01*
X140875531Y-118875332D01*
X141177560Y-119177362D01*
X141177560Y-120450000D01*
X141226843Y-120697765D01*
X141367191Y-120907809D01*
X141457228Y-120967970D01*
X140630199Y-121795000D01*
X130561211Y-121795000D01*
X130443780Y-121677569D01*
X130063374Y-121520000D01*
X129651626Y-121520000D01*
X129271220Y-121677569D01*
X128980069Y-121968720D01*
X128822500Y-122349126D01*
X128822500Y-122760874D01*
X128980069Y-123141280D01*
X129271220Y-123432431D01*
X129651626Y-123590000D01*
X130063374Y-123590000D01*
X130443780Y-123432431D01*
X130561211Y-123315000D01*
X140870153Y-123315000D01*
X140945000Y-123329888D01*
X141019847Y-123315000D01*
X141019852Y-123315000D01*
X141241537Y-123270904D01*
X141492929Y-123102929D01*
X141535331Y-123039470D01*
X143284473Y-121290329D01*
X143347929Y-121247929D01*
X143448483Y-121097440D01*
X143673000Y-121097440D01*
X143673000Y-124373000D01*
X142500000Y-124373000D01*
X142438739Y-124388752D01*
X142400830Y-124420664D01*
X140400830Y-126920664D01*
X140382667Y-126951399D01*
X140373000Y-127000000D01*
X140373000Y-131315000D01*
X105627000Y-131315000D01*
X105627000Y-127000000D01*
X105621982Y-126964654D01*
X105599170Y-126920664D01*
X103599170Y-124420664D01*
X103548601Y-124382667D01*
X103500000Y-124373000D01*
X98735000Y-124373000D01*
X98735000Y-97711126D01*
X103714600Y-97711126D01*
X103714600Y-98122874D01*
X103872169Y-98503280D01*
X103989601Y-98620712D01*
X103989601Y-99213749D01*
X103974712Y-99288600D01*
X103989601Y-99363452D01*
X104033697Y-99585137D01*
X104201672Y-99836529D01*
X104265128Y-99878929D01*
X104502000Y-100115801D01*
X104502000Y-100281874D01*
X104659569Y-100662280D01*
X104950720Y-100953431D01*
X105331126Y-101111000D01*
X105742874Y-101111000D01*
X106123280Y-100953431D01*
X106414431Y-100662280D01*
X106572000Y-100281874D01*
X106572000Y-99870126D01*
X106414431Y-99489720D01*
X106123280Y-99198569D01*
X105742874Y-99041000D01*
X105576801Y-99041000D01*
X105509600Y-98973799D01*
X105509600Y-98620711D01*
X105627031Y-98503280D01*
X105784600Y-98122874D01*
X105784600Y-97711126D01*
X105627031Y-97330720D01*
X105335880Y-97039569D01*
X104955474Y-96882000D01*
X104543726Y-96882000D01*
X104163320Y-97039569D01*
X103872169Y-97330720D01*
X103714600Y-97711126D01*
X98735000Y-97711126D01*
X98735000Y-89627000D01*
X103000000Y-89627000D01*
X103035346Y-89621982D01*
X103079336Y-89599170D01*
X105579336Y-87599170D01*
X105617333Y-87548601D01*
X105627000Y-87500000D01*
X105627000Y-87294126D01*
X121465000Y-87294126D01*
X121465000Y-87705874D01*
X121622569Y-88086280D01*
X121913720Y-88377431D01*
X122209628Y-88500000D01*
X121913720Y-88622569D01*
X121622569Y-88913720D01*
X121465000Y-89294126D01*
X121465000Y-89705874D01*
X121622569Y-90086280D01*
X121913720Y-90377431D01*
X122294126Y-90535000D01*
X122460199Y-90535000D01*
X124834691Y-92909493D01*
X124877091Y-92972949D01*
X125128483Y-93140924D01*
X125350168Y-93185020D01*
X125350173Y-93185020D01*
X125425020Y-93199908D01*
X125499867Y-93185020D01*
X132913323Y-93185020D01*
X132988170Y-93199908D01*
X133063017Y-93185020D01*
X133063022Y-93185020D01*
X133284707Y-93140924D01*
X133536099Y-92972949D01*
X133578501Y-92909491D01*
X134208711Y-92279281D01*
X134300000Y-92297440D01*
X134800000Y-92297440D01*
X135143435Y-92229126D01*
X135350000Y-92091104D01*
X135556565Y-92229126D01*
X135900000Y-92297440D01*
X136400000Y-92297440D01*
X136743435Y-92229126D01*
X136950000Y-92091104D01*
X137156565Y-92229126D01*
X137500000Y-92297440D01*
X138000000Y-92297440D01*
X138343435Y-92229126D01*
X138634586Y-92034586D01*
X138829126Y-91743435D01*
X138897440Y-91400000D01*
X138897440Y-90300000D01*
X138829126Y-89956565D01*
X138634586Y-89665414D01*
X138510000Y-89582169D01*
X138510000Y-87685000D01*
X138914250Y-87685000D01*
X139073000Y-87526250D01*
X139073000Y-86377000D01*
X137823750Y-86377000D01*
X137737776Y-86462974D01*
X136598493Y-85323691D01*
X137665000Y-85323691D01*
X137665000Y-85964250D01*
X137823750Y-86123000D01*
X139073000Y-86123000D01*
X139073000Y-84973750D01*
X138914250Y-84815000D01*
X138173690Y-84815000D01*
X137940301Y-84911673D01*
X137761673Y-85090302D01*
X137665000Y-85323691D01*
X136598493Y-85323691D01*
X134940531Y-83665730D01*
X134898129Y-83602271D01*
X134646737Y-83434296D01*
X134425052Y-83390200D01*
X134425047Y-83390200D01*
X134350200Y-83375312D01*
X134275353Y-83390200D01*
X129507111Y-83390200D01*
X129389680Y-83272769D01*
X129009274Y-83115200D01*
X128597526Y-83115200D01*
X128217120Y-83272769D01*
X127925969Y-83563920D01*
X127768400Y-83944326D01*
X127768400Y-84356074D01*
X127925969Y-84736480D01*
X128004489Y-84815000D01*
X127323690Y-84815000D01*
X127090301Y-84911673D01*
X126911673Y-85090302D01*
X126815000Y-85323691D01*
X126815000Y-85964250D01*
X126973750Y-86123000D01*
X128223000Y-86123000D01*
X128223000Y-86103000D01*
X128477000Y-86103000D01*
X128477000Y-86123000D01*
X129726250Y-86123000D01*
X129885000Y-85964250D01*
X129885000Y-85323691D01*
X129788327Y-85090302D01*
X129609699Y-84911673D01*
X129606143Y-84910200D01*
X132565000Y-84910200D01*
X132565000Y-85285711D01*
X132745405Y-85721249D01*
X133078751Y-86054595D01*
X133514289Y-86235000D01*
X133985711Y-86235000D01*
X134421249Y-86054595D01*
X134754595Y-85721249D01*
X134781498Y-85656299D01*
X136990000Y-87864802D01*
X136990001Y-89582168D01*
X136950000Y-89608896D01*
X136743435Y-89470874D01*
X136400000Y-89402560D01*
X135900000Y-89402560D01*
X135556565Y-89470874D01*
X135350000Y-89608896D01*
X135143435Y-89470874D01*
X134880008Y-89418475D01*
X134935000Y-89285711D01*
X134935000Y-88814289D01*
X134754595Y-88378751D01*
X134421249Y-88045405D01*
X133985711Y-87865000D01*
X133514289Y-87865000D01*
X133078751Y-88045405D01*
X132745405Y-88378751D01*
X132565000Y-88814289D01*
X132565000Y-89285711D01*
X132619992Y-89418475D01*
X132356565Y-89470874D01*
X132150000Y-89608896D01*
X131943435Y-89470874D01*
X131600000Y-89402560D01*
X131100000Y-89402560D01*
X130756565Y-89470874D01*
X130644067Y-89546042D01*
X130609698Y-89511673D01*
X130376309Y-89415000D01*
X130035750Y-89415000D01*
X129877000Y-89573750D01*
X129877000Y-90723000D01*
X129897000Y-90723000D01*
X129897000Y-90977000D01*
X129877000Y-90977000D01*
X129877000Y-90997000D01*
X129623000Y-90997000D01*
X129623000Y-90977000D01*
X128773750Y-90977000D01*
X128615000Y-91135750D01*
X128615000Y-91215010D01*
X127289812Y-91215010D01*
X125998492Y-89923690D01*
X128615000Y-89923690D01*
X128615000Y-90564250D01*
X128773750Y-90723000D01*
X129623000Y-90723000D01*
X129623000Y-89573750D01*
X129464250Y-89415000D01*
X129123691Y-89415000D01*
X128890302Y-89511673D01*
X128711673Y-89690301D01*
X128615000Y-89923690D01*
X125998492Y-89923690D01*
X123535000Y-87460199D01*
X123535000Y-87294126D01*
X123377431Y-86913720D01*
X123086280Y-86622569D01*
X122876680Y-86535750D01*
X126815000Y-86535750D01*
X126815000Y-87176309D01*
X126911673Y-87409698D01*
X127090301Y-87588327D01*
X127323690Y-87685000D01*
X128064250Y-87685000D01*
X128223000Y-87526250D01*
X128223000Y-86377000D01*
X128477000Y-86377000D01*
X128477000Y-87526250D01*
X128635750Y-87685000D01*
X129376310Y-87685000D01*
X129609699Y-87588327D01*
X129788327Y-87409698D01*
X129885000Y-87176309D01*
X129885000Y-86535750D01*
X129726250Y-86377000D01*
X128477000Y-86377000D01*
X128223000Y-86377000D01*
X126973750Y-86377000D01*
X126815000Y-86535750D01*
X122876680Y-86535750D01*
X122705874Y-86465000D01*
X122294126Y-86465000D01*
X121913720Y-86622569D01*
X121622569Y-86913720D01*
X121465000Y-87294126D01*
X105627000Y-87294126D01*
X105627000Y-82685000D01*
X140373000Y-82685000D01*
X140373000Y-84875761D01*
X140373000Y-84875761D01*
G37*
X140373000Y-84875761D02*
X140226310Y-84815000D01*
X139485750Y-84815000D01*
X139327000Y-84973750D01*
X139327000Y-86123000D01*
X139347000Y-86123000D01*
X139347000Y-86377000D01*
X139327000Y-86377000D01*
X139327000Y-87526250D01*
X139485750Y-87685000D01*
X140226310Y-87685000D01*
X140425050Y-87602679D01*
X142920664Y-89599170D01*
X142951399Y-89617333D01*
X143000000Y-89627000D01*
X145373000Y-89627000D01*
X145373000Y-92265000D01*
X145035750Y-92265000D01*
X144877000Y-92423750D01*
X144877000Y-93623000D01*
X144897000Y-93623000D01*
X144897000Y-93877000D01*
X144877000Y-93877000D01*
X144877000Y-93897000D01*
X144623000Y-93897000D01*
X144623000Y-93877000D01*
X144603000Y-93877000D01*
X144603000Y-93623000D01*
X144623000Y-93623000D01*
X144623000Y-92423750D01*
X144464250Y-92265000D01*
X143773690Y-92265000D01*
X143540301Y-92361673D01*
X143361673Y-92540302D01*
X143295096Y-92701033D01*
X143280625Y-92679375D01*
X142789418Y-92351161D01*
X142356256Y-92265000D01*
X142063744Y-92265000D01*
X141630582Y-92351161D01*
X141139375Y-92679375D01*
X140940000Y-92977761D01*
X140740625Y-92679375D01*
X140249418Y-92351161D01*
X139816256Y-92265000D01*
X139523744Y-92265000D01*
X139090582Y-92351161D01*
X138599375Y-92679375D01*
X138400000Y-92977761D01*
X138200625Y-92679375D01*
X137709418Y-92351161D01*
X137276256Y-92265000D01*
X136983744Y-92265000D01*
X136550582Y-92351161D01*
X136059375Y-92679375D01*
X135731161Y-93170582D01*
X135615908Y-93750000D01*
X135731161Y-94329418D01*
X136059375Y-94820625D01*
X136550582Y-95148839D01*
X136983744Y-95235000D01*
X137276256Y-95235000D01*
X137709418Y-95148839D01*
X138200625Y-94820625D01*
X138400000Y-94522239D01*
X138599375Y-94820625D01*
X139090582Y-95148839D01*
X139523744Y-95235000D01*
X139816256Y-95235000D01*
X140249418Y-95148839D01*
X140600002Y-94914586D01*
X140600001Y-118210154D01*
X140585113Y-118285001D01*
X140600001Y-118359848D01*
X140600001Y-118359852D01*
X140644097Y-118581537D01*
X140812072Y-118832930D01*
X140875531Y-118875332D01*
X141177560Y-119177362D01*
X141177560Y-120450000D01*
X141226843Y-120697765D01*
X141367191Y-120907809D01*
X141457228Y-120967970D01*
X140630199Y-121795000D01*
X130561211Y-121795000D01*
X130443780Y-121677569D01*
X130063374Y-121520000D01*
X129651626Y-121520000D01*
X129271220Y-121677569D01*
X128980069Y-121968720D01*
X128822500Y-122349126D01*
X128822500Y-122760874D01*
X128980069Y-123141280D01*
X129271220Y-123432431D01*
X129651626Y-123590000D01*
X130063374Y-123590000D01*
X130443780Y-123432431D01*
X130561211Y-123315000D01*
X140870153Y-123315000D01*
X140945000Y-123329888D01*
X141019847Y-123315000D01*
X141019852Y-123315000D01*
X141241537Y-123270904D01*
X141492929Y-123102929D01*
X141535331Y-123039470D01*
X143284473Y-121290329D01*
X143347929Y-121247929D01*
X143448483Y-121097440D01*
X143673000Y-121097440D01*
X143673000Y-124373000D01*
X142500000Y-124373000D01*
X142438739Y-124388752D01*
X142400830Y-124420664D01*
X140400830Y-126920664D01*
X140382667Y-126951399D01*
X140373000Y-127000000D01*
X140373000Y-131315000D01*
X105627000Y-131315000D01*
X105627000Y-127000000D01*
X105621982Y-126964654D01*
X105599170Y-126920664D01*
X103599170Y-124420664D01*
X103548601Y-124382667D01*
X103500000Y-124373000D01*
X98735000Y-124373000D01*
X98735000Y-97711126D01*
X103714600Y-97711126D01*
X103714600Y-98122874D01*
X103872169Y-98503280D01*
X103989601Y-98620712D01*
X103989601Y-99213749D01*
X103974712Y-99288600D01*
X103989601Y-99363452D01*
X104033697Y-99585137D01*
X104201672Y-99836529D01*
X104265128Y-99878929D01*
X104502000Y-100115801D01*
X104502000Y-100281874D01*
X104659569Y-100662280D01*
X104950720Y-100953431D01*
X105331126Y-101111000D01*
X105742874Y-101111000D01*
X106123280Y-100953431D01*
X106414431Y-100662280D01*
X106572000Y-100281874D01*
X106572000Y-99870126D01*
X106414431Y-99489720D01*
X106123280Y-99198569D01*
X105742874Y-99041000D01*
X105576801Y-99041000D01*
X105509600Y-98973799D01*
X105509600Y-98620711D01*
X105627031Y-98503280D01*
X105784600Y-98122874D01*
X105784600Y-97711126D01*
X105627031Y-97330720D01*
X105335880Y-97039569D01*
X104955474Y-96882000D01*
X104543726Y-96882000D01*
X104163320Y-97039569D01*
X103872169Y-97330720D01*
X103714600Y-97711126D01*
X98735000Y-97711126D01*
X98735000Y-89627000D01*
X103000000Y-89627000D01*
X103035346Y-89621982D01*
X103079336Y-89599170D01*
X105579336Y-87599170D01*
X105617333Y-87548601D01*
X105627000Y-87500000D01*
X105627000Y-87294126D01*
X121465000Y-87294126D01*
X121465000Y-87705874D01*
X121622569Y-88086280D01*
X121913720Y-88377431D01*
X122209628Y-88500000D01*
X121913720Y-88622569D01*
X121622569Y-88913720D01*
X121465000Y-89294126D01*
X121465000Y-89705874D01*
X121622569Y-90086280D01*
X121913720Y-90377431D01*
X122294126Y-90535000D01*
X122460199Y-90535000D01*
X124834691Y-92909493D01*
X124877091Y-92972949D01*
X125128483Y-93140924D01*
X125350168Y-93185020D01*
X125350173Y-93185020D01*
X125425020Y-93199908D01*
X125499867Y-93185020D01*
X132913323Y-93185020D01*
X132988170Y-93199908D01*
X133063017Y-93185020D01*
X133063022Y-93185020D01*
X133284707Y-93140924D01*
X133536099Y-92972949D01*
X133578501Y-92909491D01*
X134208711Y-92279281D01*
X134300000Y-92297440D01*
X134800000Y-92297440D01*
X135143435Y-92229126D01*
X135350000Y-92091104D01*
X135556565Y-92229126D01*
X135900000Y-92297440D01*
X136400000Y-92297440D01*
X136743435Y-92229126D01*
X136950000Y-92091104D01*
X137156565Y-92229126D01*
X137500000Y-92297440D01*
X138000000Y-92297440D01*
X138343435Y-92229126D01*
X138634586Y-92034586D01*
X138829126Y-91743435D01*
X138897440Y-91400000D01*
X138897440Y-90300000D01*
X138829126Y-89956565D01*
X138634586Y-89665414D01*
X138510000Y-89582169D01*
X138510000Y-87685000D01*
X138914250Y-87685000D01*
X139073000Y-87526250D01*
X139073000Y-86377000D01*
X137823750Y-86377000D01*
X137737776Y-86462974D01*
X136598493Y-85323691D01*
X137665000Y-85323691D01*
X137665000Y-85964250D01*
X137823750Y-86123000D01*
X139073000Y-86123000D01*
X139073000Y-84973750D01*
X138914250Y-84815000D01*
X138173690Y-84815000D01*
X137940301Y-84911673D01*
X137761673Y-85090302D01*
X137665000Y-85323691D01*
X136598493Y-85323691D01*
X134940531Y-83665730D01*
X134898129Y-83602271D01*
X134646737Y-83434296D01*
X134425052Y-83390200D01*
X134425047Y-83390200D01*
X134350200Y-83375312D01*
X134275353Y-83390200D01*
X129507111Y-83390200D01*
X129389680Y-83272769D01*
X129009274Y-83115200D01*
X128597526Y-83115200D01*
X128217120Y-83272769D01*
X127925969Y-83563920D01*
X127768400Y-83944326D01*
X127768400Y-84356074D01*
X127925969Y-84736480D01*
X128004489Y-84815000D01*
X127323690Y-84815000D01*
X127090301Y-84911673D01*
X126911673Y-85090302D01*
X126815000Y-85323691D01*
X126815000Y-85964250D01*
X126973750Y-86123000D01*
X128223000Y-86123000D01*
X128223000Y-86103000D01*
X128477000Y-86103000D01*
X128477000Y-86123000D01*
X129726250Y-86123000D01*
X129885000Y-85964250D01*
X129885000Y-85323691D01*
X129788327Y-85090302D01*
X129609699Y-84911673D01*
X129606143Y-84910200D01*
X132565000Y-84910200D01*
X132565000Y-85285711D01*
X132745405Y-85721249D01*
X133078751Y-86054595D01*
X133514289Y-86235000D01*
X133985711Y-86235000D01*
X134421249Y-86054595D01*
X134754595Y-85721249D01*
X134781498Y-85656299D01*
X136990000Y-87864802D01*
X136990001Y-89582168D01*
X136950000Y-89608896D01*
X136743435Y-89470874D01*
X136400000Y-89402560D01*
X135900000Y-89402560D01*
X135556565Y-89470874D01*
X135350000Y-89608896D01*
X135143435Y-89470874D01*
X134880008Y-89418475D01*
X134935000Y-89285711D01*
X134935000Y-88814289D01*
X134754595Y-88378751D01*
X134421249Y-88045405D01*
X133985711Y-87865000D01*
X133514289Y-87865000D01*
X133078751Y-88045405D01*
X132745405Y-88378751D01*
X132565000Y-88814289D01*
X132565000Y-89285711D01*
X132619992Y-89418475D01*
X132356565Y-89470874D01*
X132150000Y-89608896D01*
X131943435Y-89470874D01*
X131600000Y-89402560D01*
X131100000Y-89402560D01*
X130756565Y-89470874D01*
X130644067Y-89546042D01*
X130609698Y-89511673D01*
X130376309Y-89415000D01*
X130035750Y-89415000D01*
X129877000Y-89573750D01*
X129877000Y-90723000D01*
X129897000Y-90723000D01*
X129897000Y-90977000D01*
X129877000Y-90977000D01*
X129877000Y-90997000D01*
X129623000Y-90997000D01*
X129623000Y-90977000D01*
X128773750Y-90977000D01*
X128615000Y-91135750D01*
X128615000Y-91215010D01*
X127289812Y-91215010D01*
X125998492Y-89923690D01*
X128615000Y-89923690D01*
X128615000Y-90564250D01*
X128773750Y-90723000D01*
X129623000Y-90723000D01*
X129623000Y-89573750D01*
X129464250Y-89415000D01*
X129123691Y-89415000D01*
X128890302Y-89511673D01*
X128711673Y-89690301D01*
X128615000Y-89923690D01*
X125998492Y-89923690D01*
X123535000Y-87460199D01*
X123535000Y-87294126D01*
X123377431Y-86913720D01*
X123086280Y-86622569D01*
X122876680Y-86535750D01*
X126815000Y-86535750D01*
X126815000Y-87176309D01*
X126911673Y-87409698D01*
X127090301Y-87588327D01*
X127323690Y-87685000D01*
X128064250Y-87685000D01*
X128223000Y-87526250D01*
X128223000Y-86377000D01*
X128477000Y-86377000D01*
X128477000Y-87526250D01*
X128635750Y-87685000D01*
X129376310Y-87685000D01*
X129609699Y-87588327D01*
X129788327Y-87409698D01*
X129885000Y-87176309D01*
X129885000Y-86535750D01*
X129726250Y-86377000D01*
X128477000Y-86377000D01*
X128223000Y-86377000D01*
X126973750Y-86377000D01*
X126815000Y-86535750D01*
X122876680Y-86535750D01*
X122705874Y-86465000D01*
X122294126Y-86465000D01*
X121913720Y-86622569D01*
X121622569Y-86913720D01*
X121465000Y-87294126D01*
X105627000Y-87294126D01*
X105627000Y-82685000D01*
X140373000Y-82685000D01*
X140373000Y-84875761D01*
G36*
X142927000Y-116973000D02*
X142947000Y-116973000D01*
X142947000Y-117227000D01*
X142927000Y-117227000D01*
X142927000Y-117247000D01*
X142673000Y-117247000D01*
X142673000Y-117227000D01*
X142653000Y-117227000D01*
X142653000Y-116973000D01*
X142673000Y-116973000D01*
X142673000Y-116953000D01*
X142927000Y-116953000D01*
X142927000Y-116973000D01*
X142927000Y-116973000D01*
G37*
X142927000Y-116973000D02*
X142947000Y-116973000D01*
X142947000Y-117227000D01*
X142927000Y-117227000D01*
X142927000Y-117247000D01*
X142673000Y-117247000D01*
X142673000Y-117227000D01*
X142653000Y-117227000D01*
X142653000Y-116973000D01*
X142673000Y-116973000D01*
X142673000Y-116953000D01*
X142927000Y-116953000D01*
X142927000Y-116973000D01*
G04 #@! TD*
M02*
